{
.appVersion = "1356";
DisplayStrings = (
"/abreve/abrevedotbelow/ebreve/gbreve/ibreve/obreve/ubreve/tilde/tildecomb.case/brevecomb_tildecomb/circumflexcomb_tildecomb",
"/commaaccentcomb",
"/quoteright/apostrophemod",
"/ogonekcomb",
"/horncomb",
"/caroncomb",
"¨",
"/commaturnedabovecomb",
"/circumflexcomb Â",
"/brevecomb/brevecomb_tildecomb/Abrevetilde",
"/circumflexcomb/circumflexcomb_acutecomb",
"/hookabovecomb/circumflexcomb/circumflexcomb_hookabovecomb",
"/circumflexcomb_tildecomb",
"/gravecomb.case",
"/acutecomb.case",
"",
"/commaturnedabovecomb.case",
"",
"",
"/caroncomb.case",
"/caroncomb.case",
"/tildecomb.case",
"/hookabovecomb.case",
"/circumflexcomb.case/circumflexcomb_hookabovecomb.case",
"/circumflexcomb.case/circumflexcomb_tildecomb.case",
"/Adblgrave",
"/breveinvertedcomb/Ainvertedbreve",
"/breveinvertedcomb.case",
"/commaturnedabovecomb.case",
"/dieresiscomb.case",
"/ringcomb.case/Aringacute",
"Æ/AEacute",
"C/Cacute",
"Z/Zcaron/DZcaron",
"D/Dcaron",
"z/zcaron/Dzcaron",
"EÉ",
"E/Eogonek",
"G/Gbreve",
"HIILN/Nacute",
O,
"R/Racute",
"R/Racute",
"S/Sacute",
"T/Tcaron",
U,
W,
Y,
"aá",
"aá",
"/circumflexcomb â",
"ã",
"/tildecomb",
"/ebreve",
"/brevecomb/brevecomb_tildecomb/abrevetilde",
"a/acutecomb/brevecomb_acutecomb/abreveacute",
"/acutecomb/brevecomb_acutecomb/abreveacute",
"/gravecomb/brevecomb_gravecomb/abrevegrave",
"/circumflexcomb/circumflexcomb_acutecomb",
"/circumflexcomb/circumflexcomb_acutecomb",
"/circumflexcomb/circumflexcomb_acutecomb",
"/tildecomb.case/brevecomb_tildecomb.case",
"/brevecomb.case",
"/brevecomb.case/brevecomb_gravecomb.case",
"/breveinvertedcomb.case/Ainvertedbreve",
"/Ainvertedbreve",
"U/Uhorn/Uhorntilde",
"a/dblgravecomb/adblgrave",
"/breveinvertedcomb/ainvertedbreve",
"/brevecomb",
"/breveinvertedcomb",
"a/ahookabove",
"/brevecomb/brevecomb_gravecomb/abrevegrave",
"/breveinvertedcomb/ainvertedbreve",
"/hookabovecomb/ahookabove",
"/hookabovecomb/ahookabove",
"a/aogonek",
"/ringcomb å",
"/ringcomb/aringacute",

glyphs = (
{
glyphname = .notdef;
lastChange = "2021-06-24 05:16:11 +0000";
layers = (
{
layerId = "5C71BA0D-BC2C-47B0-9323-6F63B3241D58";
paths = (
{
closed = 1;
nodes = (
"389 0 LINE",
"389 650 LINE",
"60 650 LINE",
"60 0 LINE"
);
},
{
closed = 1;
nodes = (
"222 287 LINE",
"319 64 LINE",
"125 64 LINE"
);
},
{
closed = 1;
nodes = (
"114 534 LINE",
"203 330 LINE",
"114 129 LINE"
);
},
{
closed = 1;
nodes = (
"241 330 LINE",
"331 537 LINE",
"331 127 LINE"
);
},
{
closed = 1;
nodes = (
"129 584 LINE",
"315 584 LINE",
"222 374 LINE"
);
}
);
width = 449;
}
);
note = .notdef;
},
{
glyphname = A;
lastChange = "2021-06-24 05:27:23 +0000";
layers = (
{
anchors = (
{
name = bottom;
position = "{475, 0}";
},
{
name = ogonek;
position = "{801, -68}";
},
{
name = top;
position = "{597, 616}";
}
);
layerId = "5C71BA0D-BC2C-47B0-9323-6F63B3241D58";
paths = (
{
closed = 1;
nodes = (
"735 -86 OFFCURVE",
"740 -87 OFFCURVE",
"745 -86 CURVE SMOOTH",
"764 -84 OFFCURVE",
"770 -73 OFFCURVE",
"770 -63 CURVE SMOOTH",
"770 -60 OFFCURVE",
"770 -58 OFFCURVE",
"769 -55 CURVE",
"768 -47 OFFCURVE",
"762 -40 OFFCURVE",
"753 -40 CURVE SMOOTH",
"750 -40 OFFCURVE",
"745 -42 OFFCURVE",
"741 -45 CURVE SMOOTH",
"740 -46 OFFCURVE",
"736 -48 OFFCURVE",
"733 -48 CURVE SMOOTH",
"720 -48 LINE",
"700 -38 OFFCURVE",
"695 2 OFFCURVE",
"695 39 CURVE SMOOTH",
"695 67 OFFCURVE",
"698 93 OFFCURVE",
"699 103 CURVE",
"702 104 OFFCURVE",
"702 113 OFFCURVE",
"702 124 CURVE SMOOTH",
"702 138 OFFCURVE",
"701 155 OFFCURVE",
"701 158 CURVE SMOOTH",
"701 243 LINE SMOOTH",
"701 264 OFFCURVE",
"703 285 OFFCURVE",
"704 307 CURVE",
"722 304 OFFCURVE",
"739 299 OFFCURVE",
"754 299 CURVE SMOOTH",
"766 299 OFFCURVE",
"773 306 OFFCURVE",
"773 315 CURVE SMOOTH",
"773 320 OFFCURVE",
"770 327 OFFCURVE",
"763 332 CURVE SMOOTH",
"745 345 OFFCURVE",
"726 351 OFFCURVE",
"706 353 CURVE",
"706 373 OFFCURVE",
"705 389 OFFCURVE",
"705 403 CURVE SMOOTH",
"705 414 OFFCURVE",
"705 425 OFFCURVE",
"705 437 CURVE SMOOTH",
"705 453 OFFCURVE",
"705 470 OFFCURVE",
"703 487 CURVE SMOOTH",
"698 545 OFFCURVE",
"685 609 OFFCURVE",
"606 614 CURVE",
"597 616 OFFCURVE",
"585 616 OFFCURVE",
"569 616 CURVE SMOOTH",
"486 616 OFFCURVE",
"447 440 OFFCURVE",
"435 387 CURVE SMOOTH",
"431 369 OFFCURVE",
"427 352 OFFCURVE",
"422 334 CURVE",
"401 328 OFFCURVE",
"380 319 OFFCURVE",
"363 309 CURVE",
"356 306 OFFCURVE",
"353 301 OFFCURVE",
"352 296 CURVE",
"349 293 OFFCURVE",
"347 288 OFFCURVE",
"347 284 CURVE SMOOTH",
"347 273 OFFCURVE",
"356 261 OFFCURVE",
"370 265 CURVE SMOOTH",
"407 274 LINE",
"399 244 OFFCURVE",
"391 215 OFFCURVE",
"384 185 CURVE SMOOTH",
"366 112 OFFCURVE",
"302 43 OFFCURVE",
"228 17 CURVE",
"224 20 OFFCURVE",
"217 20 OFFCURVE",
"210 16 CURVE",
"209 15 LINE",
"206 16 OFFCURVE",
"203 16 OFFCURVE",
"199 16 CURVE SMOOTH",
"191 16 OFFCURVE",
"184 12 OFFCURVE",
"176 12 CURVE SMOOTH",
"156 12 OFFCURVE",
"112 24 OFFCURVE",
"98 38 CURVE SMOOTH",
"97 39 LINE",
"96 54 OFFCURVE",
"90 63 OFFCURVE",
"75 68 CURVE",
"76 72 OFFCURVE",
"77 75 OFFCURVE",
"77 79 CURVE SMOOTH",
"77 97 OFFCURVE",
"59 109 OFFCURVE",
"51 124 CURVE SMOOTH",
"50 126 LINE",
"54 136 OFFCURVE",
"57 144 OFFCURVE",
"57 151 CURVE SMOOTH",
"57 157 OFFCURVE",
"55 163 OFFCURVE",
"50 168 CURVE",
"57 173 OFFCURVE",
"63 181 OFFCURVE",
"63 189 CURVE SMOOTH",
"63 193 OFFCURVE",
"61 197 OFFCURVE",
"58 202 CURVE",
"60 204 LINE SMOOTH",
"68 212 OFFCURVE",
"70 218 OFFCURVE",
"70 226 CURVE SMOOTH",
"70 232 OFFCURVE",
"69 238 OFFCURVE",
"67 245 CURVE SMOOTH",
"66 249 LINE",
"81 263 OFFCURVE",
"99 260 OFFCURVE",
"95 290 CURVE",
"96 291 LINE",
"113 294 OFFCURVE",
"128 292 OFFCURVE",
"134 313 CURVE",
"160 317 OFFCURVE",
"176 319 OFFCURVE",
"201 319 CURVE SMOOTH",
"207 319 LINE",
"237 306 OFFCURVE",
"260 279 OFFCURVE",
"260 244 CURVE SMOOTH",
"260 223 OFFCURVE",
"255 207 OFFCURVE",
"245 197 CURVE",
"230 192 OFFCURVE",
"212 192 OFFCURVE",
"197 192 CURVE SMOOTH",
"195 192 OFFCURVE",
"194 193 OFFCURVE",
"192 193 CURVE",
"185 201 OFFCURVE",
"176 205 OFFCURVE",
"169 205 CURVE SMOOTH",
"162 205 OFFCURVE",
"158 202 OFFCURVE",
"158 193 CURVE SMOOTH",
"158 190 OFFCURVE",
"159 186 OFFCURVE",
"160 182 CURVE",
"161 181 OFFCURVE",
"161 179 OFFCURVE",
"162 178 CURVE",
"161 171 OFFCURVE",
"164 164 OFFCURVE",
"170 161 CURVE",
"179 151 OFFCURVE",
"191 147 OFFCURVE",
"208 147 CURVE SMOOTH",
"233 147 OFFCURVE",
"252 154 OFFCURVE",
"266 166 CURVE",
"291 176 OFFCURVE",
"309 196 OFFCURVE",
"309 233 CURVE SMOOTH",
"309 307 OFFCURVE",
"268 368 OFFCURVE",
"181 368 CURVE SMOOTH",
"167 368 OFFCURVE",
"156 366 OFFCURVE",
"146 363 CURVE",
"46 347 OFFCURVE",
"1 228 OFFCURVE",
"1 144 CURVE SMOOTH",
"1 28 OFFCURVE",
"60 -31 OFFCURVE",
"168 -31 CURVE SMOOTH",
"255 -31 OFFCURVE",
"351 36 OFFCURVE",
"393 108 CURVE SMOOTH",
"418 150 OFFCURVE",
"421 196 OFFCURVE",
"437 241 CURVE SMOOTH",
"449 284 LINE",
"512 299 OFFCURVE",
"575 312 OFFCURVE",
"640 316 CURVE",
"639 297 OFFCURVE",
"648 300 OFFCURVE",
"650 281 CURVE",
"650 281 OFFCURVE",
"647 251 OFFCURVE",
"646 230 CURVE SMOOTH",
"644 202 OFFCURVE",
"639 117 OFFCURVE",
"639 88 CURVE SMOOTH",
"639 81 OFFCURVE",
"627 67 OFFCURVE",
"627 49 CURVE SMOOTH",
"627 37 OFFCURVE",
"631 29 OFFCURVE",
"635 22 CURVE SMOOTH",
"658 -14 OFFCURVE",
"636 -85 OFFCURVE",
"709 -85 CURVE SMOOTH",
"713 -85 LINE SMOOTH",
"718 -85 OFFCURVE",
"724 -86 OFFCURVE",
"730 -86 CURVE SMOOTH"
);
},
{
closed = 1;
nodes = (
"475 398 OFFCURVE",
"486 455 OFFCURVE",
"508 508 CURVE SMOOTH",
"514 522 OFFCURVE",
"538 563 OFFCURVE",
"558 576 CURVE",
"560 575 OFFCURVE",
"562 575 OFFCURVE",
"565 575 CURVE SMOOTH",
"586 575 OFFCURVE",
"603 568 OFFCURVE",
"615 557 CURVE",
"626 532 OFFCURVE",
"644 487 OFFCURVE",
"646 482 CURVE SMOOTH",
"649 475 LINE",
"651 456 OFFCURVE",
"652 437 OFFCURVE",
"652 418 CURVE SMOOTH",
"652 396 OFFCURVE",
"651 375 OFFCURVE",
"651 358 CURVE",
"635 361 OFFCURVE",
"620 363 OFFCURVE",
"606 363 CURVE SMOOTH",
"581 363 OFFCURVE",
"552 354 OFFCURVE",
"528 354 CURVE",
"522 356 OFFCURVE",
"517 359 OFFCURVE",
"510 359 CURVE SMOOTH",
"494 359 OFFCURVE",
"489 350 OFFCURVE",
"477 343 CURVE",
"472 343 OFFCURVE",
"467 342 OFFCURVE",
"463 342 CURVE"
);
}
);
width = 783;
}
);
note = A;
unicode = 0041;
},
{
glyphname = AE;
lastChange = "2021-06-24 05:27:23 +0000";
layers = (
{
anchors = (
{
name = bottom;
position = "{559, 0}";
},
{
name = top;
position = "{758, 660}";
}
);
layerId = "5C71BA0D-BC2C-47B0-9323-6F63B3241D58";
paths = (
{
closed = 1;
nodes = (
"721 -41 OFFCURVE",
"709 -40 OFFCURVE",
"698 -37 CURVE",
"696 -35 OFFCURVE",
"694 -34 OFFCURVE",
"691 -33 CURVE",
"693 -18 OFFCURVE",
"682 -11 OFFCURVE",
"669 -11 CURVE SMOOTH",
"668 -11 OFFCURVE",
"665 -8 OFFCURVE",
"665 -2 CURVE SMOOTH",
"665 6 OFFCURVE",
"659 13 OFFCURVE",
"651 13 CURVE SMOOTH",
"643 13 LINE",
"643 18 LINE SMOOTH",
"643 35 OFFCURVE",
"634 46 OFFCURVE",
"618 50 CURVE",
"621 56 OFFCURVE",
"623 61 OFFCURVE",
"623 66 CURVE SMOOTH",
"623 73 OFFCURVE",
"619 78 OFFCURVE",
"613 82 CURVE",
"616 151 OFFCURVE",
"650 220 OFFCURVE",
"690 274 CURVE",
"699 283 OFFCURVE",
"706 291 OFFCURVE",
"708 295 CURVE",
"708 298 LINE",
"721 313 OFFCURVE",
"734 326 OFFCURVE",
"747 337 CURVE",
"758 332 OFFCURVE",
"770 328 OFFCURVE",
"783 325 CURVE SMOOTH",
"790 324 OFFCURVE",
"796 323 OFFCURVE",
"803 323 CURVE SMOOTH",
"865 323 OFFCURVE",
"935 376 OFFCURVE",
"935 409 CURVE SMOOTH",
"935 432 OFFCURVE",
"910 455 OFFCURVE",
"886 455 CURVE SMOOTH",
"836 455 OFFCURVE",
"777 415 OFFCURVE",
"740 386 CURVE",
"727 401 OFFCURVE",
"719 421 OFFCURVE",
"719 438 CURVE SMOOTH",
"719 533 OFFCURVE",
"823 614 OFFCURVE",
"917 614 CURVE SMOOTH",
"972 614 OFFCURVE",
"1033 609 OFFCURVE",
"1033 561 CURVE SMOOTH",
"1033 522 OFFCURVE",
"1021 511 OFFCURVE",
"986 511 CURVE SMOOTH",
"953 511 OFFCURVE",
"945 522 OFFCURVE",
"945 537 CURVE SMOOTH",
"945 542 OFFCURVE",
"946 546 OFFCURVE",
"947 551 CURVE SMOOTH",
"948 559 OFFCURVE",
"952 572 OFFCURVE",
"952 582 CURVE SMOOTH",
"952 592 OFFCURVE",
"948 601 OFFCURVE",
"933 601 CURVE SMOOTH",
"916 601 OFFCURVE",
"908 564 OFFCURVE",
"908 536 CURVE SMOOTH",
"908 527 OFFCURVE",
"908 520 OFFCURVE",
"910 514 CURVE SMOOTH",
"916 493 OFFCURVE",
"957 471 OFFCURVE",
"999 471 CURVE SMOOTH",
"1067 471 OFFCURVE",
"1075 492 OFFCURVE",
"1075 561 CURVE SMOOTH",
"1074 637 OFFCURVE",
"987 655 OFFCURVE",
"916 655 CURVE SMOOTH",
"826 655 OFFCURVE",
"727 590 OFFCURVE",
"691 504 CURVE",
"681 562 OFFCURVE",
"667 648 OFFCURVE",
"620 648 CURVE SMOOTH",
"595 648 OFFCURVE",
"582 636 OFFCURVE",
"573 621 CURVE SMOOTH",
"564 605 OFFCURVE",
"560 588 OFFCURVE",
"551 573 CURVE",
"550 572 OFFCURVE",
"549 570 OFFCURVE",
"548 567 CURVE",
"537 565 OFFCURVE",
"529 558 OFFCURVE",
"529 548 CURVE SMOOTH",
"529 545 OFFCURVE",
"529 543 OFFCURVE",
"530 540 CURVE",
"528 539 LINE",
"524 538 LINE",
"511 531 OFFCURVE",
"504 522 OFFCURVE",
"504 513 CURVE SMOOTH",
"504 508 OFFCURVE",
"506 502 OFFCURVE",
"509 497 CURVE",
"490 470 OFFCURVE",
"484 438 OFFCURVE",
"477 406 CURVE",
"471 399 OFFCURVE",
"466 391 OFFCURVE",
"466 381 CURVE SMOOTH",
"466 377 OFFCURVE",
"466 373 OFFCURVE",
"468 368 CURVE",
"468 367 LINE",
"459 343 LINE SMOOTH",
"456 337 OFFCURVE",
"453 331 OFFCURVE",
"451 326 CURVE",
"423 322 OFFCURVE",
"395 316 OFFCURVE",
"364 309 CURVE SMOOTH",
"350 306 OFFCURVE",
"344 296 OFFCURVE",
"344 285 CURVE SMOOTH",
"344 271 OFFCURVE",
"356 257 OFFCURVE",
"374 261 CURVE SMOOTH",
"394 265 OFFCURVE",
"413 271 OFFCURVE",
"432 276 CURVE",
"411 217 OFFCURVE",
"397 166 OFFCURVE",
"361 113 CURVE SMOOTH",
"328 64 OFFCURVE",
"270 28 OFFCURVE",
"195 28 CURVE SMOOTH",
"188 28 OFFCURVE",
"179 28 OFFCURVE",
"171 29 CURVE SMOOTH",
"100 37 OFFCURVE",
"56 94 OFFCURVE",
"56 181 CURVE SMOOTH",
"56 232 OFFCURVE",
"95 317 OFFCURVE",
"137 329 CURVE SMOOTH",
"145 331 OFFCURVE",
"158 339 OFFCURVE",
"174 344 CURVE SMOOTH",
"180 346 OFFCURVE",
"187 347 OFFCURVE",
"193 347 CURVE SMOOTH",
"203 347 OFFCURVE",
"213 344 OFFCURVE",
"223 338 CURVE SMOOTH",
"272 308 OFFCURVE",
"303 244 OFFCURVE",
"303 189 CURVE SMOOTH",
"303 156 OFFCURVE",
"275 150 OFFCURVE",
"241 147 CURVE SMOOTH",
"225 146 OFFCURVE",
"217 134 OFFCURVE",
"217 123 CURVE SMOOTH",
"217 110 OFFCURVE",
"227 97 OFFCURVE",
"244 99 CURVE SMOOTH",
"305 104 OFFCURVE",
"341 125 OFFCURVE",
"341 191 CURVE SMOOTH",
"341 264 OFFCURVE",
"303 322 OFFCURVE",
"239 363 CURVE SMOOTH",
"223 373 OFFCURVE",
"208 377 OFFCURVE",
"193 377 CURVE SMOOTH",
"176 377 OFFCURVE",
"159 371 OFFCURVE",
"141 364 CURVE SMOOTH",
"133 360 OFFCURVE",
"126 357 OFFCURVE",
"120 355 CURVE SMOOTH",
"80 342 OFFCURVE",
"39 290 OFFCURVE",
"19 261 CURVE SMOOTH",
"6 245 OFFCURVE",
"-6 195 OFFCURVE",
"-6 172 CURVE SMOOTH",
"-6 58 OFFCURVE",
"41 -26 OFFCURVE",
"155 -26 CURVE SMOOTH",
"258 -26 OFFCURVE",
"343 36 OFFCURVE",
"389 102 CURVE SMOOTH",
"411 134 OFFCURVE",
"426 166 OFFCURVE",
"438 197 CURVE SMOOTH",
"450 228 OFFCURVE",
"460 257 OFFCURVE",
"471 287 CURVE",
"509 297 OFFCURVE",
"545 308 OFFCURVE",
"585 315 CURVE SMOOTH",
"601 318 OFFCURVE",
"625 320 OFFCURVE",
"648 322 CURVE",
"649 286 LINE",
"643 279 LINE",
"637 276 OFFCURVE",
"633 271 OFFCURVE",
"632 262 CURVE",
"628 256 LINE",
"627 256 LINE",
"624 255 LINE",
"609 253 OFFCURVE",
"601 243 OFFCURVE",
"601 230 CURVE SMOOTH",
"601 226 OFFCURVE",
"602 222 OFFCURVE",
"604 217 CURVE",
"604 216 LINE",
"590 212 OFFCURVE",
"582 200 OFFCURVE",
"582 186 CURVE SMOOTH",
"582 183 OFFCURVE",
"582 179 OFFCURVE",
"583 176 CURVE",
"581 172 OFFCURVE",
"579 168 OFFCURVE",
"577 165 CURVE",
"575 164 OFFCURVE",
"573 164 OFFCURVE",
"571 163 CURVE",
"562 162 OFFCURVE",
"558 157 OFFCURVE",
"558 150 CURVE SMOOTH",
"558 145 OFFCURVE",
"561 138 OFFCURVE",
"564 133 CURVE",
"560 123 OFFCURVE",
"557 114 OFFCURVE",
"554 104 CURVE",
"549 101 OFFCURVE",
"544 99 OFFCURVE",
"540 96 CURVE SMOOTH",
"534 92 OFFCURVE",
"531 88 OFFCURVE",
"531 84 CURVE SMOOTH",
"531 79 OFFCURVE",
"537 74 OFFCURVE",
"545 70 CURVE",
"541 54 OFFCURVE",
"539 39 OFFCURVE",
"539 24 CURVE SMOOTH",
"539 -56 OFFCURVE",
"617 -84 OFFCURVE",
"706 -84 CURVE SMOOTH",
"796 -84 OFFCURVE",
"898 -55 OFFCURVE",
"940 -21 CURVE SMOOTH",
"951 -12 OFFCURVE",
"969 0 OFFCURVE",
"987 13 CURVE SMOOTH",
"1005 26 OFFCURVE",
"1023 40 OFFCURVE",
"1033 51 CURVE SMOOTH",
"1078 100 OFFCURVE",
"1109 154 OFFCURVE",
"1109 245 CURVE SMOOTH",
"1109 280 OFFCURVE",
"1077 314 OFFCURVE",
"1042 314 CURVE SMOOTH",
"984 314 OFFCURVE",
"942 309 OFFCURVE",
"904 266 CURVE SMOOTH",
"889 249 OFFCURVE",
"872 234 OFFCURVE",
"875 209 CURVE SMOOTH",
"877 181 OFFCURVE",
"907 154 OFFCURVE",
"926 154 CURVE SMOOTH",
"937 154 OFFCURVE",
"943 157 OFFCURVE",
"944 163 CURVE",
"946 168 OFFCURVE",
"944 172 OFFCURVE",
"945 176 CURVE SMOOTH",
"947 186 OFFCURVE",
"941 192 OFFCURVE",
"936 195 CURVE SMOOTH",
"933 197 LINE SMOOTH",
"930 199 OFFCURVE",
"928 202 OFFCURVE",
"928 205 CURVE SMOOTH",
"928 214 OFFCURVE",
"933 221 OFFCURVE",
"937 228 CURVE SMOOTH",
"960 264 OFFCURVE",
"991 272 OFFCURVE",
"1039 272 CURVE SMOOTH",
"1053 272 OFFCURVE",
"1067 259 OFFCURVE",
"1067 245 CURVE SMOOTH",
"1067 206 OFFCURVE",
"1055 177 OFFCURVE",
"1039 153 CURVE SMOOTH",
"1023 129 OFFCURVE",
"1001 109 OFFCURVE",
"982 88 CURVE SMOOTH",
"963 68 OFFCURVE",
"940 50 OFFCURVE",
"918 32 CURVE SMOOTH",
"874 -2 OFFCURVE",
"804 -41 OFFCURVE",
"733 -41 CURVE SMOOTH"
);
},
{
closed = 1;
nodes = (
"499 347 OFFCURVE",
"503 360 OFFCURVE",
"507 372 CURVE SMOOTH",
"516 410 LINE",
"521 417 OFFCURVE",
"522 423 OFFCURVE",
"522 428 CURVE SMOOTH",
"522 430 OFFCURVE",
"522 431 OFFCURVE",
"522 433 CURVE",
"528 451 OFFCURVE",
"535 469 OFFCURVE",
"546 483 CURVE SMOOTH",
"551 491 OFFCURVE",
"558 506 OFFCURVE",
"565 521 CURVE SMOOTH",
"570 532 OFFCURVE",
"576 548 OFFCURVE",
"584 558 CURVE SMOOTH",
"586 560 OFFCURVE",
"588 563 OFFCURVE",
"590 564 CURVE",
"595 565 OFFCURVE",
"598 566 OFFCURVE",
"600 569 CURVE",
"605 567 OFFCURVE",
"609 561 OFFCURVE",
"614 551 CURVE SMOOTH",
"623 530 OFFCURVE",
"630 495 OFFCURVE",
"636 462 CURVE",
"639 381 LINE",
"647 359 LINE",
"620 355 OFFCURVE",
"594 352 OFFCURVE",
"578 349 CURVE SMOOTH",
"493 334 LINE"
);
},
{
closed = 1;
nodes = (
"782 360 OFFCURVE",
"777 361 OFFCURVE",
"773 362 CURVE",
"795 384 OFFCURVE",
"819 403 OFFCURVE",
"853 403 CURVE SMOOTH",
"857 403 OFFCURVE",
"874 399 OFFCURVE",
"874 395 CURVE",
"873 395 LINE",
"873 372 OFFCURVE",
"815 360 OFFCURVE",
"787 360 CURVE SMOOTH"
);
}
);
width = 1117;
}
);
note = AE;
unicode = 00C6;
},
{
glyphname = B;
lastChange = "2021-06-24 05:27:23 +0000";
layers = (
{
layerId = "5C71BA0D-BC2C-47B0-9323-6F63B3241D58";
paths = (
{
closed = 1;
nodes = (
"64 -27 OFFCURVE",
"82 -13 OFFCURVE",
"96 -1 CURVE SMOOTH",
"99 2 OFFCURVE",
"106 9 OFFCURVE",
"113 17 CURVE",
"115 16 LINE SMOOTH",
"125 10 OFFCURVE",
"136 5 OFFCURVE",
"147 1 CURVE",
"179 -17 OFFCURVE",
"215 -27 OFFCURVE",
"253 -27 CURVE SMOOTH",
"290 -27 OFFCURVE",
"322 -26 OFFCURVE",
"364 -15 CURVE SMOOTH",
"381 -10 OFFCURVE",
"393 3 OFFCURVE",
"408 11 CURVE",
"425 15 OFFCURVE",
"462 36 OFFCURVE",
"462 66 CURVE",
"464 68 OFFCURVE",
"483 102 OFFCURVE",
"485 104 CURVE SMOOTH",
"491 112 OFFCURVE",
"493 124 OFFCURVE",
"493 137 CURVE SMOOTH",
"493 159 OFFCURVE",
"488 185 OFFCURVE",
"488 199 CURVE SMOOTH",
"488 247 OFFCURVE",
"460 295 OFFCURVE",
"424 321 CURVE",
"468 363 OFFCURVE",
"496 420 OFFCURVE",
"496 488 CURVE SMOOTH",
"496 490 OFFCURVE",
"495 492 OFFCURVE",
"494 494 CURVE",
"493 548 OFFCURVE",
"461 584 OFFCURVE",
"419 607 CURVE",
"416 610 OFFCURVE",
"413 612 OFFCURVE",
"409 612 CURVE",
"387 623 OFFCURVE",
"364 630 OFFCURVE",
"341 635 CURVE",
"332 644 OFFCURVE",
"320 646 OFFCURVE",
"306 646 CURVE SMOOTH",
"296 646 OFFCURVE",
"284 645 OFFCURVE",
"275 645 CURVE SMOOTH",
"271 645 OFFCURVE",
"267 644 OFFCURVE",
"264 642 CURVE",
"176 642 OFFCURVE",
"25 615 OFFCURVE",
"25 484 CURVE SMOOTH",
"25 430 OFFCURVE",
"52 419 OFFCURVE",
"93 407 CURVE SMOOTH",
"101 405 OFFCURVE",
"110 407 OFFCURVE",
"117 406 CURVE",
"161 405 OFFCURVE",
"189 460 OFFCURVE",
"189 500 CURVE SMOOTH",
"189 522 OFFCURVE",
"180 539 OFFCURVE",
"161 539 CURVE SMOOTH",
"143 539 OFFCURVE",
"161 474 OFFCURVE",
"138 462 CURVE SMOOTH",
"129 457 OFFCURVE",
"103 444 OFFCURVE",
"93 444 CURVE SMOOTH",
"68 444 OFFCURVE",
"62 455 OFFCURVE",
"62 484 CURVE SMOOTH",
"62 577 OFFCURVE",
"173 606 OFFCURVE",
"268 606 CURVE SMOOTH",
"287 606 OFFCURVE",
"307 604 OFFCURVE",
"326 600 CURVE",
"331 595 LINE",
"352 595 OFFCURVE",
"370 582 OFFCURVE",
"390 577 CURVE",
"391 576 LINE",
"394 568 OFFCURVE",
"402 562 OFFCURVE",
"410 560 CURVE SMOOTH",
"414 559 LINE",
"416 556 OFFCURVE",
"420 552 OFFCURVE",
"423 548 CURVE SMOOTH",
"428 540 OFFCURVE",
"429 535 OFFCURVE",
"429 532 CURVE SMOOTH",
"429 528 OFFCURVE",
"428 525 OFFCURVE",
"428 521 CURVE SMOOTH",
"428 518 OFFCURVE",
"428 513 OFFCURVE",
"431 507 CURVE SMOOTH",
"441 479 LINE",
"441 471 OFFCURVE",
"442 464 OFFCURVE",
"442 456 CURVE",
"419 451 OFFCURVE",
"431 431 OFFCURVE",
"420 409 CURVE",
"413 402 OFFCURVE",
"404 387 OFFCURVE",
"393 371 CURVE",
"389 378 OFFCURVE",
"383 383 OFFCURVE",
"373 383 CURVE SMOOTH",
"370 383 OFFCURVE",
"368 382 OFFCURVE",
"366 381 CURVE",
"353 390 OFFCURVE",
"345 399 OFFCURVE",
"328 399 CURVE SMOOTH",
"323 399 OFFCURVE",
"318 396 OFFCURVE",
"313 396 CURVE SMOOTH",
"294 396 OFFCURVE",
"277 403 OFFCURVE",
"258 407 CURVE",
"259 417 OFFCURVE",
"261 429 OFFCURVE",
"268 443 CURVE SMOOTH",
"280 470 OFFCURVE",
"262 545 OFFCURVE",
"299 547 CURVE SMOOTH",
"311 547 OFFCURVE",
"317 556 OFFCURVE",
"317 564 CURVE SMOOTH",
"317 574 OFFCURVE",
"310 583 OFFCURVE",
"298 583 CURVE SMOOTH",
"291 583 OFFCURVE",
"283 582 OFFCURVE",
"278 581 CURVE",
"276 582 OFFCURVE",
"273 583 OFFCURVE",
"270 583 CURVE SMOOTH",
"267 583 OFFCURVE",
"264 582 OFFCURVE",
"260 580 CURVE SMOOTH",
"217 558 OFFCURVE",
"218 501 OFFCURVE",
"211 460 CURVE SMOOTH",
"207 437 OFFCURVE",
"196 419 OFFCURVE",
"191 397 CURVE",
"149 384 OFFCURVE",
"86 357 OFFCURVE",
"86 307 CURVE SMOOTH",
"86 270 OFFCURVE",
"122 251 OFFCURVE",
"145 243 CURVE",
"144 238 OFFCURVE",
"142 233 OFFCURVE",
"139 228 CURVE SMOOTH",
"116 181 OFFCURVE",
"117 120 OFFCURVE",
"97 72 CURVE",
"79 83 OFFCURVE",
"62 91 OFFCURVE",
"39 91 CURVE SMOOTH",
"18 91 OFFCURVE",
"-3 89 OFFCURVE",
"-3 59 CURVE SMOOTH",
"-3 38 LINE SMOOTH",
"-3 9 OFFCURVE",
"5 -27 OFFCURVE",
"44 -27 CURVE SMOOTH"
);
},
{
closed = 1;
nodes = (
"35 10 OFFCURVE",
"34 25 OFFCURVE",
"34 34 CURVE SMOOTH",
"34 36 OFFCURVE",
"34 37 OFFCURVE",
"34 38 CURVE SMOOTH",
"34 54 LINE",
"39 54 LINE SMOOTH",
"54 53 OFFCURVE",
"67 48 OFFCURVE",
"79 41 CURVE",
"71 31 OFFCURVE",
"62 23 OFFCURVE",
"50 16 CURVE",
"45 11 LINE",
"44 11 LINE SMOOTH"
);
},
{
closed = 1;
nodes = (
"216 16 OFFCURVE",
"180 27 OFFCURVE",
"152 40 CURVE",
"140 49 LINE",
"151 65 OFFCURVE",
"161 81 OFFCURVE",
"161 90 CURVE SMOOTH",
"161 130 OFFCURVE",
"186 170 OFFCURVE",
"195 209 CURVE SMOOTH",
"197 219 OFFCURVE",
"202 227 OFFCURVE",
"206 236 CURVE",
"271 236 OFFCURVE",
"337 256 OFFCURVE",
"389 292 CURVE",
"413 261 OFFCURVE",
"428 222 OFFCURVE",
"428 180 CURVE SMOOTH",
"428 141 OFFCURVE",
"425 94 OFFCURVE",
"408 72 CURVE SMOOTH",
"384 40 OFFCURVE",
"319 16 OFFCURVE",
"270 16 CURVE SMOOTH"
);
},
{
closed = 1;
nodes = (
"147 284 OFFCURVE",
"123 294 OFFCURVE",
"123 307 CURVE SMOOTH",
"123 326 OFFCURVE",
"158 341 OFFCURVE",
"179 353 CURVE",
"174 340 OFFCURVE",
"168 327 OFFCURVE",
"163 313 CURVE SMOOTH",
"158 302 OFFCURVE",
"156 291 OFFCURVE",
"154 280 CURVE"
);
},
{
closed = 1;
nodes = (
"229 295 OFFCURVE",
"234 303 OFFCURVE",
"234 314 CURVE SMOOTH",
"234 321 OFFCURVE",
"232 329 OFFCURVE",
"229 340 CURVE",
"229 340 OFFCURVE",
"229 341 OFFCURVE",
"231 343 CURVE SMOOTH",
"240 352 OFFCURVE",
"245 360 OFFCURVE",
"249 367 CURVE",
"288 366 OFFCURVE",
"325 351 OFFCURVE",
"354 328 CURVE",
"352 328 LINE",
"307 293 OFFCURVE",
"274 291 OFFCURVE",
"216 284 CURVE"
);
}
);
width = 490;
}
);
note = B;
unicode = 0042;
},
{
glyphname = C;
lastChange = "2021-06-28 10:45:57 +0000";
layers = (
{
anchors = (
{
name = bottom;
position = "{356, -87}";
},
{
name = top;
position = "{467, 662}";
}
);
layerId = "5C71BA0D-BC2C-47B0-9323-6F63B3241D58";
paths = (
{
closed = 1;
nodes = (
"477 -87 OFFCURVE",
"535 -62 OFFCURVE",
"585 -26 CURVE SMOOTH",
"634 8 OFFCURVE",
"687 36 OFFCURVE",
"687 100 CURVE SMOOTH",
"687 109 OFFCURVE",
"686 119 OFFCURVE",
"684 129 CURVE",
"683 131 OFFCURVE",
"682 132 OFFCURVE",
"681 132 CURVE",
"678 144 OFFCURVE",
"672 150 OFFCURVE",
"666 150 CURVE SMOOTH",
"657 150 OFFCURVE",
"647 137 OFFCURVE",
"647 113 CURVE SMOOTH",
"647 107 LINE SMOOTH",
"647 105 OFFCURVE",
"648 104 OFFCURVE",
"648 103 CURVE SMOOTH",
"648 76 OFFCURVE",
"640 58 OFFCURVE",
"616 40 CURVE SMOOTH",
"556 -7 OFFCURVE",
"486 -50 OFFCURVE",
"407 -50 CURVE SMOOTH",
"361 -50 OFFCURVE",
"313 -44 OFFCURVE",
"269 -32 CURVE",
"267 -30 OFFCURVE",
"263 -29 OFFCURVE",
"259 -28 CURVE SMOOTH",
"253 -27 LINE",
"162 3 OFFCURVE",
"92 62 OFFCURVE",
"92 163 CURVE SMOOTH",
"92 311 OFFCURVE",
"111 427 OFFCURVE",
"196 522 CURVE",
"201 525 OFFCURVE",
"205 529 OFFCURVE",
"207 534 CURVE",
"220 547 LINE",
"225 549 OFFCURVE",
"232 551 OFFCURVE",
"237 556 CURVE SMOOTH",
"279 593 OFFCURVE",
"357 626 OFFCURVE",
"417 626 CURVE SMOOTH",
"445 625 OFFCURVE",
"476 620 OFFCURVE",
"505 611 CURVE",
"506 609 OFFCURVE",
"508 606 OFFCURVE",
"511 604 CURVE SMOOTH",
"532 589 OFFCURVE",
"560 583 OFFCURVE",
"580 566 CURVE",
"579 564 OFFCURVE",
"579 561 OFFCURVE",
"579 558 CURVE SMOOTH",
"580 533 OFFCURVE",
"604 525 OFFCURVE",
"605 456 CURVE",
"604 456 LINE",
"595 451 OFFCURVE",
"590 443 OFFCURVE",
"590 433 CURVE",
"574 429 OFFCURVE",
"564 416 OFFCURVE",
"568 399 CURVE",
"568 396 LINE",
"566 395 LINE SMOOTH",
"555 389 OFFCURVE",
"545 384 OFFCURVE",
"539 372 CURVE",
"532 372 LINE SMOOTH",
"501 372 OFFCURVE",
"468 338 OFFCURVE",
"431 338 CURVE SMOOTH",
"420 338 OFFCURVE",
"405 342 OFFCURVE",
"392 347 CURVE SMOOTH",
"382 352 OFFCURVE",
"374 358 OFFCURVE",
"369 365 CURVE",
"370 369 OFFCURVE",
"371 373 OFFCURVE",
"371 376 CURVE SMOOTH",
"371 383 OFFCURVE",
"368 390 OFFCURVE",
"362 396 CURVE SMOOTH",
"360 398 LINE",
"361 434 OFFCURVE",
"365 463 OFFCURVE",
"379 482 CURVE",
"395 496 OFFCURVE",
"413 506 OFFCURVE",
"428 510 CURVE SMOOTH",
"432 511 OFFCURVE",
"436 511 OFFCURVE",
"440 511 CURVE SMOOTH",
"444 511 OFFCURVE",
"447 509 OFFCURVE",
"451 509 CURVE SMOOTH",
"454 509 OFFCURVE",
"457 510 OFFCURVE",
"459 511 CURVE",
"479 509 OFFCURVE",
"505 503 OFFCURVE",
"505 480 CURVE SMOOTH",
"505 463 OFFCURVE",
"489 432 OFFCURVE",
"472 431 CURVE",
"472 443 OFFCURVE",
"463 449 OFFCURVE",
"454 449 CURVE SMOOTH",
"444 449 OFFCURVE",
"435 443 OFFCURVE",
"435 429 CURVE SMOOTH",
"435 409 OFFCURVE",
"452 393 OFFCURVE",
"472 393 CURVE SMOOTH",
"525 393 OFFCURVE",
"542 463 OFFCURVE",
"542 480 CURVE SMOOTH",
"542 531 OFFCURVE",
"490 549 OFFCURVE",
"449 549 CURVE SMOOTH",
"446 549 OFFCURVE",
"444 548 OFFCURVE",
"441 548 CURVE SMOOTH",
"438 548 LINE SMOOTH",
"434 548 OFFCURVE",
"430 548 OFFCURVE",
"425 547 CURVE SMOOTH",
"391 542 OFFCURVE",
"367 528 OFFCURVE",
"352 508 CURVE",
"325 485 OFFCURVE",
"303 455 OFFCURVE",
"303 425 CURVE SMOOTH",
"303 411 OFFCURVE",
"309 406 OFFCURVE",
"315 395 CURVE",
"314 395 LINE",
"310 389 OFFCURVE",
"308 383 OFFCURVE",
"308 377 CURVE SMOOTH",
"308 357 OFFCURVE",
"329 339 OFFCURVE",
"354 326 CURVE",
"384 304 OFFCURVE",
"435 295 OFFCURVE",
"458 295 CURVE SMOOTH",
"473 295 OFFCURVE",
"486 304 OFFCURVE",
"500 304 CURVE SMOOTH",
"510 304 OFFCURVE",
"515 301 OFFCURVE",
"525 301 CURVE SMOOTH",
"539 301 OFFCURVE",
"551 308 OFFCURVE",
"561 318 CURVE SMOOTH",
"563 320 LINE",
"623 358 OFFCURVE",
"658 410 OFFCURVE",
"658 486 CURVE SMOOTH",
"658 615 OFFCURVE",
"508 662 OFFCURVE",
"419 662 CURVE SMOOTH",
"414 662 LINE SMOOTH",
"342 662 OFFCURVE",
"286 653 OFFCURVE",
"229 604 CURVE SMOOTH",
"202 581 LINE",
"191 579 OFFCURVE",
"174 575 OFFCURVE",
"172 555 CURVE",
"168 555 LINE SMOOTH",
"134 555 OFFCURVE",
"128 539 OFFCURVE",
"130 511 CURVE",
"105 479 OFFCURVE",
"85 415 OFFCURVE",
"70 402 CURVE SMOOTH",
"59 392 OFFCURVE",
"50 384 OFFCURVE",
"47 367 CURVE SMOOTH",
"43 333 OFFCURVE",
"34 298 OFFCURVE",
"27 263 CURVE SMOOTH",
"25 257 OFFCURVE",
"25 251 OFFCURVE",
"25 245 CURVE SMOOTH",
"25 226 OFFCURVE",
"32 210 OFFCURVE",
"32 190 CURVE SMOOTH",
"32 189 LINE",
"27 183 OFFCURVE",
"23 176 OFFCURVE",
"23 168 CURVE SMOOTH",
"23 164 OFFCURVE",
"27 155 OFFCURVE",
"34 149 CURVE",
"34 143 LINE SMOOTH",
"34 132 OFFCURVE",
"33 122 OFFCURVE",
"33 113 CURVE SMOOTH",
"33 91 OFFCURVE",
"37 74 OFFCURVE",
"64 63 CURVE",
"80 51 OFFCURVE",
"85 31 OFFCURVE",
"94 14 CURVE SMOOTH",
"119 -37 OFFCURVE",
"193 -56 OFFCURVE",
"246 -63 CURVE",
"299 -80 OFFCURVE",
"356 -87 OFFCURVE",
"407 -87 CURVE SMOOTH"
);
}
);
width = 691;
}
);
note = C;
unicode = 0043;
},
{
glyphname = D;
lastChange = "2021-06-24 05:27:23 +0000";
layers = (
{
anchors = (
{
name = bottom;
position = "{373, -38}";
},
{
name = center;
position = "{373, 330}";
},
{
name = top;
position = "{573, 570}";
}
);
layerId = "5C71BA0D-BC2C-47B0-9323-6F63B3241D58";
paths = (
{
closed = 1;
nodes = (
"442 -57 OFFCURVE",
"536 -50 OFFCURVE",
"568 -25 CURVE SMOOTH",
"583 -13 OFFCURVE",
"610 22 OFFCURVE",
"628 22 CURVE SMOOTH",
"650 22 OFFCURVE",
"645 41 OFFCURVE",
"656 53 CURVE SMOOTH",
"664 62 LINE",
"676 88 OFFCURVE",
"689 112 OFFCURVE",
"694 140 CURVE",
"706 150 OFFCURVE",
"711 159 OFFCURVE",
"711 173 CURVE SMOOTH",
"711 177 OFFCURVE",
"711 181 OFFCURVE",
"710 185 CURVE SMOOTH",
"707 205 OFFCURVE",
"712 225 OFFCURVE",
"714 245 CURVE",
"717 248 OFFCURVE",
"719 254 OFFCURVE",
"719 261 CURVE SMOOTH",
"719 267 OFFCURVE",
"718 275 OFFCURVE",
"714 284 CURVE",
"705 325 OFFCURVE",
"714 330 OFFCURVE",
"693 383 CURVE SMOOTH",
"672 436 OFFCURVE",
"676 432 OFFCURVE",
"637 469 CURVE SMOOTH",
"612 492 OFFCURVE",
"630 541 OFFCURVE",
"573 541 CURVE",
"565 544 OFFCURVE",
"547 563 OFFCURVE",
"539 569 CURVE SMOOTH",
"498 603 OFFCURVE",
"358 621 OFFCURVE",
"308 621 CURVE SMOOTH",
"291 621 OFFCURVE",
"275 619 OFFCURVE",
"260 616 CURVE",
"218 616 LINE SMOOTH",
"168 616 OFFCURVE",
"132 589 OFFCURVE",
"106 566 CURVE SMOOTH",
"91 553 OFFCURVE",
"69 561 OFFCURVE",
"62 531 CURVE SMOOTH",
"57 511 OFFCURVE",
"50 498 OFFCURVE",
"39 480 CURVE SMOOTH",
"31 467 OFFCURVE",
"25 469 OFFCURVE",
"25 433 CURVE SMOOTH",
"25 421 OFFCURVE",
"33 426 OFFCURVE",
"33 414 CURVE SMOOTH",
"33 400 LINE",
"34 397 OFFCURVE",
"35 395 OFFCURVE",
"35 392 CURVE SMOOTH",
"35 381 OFFCURVE",
"26 370 OFFCURVE",
"27 358 CURVE SMOOTH",
"33 306 OFFCURVE",
"90 285 OFFCURVE",
"136 285 CURVE SMOOTH",
"190 285 OFFCURVE",
"217 309 OFFCURVE",
"237 347 CURVE SMOOTH",
"247 363 OFFCURVE",
"254 382 OFFCURVE",
"256 402 CURVE SMOOTH",
"256 407 LINE",
"256 414 LINE",
"256 420 LINE",
"251 457 OFFCURVE",
"225 479 OFFCURVE",
"188 479 CURVE SMOOTH",
"152 479 OFFCURVE",
"122 449 OFFCURVE",
"122 413 CURVE SMOOTH",
"122 401 OFFCURVE",
"132 394 OFFCURVE",
"141 394 CURVE SMOOTH",
"151 394 OFFCURVE",
"160 401 OFFCURVE",
"160 413 CURVE SMOOTH",
"160 429 OFFCURVE",
"172 442 OFFCURVE",
"188 442 CURVE SMOOTH",
"206 442 OFFCURVE",
"219 434 OFFCURVE",
"219 413 CURVE SMOOTH",
"219 406 OFFCURVE",
"218 398 OFFCURVE",
"216 390 CURVE SMOOTH",
"213 384 LINE SMOOTH",
"210 376 OFFCURVE",
"207 370 OFFCURVE",
"204 364 CURVE",
"190 343 OFFCURVE",
"167 328 OFFCURVE",
"143 328 CURVE SMOOTH",
"105 328 OFFCURVE",
"83 353 OFFCURVE",
"83 397 CURVE SMOOTH",
"83 400 LINE SMOOTH",
"85 446 OFFCURVE",
"104 501 OFFCURVE",
"143 527 CURVE",
"142 528 LINE",
"171 528 OFFCURVE",
"189 566 OFFCURVE",
"258 579 CURVE",
"353 577 OFFCURVE",
"465 566 OFFCURVE",
"534 517 CURVE SMOOTH",
"562 497 OFFCURVE",
"580 479 OFFCURVE",
"592 437 CURVE SMOOTH",
"607 388 OFFCURVE",
"639 360 OFFCURVE",
"641 306 CURVE",
"635 294 OFFCURVE",
"648 281 OFFCURVE",
"643 267 CURVE",
"646 96 OFFCURVE",
"583 83 OFFCURVE",
"553 48 CURVE SMOOTH",
"515 3 OFFCURVE",
"381 -6 OFFCURVE",
"338 -6 CURVE SMOOTH",
"297 -6 OFFCURVE",
"255 20 OFFCURVE",
"216 40 CURVE",
"285 115 OFFCURVE",
"317 252 OFFCURVE",
"338 335 CURVE SMOOTH",
"340 341 OFFCURVE",
"345 349 OFFCURVE",
"348 355 CURVE SMOOTH",
"364 387 OFFCURVE",
"356 416 OFFCURVE",
"393 436 CURVE SMOOTH",
"412 445 OFFCURVE",
"415 472 OFFCURVE",
"427 475 CURVE",
"430 475 OFFCURVE",
"434 474 OFFCURVE",
"437 472 CURVE SMOOTH",
"439 471 LINE",
"446 467 LINE SMOOTH",
"455 461 OFFCURVE",
"461 451 OFFCURVE",
"461 442 CURVE SMOOTH",
"461 430 OFFCURVE",
"470 423 OFFCURVE",
"480 423 CURVE SMOOTH",
"489 423 OFFCURVE",
"498 430 OFFCURVE",
"498 442 CURVE SMOOTH",
"498 469 OFFCURVE",
"481 491 OFFCURVE",
"458 503 CURVE",
"452 509 OFFCURVE",
"443 513 OFFCURVE",
"429 513 CURVE",
"425 512 LINE",
"422 512 LINE SMOOTH",
"365 512 OFFCURVE",
"314 472 OFFCURVE",
"307 417 CURVE",
"293 396 OFFCURVE",
"275 363 OFFCURVE",
"273 332 CURVE SMOOTH",
"272 311 OFFCURVE",
"256 291 OFFCURVE",
"253 271 CURVE SMOOTH",
"251 253 OFFCURVE",
"239 243 OFFCURVE",
"239 221 CURVE",
"222 211 OFFCURVE",
"226 175 OFFCURVE",
"222 158 CURVE",
"206 145 OFFCURVE",
"195 93 OFFCURVE",
"177 61 CURVE",
"133 82 OFFCURVE",
"99 101 OFFCURVE",
"46 101 CURVE SMOOTH",
"11 101 OFFCURVE",
"-55 85 OFFCURVE",
"-55 39 CURVE SMOOTH",
"-55 32 OFFCURVE",
"-52 24 OFFCURVE",
"-48 16 CURVE",
"-44 -13 OFFCURVE",
"-20 -27 OFFCURVE",
"4 -33 CURVE SMOOTH",
"11 -34 LINE SMOOTH",
"20 -36 OFFCURVE",
"29 -36 OFFCURVE",
"36 -36 CURVE SMOOTH",
"72 -36 OFFCURVE",
"150 -22 OFFCURVE",
"182 10 CURVE SMOOTH",
"183 11 LINE",
"233 -20 OFFCURVE",
"282 -55 OFFCURVE",
"350 -55 CURVE SMOOTH",
"368 -55 OFFCURVE",
"378 -57 OFFCURVE",
"401 -57 CURVE SMOOTH"
);
},
{
closed = 1;
nodes = (
"2 0 OFFCURVE",
"-12 12 OFFCURVE",
"-12 24 CURVE SMOOTH",
"-12 51 OFFCURVE",
"5 60 OFFCURVE",
"44 60 CURVE SMOOTH",
"84 60 OFFCURVE",
"117 48 OFFCURVE",
"147 32 CURVE",
"116 15 OFFCURVE",
"64 0 OFFCURVE",
"36 0 CURVE SMOOTH"
);
}
);
width = 745;
}
);
note = D;
unicode = 0044;
},
{
glyphname = Eth;
lastChange = "2021-06-24 05:27:23 +0000";
layers = (
{
layerId = "5C71BA0D-BC2C-47B0-9323-6F63B3241D58";
paths = (
{
closed = 1;
nodes = (
"442 -57 OFFCURVE",
"536 -50 OFFCURVE",
"568 -25 CURVE SMOOTH",
"583 -13 OFFCURVE",
"610 22 OFFCURVE",
"628 22 CURVE SMOOTH",
"650 22 OFFCURVE",
"645 41 OFFCURVE",
"656 53 CURVE SMOOTH",
"664 62 LINE",
"676 88 OFFCURVE",
"689 112 OFFCURVE",
"694 140 CURVE",
"706 150 OFFCURVE",
"711 159 OFFCURVE",
"711 173 CURVE SMOOTH",
"711 177 OFFCURVE",
"711 181 OFFCURVE",
"710 185 CURVE SMOOTH",
"707 205 OFFCURVE",
"712 225 OFFCURVE",
"714 245 CURVE",
"717 248 OFFCURVE",
"719 254 OFFCURVE",
"719 261 CURVE SMOOTH",
"719 267 OFFCURVE",
"718 275 OFFCURVE",
"714 284 CURVE",
"705 325 OFFCURVE",
"714 330 OFFCURVE",
"693 383 CURVE SMOOTH",
"672 436 OFFCURVE",
"676 432 OFFCURVE",
"637 469 CURVE SMOOTH",
"612 492 OFFCURVE",
"630 541 OFFCURVE",
"573 541 CURVE",
"565 544 OFFCURVE",
"547 563 OFFCURVE",
"539 569 CURVE SMOOTH",
"498 603 OFFCURVE",
"358 621 OFFCURVE",
"308 621 CURVE SMOOTH",
"291 621 OFFCURVE",
"275 619 OFFCURVE",
"260 616 CURVE",
"218 616 LINE SMOOTH",
"168 616 OFFCURVE",
"132 589 OFFCURVE",
"106 566 CURVE SMOOTH",
"91 553 OFFCURVE",
"69 561 OFFCURVE",
"62 531 CURVE SMOOTH",
"57 511 OFFCURVE",
"50 498 OFFCURVE",
"39 480 CURVE SMOOTH",
"31 467 OFFCURVE",
"25 469 OFFCURVE",
"25 433 CURVE SMOOTH",
"25 422 OFFCURVE",
"33 426 OFFCURVE",
"33 416 CURVE SMOOTH",
"33 415 OFFCURVE",
"33 415 OFFCURVE",
"33 414 CURVE SMOOTH",
"33 400 LINE",
"34 397 OFFCURVE",
"35 395 OFFCURVE",
"35 392 CURVE SMOOTH",
"35 381 OFFCURVE",
"26 370 OFFCURVE",
"27 358 CURVE SMOOTH",
"33 306 OFFCURVE",
"90 285 OFFCURVE",
"136 285 CURVE SMOOTH",
"190 285 OFFCURVE",
"217 309 OFFCURVE",
"237 347 CURVE SMOOTH",
"247 363 OFFCURVE",
"254 382 OFFCURVE",
"256 402 CURVE SMOOTH",
"256 407 LINE",
"256 414 LINE",
"256 420 LINE",
"251 457 OFFCURVE",
"225 479 OFFCURVE",
"188 479 CURVE SMOOTH",
"152 479 OFFCURVE",
"122 449 OFFCURVE",
"122 413 CURVE SMOOTH",
"122 401 OFFCURVE",
"132 394 OFFCURVE",
"141 394 CURVE SMOOTH",
"151 394 OFFCURVE",
"160 401 OFFCURVE",
"160 413 CURVE SMOOTH",
"160 429 OFFCURVE",
"172 442 OFFCURVE",
"188 442 CURVE SMOOTH",
"206 442 OFFCURVE",
"219 434 OFFCURVE",
"219 413 CURVE SMOOTH",
"219 406 OFFCURVE",
"218 398 OFFCURVE",
"216 390 CURVE SMOOTH",
"213 384 LINE SMOOTH",
"210 376 OFFCURVE",
"207 370 OFFCURVE",
"204 364 CURVE",
"190 343 OFFCURVE",
"167 328 OFFCURVE",
"143 328 CURVE SMOOTH",
"105 328 OFFCURVE",
"83 353 OFFCURVE",
"83 397 CURVE SMOOTH",
"83 400 LINE SMOOTH",
"85 446 OFFCURVE",
"104 501 OFFCURVE",
"143 527 CURVE",
"142 528 LINE",
"171 528 OFFCURVE",
"189 566 OFFCURVE",
"258 579 CURVE",
"353 577 OFFCURVE",
"465 566 OFFCURVE",
"534 517 CURVE SMOOTH",
"562 497 OFFCURVE",
"580 479 OFFCURVE",
"592 437 CURVE SMOOTH",
"607 388 OFFCURVE",
"639 360 OFFCURVE",
"641 306 CURVE",
"635 294 OFFCURVE",
"649 281 OFFCURVE",
"643 267 CURVE",
"644 256 OFFCURVE",
"644 245 OFFCURVE",
"644 235 CURVE SMOOTH",
"644 94 OFFCURVE",
"581 81 OFFCURVE",
"553 48 CURVE SMOOTH",
"515 3 OFFCURVE",
"381 -6 OFFCURVE",
"338 -6 CURVE SMOOTH",
"297 -6 OFFCURVE",
"255 20 OFFCURVE",
"216 40 CURVE",
"265 93 OFFCURVE",
"295 176 OFFCURVE",
"316 249 CURVE",
"320 244 OFFCURVE",
"324 243 OFFCURVE",
"329 243 CURVE SMOOTH",
"350 243 OFFCURVE",
"378 272 OFFCURVE",
"396 272 CURVE SMOOTH",
"405 272 OFFCURVE",
"411 271 OFFCURVE",
"417 271 CURVE SMOOTH",
"439 271 OFFCURVE",
"446 278 OFFCURVE",
"446 285 CURVE SMOOTH",
"446 293 OFFCURVE",
"439 300 OFFCURVE",
"432 300 CURVE",
"431 307 OFFCURVE",
"426 314 OFFCURVE",
"416 314 CURVE SMOOTH",
"386 314 OFFCURVE",
"357 308 OFFCURVE",
"329 300 CURVE",
"338 335 LINE SMOOTH",
"340 341 OFFCURVE",
"345 349 OFFCURVE",
"348 355 CURVE SMOOTH",
"364 387 OFFCURVE",
"356 416 OFFCURVE",
"393 436 CURVE SMOOTH",
"412 445 OFFCURVE",
"415 472 OFFCURVE",
"427 475 CURVE",
"430 475 OFFCURVE",
"434 474 OFFCURVE",
"437 472 CURVE SMOOTH",
"439 471 LINE",
"446 467 LINE SMOOTH",
"455 461 OFFCURVE",
"461 451 OFFCURVE",
"461 442 CURVE SMOOTH",
"461 430 OFFCURVE",
"470 423 OFFCURVE",
"480 423 CURVE SMOOTH",
"489 423 OFFCURVE",
"498 430 OFFCURVE",
"498 442 CURVE SMOOTH",
"498 469 OFFCURVE",
"481 491 OFFCURVE",
"458 503 CURVE",
"452 509 OFFCURVE",
"443 513 OFFCURVE",
"429 513 CURVE",
"425 512 LINE",
"422 512 LINE SMOOTH",
"365 514 OFFCURVE",
"314 472 OFFCURVE",
"307 417 CURVE",
"293 396 OFFCURVE",
"275 363 OFFCURVE",
"273 332 CURVE SMOOTH",
"272 314 OFFCURVE",
"260 297 OFFCURVE",
"255 280 CURVE",
"219 268 LINE",
"200 264 OFFCURVE",
"180 261 OFFCURVE",
"160 261 CURVE SMOOTH",
"151 261 OFFCURVE",
"146 254 OFFCURVE",
"146 247 CURVE SMOOTH",
"146 245 OFFCURVE",
"146 243 OFFCURVE",
"147 241 CURVE",
"132 236 OFFCURVE",
"117 229 OFFCURVE",
"102 223 CURVE SMOOTH",
"95 220 OFFCURVE",
"91 215 OFFCURVE",
"91 210 CURVE SMOOTH",
"91 204 OFFCURVE",
"96 199 OFFCURVE",
"104 196 CURVE SMOOTH",
"110 195 OFFCURVE",
"115 194 OFFCURVE",
"120 194 CURVE SMOOTH",
"125 194 OFFCURVE",
"130 195 OFFCURVE",
"135 196 CURVE",
"136 189 OFFCURVE",
"141 185 OFFCURVE",
"147 185 CURVE SMOOTH",
"151 185 OFFCURVE",
"155 186 OFFCURVE",
"159 189 CURVE",
"161 191 OFFCURVE",
"164 194 OFFCURVE",
"168 197 CURVE",
"181 200 OFFCURVE",
"193 198 OFFCURVE",
"193 210 CURVE SMOOTH",
"193 212 OFFCURVE",
"193 214 OFFCURVE",
"192 217 CURVE",
"197 220 OFFCURVE",
"200 222 OFFCURVE",
"203 222 CURVE SMOOTH",
"215 222 OFFCURVE",
"227 222 OFFCURVE",
"239 224 CURVE",
"239 221 LINE",
"222 211 OFFCURVE",
"226 175 OFFCURVE",
"222 158 CURVE",
"206 145 OFFCURVE",
"195 93 OFFCURVE",
"177 61 CURVE",
"133 82 OFFCURVE",
"99 101 OFFCURVE",
"46 101 CURVE SMOOTH",
"11 101 OFFCURVE",
"-55 85 OFFCURVE",
"-55 39 CURVE SMOOTH",
"-55 32 OFFCURVE",
"-52 24 OFFCURVE",
"-48 16 CURVE",
"-44 -13 OFFCURVE",
"-20 -27 OFFCURVE",
"4 -33 CURVE SMOOTH",
"11 -34 LINE SMOOTH",
"20 -36 OFFCURVE",
"29 -36 OFFCURVE",
"36 -36 CURVE SMOOTH",
"72 -36 OFFCURVE",
"146 -17 OFFCURVE",
"182 10 CURVE SMOOTH",
"183 11 LINE",
"233 -20 OFFCURVE",
"282 -55 OFFCURVE",
"350 -55 CURVE SMOOTH",
"368 -55 OFFCURVE",
"378 -57 OFFCURVE",
"401 -57 CURVE SMOOTH"
);
},
{
closed = 1;
nodes = (
"2 0 OFFCURVE",
"-12 12 OFFCURVE",
"-12 24 CURVE SMOOTH",
"-12 51 OFFCURVE",
"5 60 OFFCURVE",
"44 60 CURVE SMOOTH",
"84 60 OFFCURVE",
"117 48 OFFCURVE",
"147 32 CURVE",
"116 15 OFFCURVE",
"64 0 OFFCURVE",
"36 0 CURVE SMOOTH"
);
}
);
width = 745;
}
);
note = Eth;
unicode = 00D0;
},
{
glyphname = E;
lastChange = "2021-06-28 10:45:29 +0000";
layers = (
{
anchors = (
{
name = bottom;
position = "{242, -91}";
},
{
name = ogonek;
position = "{507, -17}";
},
{
name = top;
position = "{389, 660}";
},
{
name = topleft;
position = "{20, 660}";
}
);
layerId = "5C71BA0D-BC2C-47B0-9323-6F63B3241D58";
paths = (
{
closed = 1;
nodes = (
"216 -105 OFFCURVE",
"279 -97 OFFCURVE",
"330 -74 CURVE SMOOTH",
"350 -64 OFFCURVE",
"368 -65 OFFCURVE",
"384 -45 CURVE",
"417 -36 OFFCURVE",
"419 -51 OFFCURVE",
"458 -20 CURVE SMOOTH",
"524 34 OFFCURVE",
"556 56 OFFCURVE",
"574 143 CURVE SMOOTH",
"581 178 OFFCURVE",
"599 192 OFFCURVE",
"599 236 CURVE SMOOTH",
"599 313 OFFCURVE",
"519 325 OFFCURVE",
"461 325 CURVE SMOOTH",
"445 325 OFFCURVE",
"427 323 OFFCURVE",
"409 322 CURVE SMOOTH",
"394 322 OFFCURVE",
"380 319 OFFCURVE",
"366 316 CURVE SMOOTH",
"355 313 OFFCURVE",
"344 310 OFFCURVE",
"334 305 CURVE SMOOTH",
"266 276 OFFCURVE",
"231 185 OFFCURVE",
"231 123 CURVE SMOOTH",
"231 69 OFFCURVE",
"279 45 OFFCURVE",
"315 45 CURVE SMOOTH",
"341 45 OFFCURVE",
"384 56 OFFCURVE",
"416 77 CURVE",
"419 78 OFFCURVE",
"421 80 OFFCURVE",
"423 82 CURVE",
"444 97 OFFCURVE",
"460 116 OFFCURVE",
"460 138 CURVE SMOOTH",
"460 152 OFFCURVE",
"454 167 OFFCURVE",
"439 183 CURVE SMOOTH",
"435 187 OFFCURVE",
"430 189 OFFCURVE",
"426 189 CURVE SMOOTH",
"415 189 OFFCURVE",
"406 180 OFFCURVE",
"406 170 CURVE SMOOTH",
"406 165 OFFCURVE",
"408 161 OFFCURVE",
"411 157 CURVE SMOOTH",
"418 150 OFFCURVE",
"421 143 OFFCURVE",
"421 137 CURVE SMOOTH",
"421 127 OFFCURVE",
"414 119 OFFCURVE",
"404 112 CURVE",
"390 108 OFFCURVE",
"377 98 OFFCURVE",
"362 98 CURVE SMOOTH",
"352 98 OFFCURVE",
"341 92 OFFCURVE",
"331 92 CURVE",
"326 97 OFFCURVE",
"319 115 OFFCURVE",
"305 115 CURVE SMOOTH",
"302 115 LINE",
"301 117 LINE SMOOTH",
"299 121 OFFCURVE",
"301 126 OFFCURVE",
"302 132 CURVE",
"298 143 OFFCURVE",
"294 171 OFFCURVE",
"295 186 CURVE",
"308 236 OFFCURVE",
"322 256 OFFCURVE",
"357 275 CURVE",
"374 280 OFFCURVE",
"392 284 OFFCURVE",
"411 285 CURVE SMOOTH",
"421 285 OFFCURVE",
"434 283 OFFCURVE",
"445 283 CURVE SMOOTH",
"469 283 LINE SMOOTH",
"515 283 OFFCURVE",
"534 257 OFFCURVE",
"534 209 CURVE SMOOTH",
"534 162 OFFCURVE",
"513 89 OFFCURVE",
"461 47 CURVE SMOOTH",
"457 43 OFFCURVE",
"454 40 OFFCURVE",
"442 37 CURVE SMOOTH",
"387 26 OFFCURVE",
"367 3 OFFCURVE",
"338 -8 CURVE SMOOTH",
"302 -21 OFFCURVE",
"274 -37 OFFCURVE",
"245 -49 CURVE",
"244 -49 LINE SMOOTH",
"224 -49 OFFCURVE",
"212 -46 OFFCURVE",
"192 -46 CURVE SMOOTH",
"184 -46 OFFCURVE",
"180 -49 OFFCURVE",
"172 -49 CURVE SMOOTH",
"161 -49 OFFCURVE",
"150 -40 OFFCURVE",
"137 -40 CURVE SMOOTH",
"130 -40 OFFCURVE",
"123 -44 OFFCURVE",
"119 -49 CURVE",
"117 -50 LINE",
"93 -48 OFFCURVE",
"117 9 OFFCURVE",
"79 20 CURVE",
"77 20 LINE",
"78 23 LINE SMOOTH",
"79 27 OFFCURVE",
"80 31 OFFCURVE",
"80 35 CURVE SMOOTH",
"80 42 OFFCURVE",
"78 49 OFFCURVE",
"73 54 CURVE",
"79 60 OFFCURVE",
"83 67 OFFCURVE",
"83 73 CURVE SMOOTH",
"83 77 OFFCURVE",
"81 82 OFFCURVE",
"78 85 CURVE SMOOTH",
"77 86 LINE",
"87 109 OFFCURVE",
"104 120 OFFCURVE",
"104 150 CURVE SMOOTH",
"104 158 OFFCURVE",
"104 164 OFFCURVE",
"103 169 CURVE",
"105 170 OFFCURVE",
"108 173 OFFCURVE",
"111 176 CURVE",
"113 192 LINE",
"116 193 LINE",
"128 194 OFFCURVE",
"132 202 OFFCURVE",
"132 210 CURVE SMOOTH",
"132 216 OFFCURVE",
"130 222 OFFCURVE",
"127 227 CURVE",
"138 231 OFFCURVE",
"147 238 OFFCURVE",
"150 251 CURVE",
"156 265 OFFCURVE",
"179 301 OFFCURVE",
"204 333 CURVE",
"217 327 OFFCURVE",
"232 323 OFFCURVE",
"251 323 CURVE SMOOTH",
"253 323 LINE SMOOTH",
"260 323 OFFCURVE",
"267 321 OFFCURVE",
"275 321 CURVE",
"278 322 LINE",
"284 320 OFFCURVE",
"290 317 OFFCURVE",
"297 317 CURVE SMOOTH",
"340 317 OFFCURVE",
"415 359 OFFCURVE",
"415 418 CURVE SMOOTH",
"415 452 OFFCURVE",
"387 453 OFFCURVE",
"363 453 CURVE",
"356 454 OFFCURVE",
"348 453 OFFCURVE",
"339 452 CURVE",
"332 454 OFFCURVE",
"325 454 OFFCURVE",
"319 454 CURVE SMOOTH",
"310 454 OFFCURVE",
"305 449 OFFCURVE",
"303 443 CURVE",
"292 440 OFFCURVE",
"281 435 OFFCURVE",
"270 430 CURVE",
"256 429 OFFCURVE",
"240 420 OFFCURVE",
"224 407 CURVE",
"197 392 LINE",
"185 407 OFFCURVE",
"176 428 OFFCURVE",
"180 438 CURVE",
"187 445 OFFCURVE",
"191 453 OFFCURVE",
"191 461 CURVE SMOOTH",
"191 467 OFFCURVE",
"189 473 OFFCURVE",
"183 479 CURVE SMOOTH",
"181 481 LINE",
"186 502 OFFCURVE",
"214 553 OFFCURVE",
"225 570 CURVE SMOOTH",
"235 588 OFFCURVE",
"244 598 OFFCURVE",
"252 604 CURVE",
"264 609 OFFCURVE",
"276 613 OFFCURVE",
"288 615 CURVE",
"293 617 OFFCURVE",
"299 617 OFFCURVE",
"305 619 CURVE SMOOTH",
"315 621 OFFCURVE",
"325 623 OFFCURVE",
"335 623 CURVE SMOOTH",
"353 623 LINE",
"359 623 LINE",
"364 623 LINE SMOOTH",
"403 623 OFFCURVE",
"524 617 OFFCURVE",
"524 558 CURVE SMOOTH",
"524 534 OFFCURVE",
"511 512 OFFCURVE",
"492 512 CURVE SMOOTH",
"472 512 OFFCURVE",
"418 514 OFFCURVE",
"418 544 CURVE SMOOTH",
"418 555 OFFCURVE",
"421 561 OFFCURVE",
"421 572 CURVE SMOOTH",
"421 585 OFFCURVE",
"417 591 OFFCURVE",
"411 591 CURVE SMOOTH",
"405 591 OFFCURVE",
"397 585 OFFCURVE",
"390 572 CURVE SMOOTH",
"385 563 OFFCURVE",
"381 555 OFFCURVE",
"381 544 CURVE SMOOTH",
"381 485 OFFCURVE",
"440 472 OFFCURVE",
"483 472 CURVE SMOOTH",
"536 472 OFFCURVE",
"561 530 OFFCURVE",
"561 558 CURVE SMOOTH",
"561 648 OFFCURVE",
"427 661 OFFCURVE",
"364 661 CURVE SMOOTH",
"354 661 OFFCURVE",
"344 659 OFFCURVE",
"334 659 CURVE SMOOTH",
"313 659 LINE SMOOTH",
"303 659 OFFCURVE",
"291 654 OFFCURVE",
"281 653 CURVE SMOOTH",
"267 651 OFFCURVE",
"255 647 OFFCURVE",
"243 641 CURVE",
"216 632 OFFCURVE",
"192 616 OFFCURVE",
"168 598 CURVE SMOOTH",
"127 566 OFFCURVE",
"121 493 OFFCURVE",
"121 451 CURVE SMOOTH",
"121 437 OFFCURVE",
"127 428 OFFCURVE",
"132 420 CURVE SMOOTH",
"143 403 OFFCURVE",
"153 385 OFFCURVE",
"165 369 CURVE",
"139 350 OFFCURVE",
"117 329 OFFCURVE",
"104 308 CURVE SMOOTH",
"91 290 OFFCURVE",
"91 262 OFFCURVE",
"80 248 CURVE",
"76 246 LINE SMOOTH",
"38 227 OFFCURVE",
"34 159 OFFCURVE",
"30 122 CURVE SMOOTH",
"26 97 OFFCURVE",
"7 76 OFFCURVE",
"7 49 CURVE SMOOTH",
"7 -42 OFFCURVE",
"80 -105 OFFCURVE",
"159 -105 CURVE SMOOTH"
);
},
{
closed = 1;
nodes = (
"65 -18 OFFCURVE",
"64 -16 OFFCURVE",
"63 -14 CURVE",
"64 -15 LINE",
"66 -15 LINE",
"67 -20 LINE"
);
},
{
closed = 1;
nodes = (
"274 360 OFFCURVE",
"270 360 OFFCURVE",
"266 360 CURVE SMOOTH",
"255 360 LINE",
"232 366 LINE",
"248 382 OFFCURVE",
"263 394 OFFCURVE",
"273 394 CURVE SMOOTH",
"282 394 OFFCURVE",
"288 399 OFFCURVE",
"290 406 CURVE",
"306 410 OFFCURVE",
"321 414 OFFCURVE",
"335 415 CURVE",
"345 412 OFFCURVE",
"348 406 OFFCURVE",
"348 398 CURVE",
"347 398 LINE",
"347 365 OFFCURVE",
"304 359 OFFCURVE",
"278 359 CURVE"
);
}
);
width = 615;
}
);
note = E;
unicode = 0045;
},
{
glyphname = F;
lastChange = "2021-06-24 05:27:23 +0000";
layers = (
{
layerId = "5C71BA0D-BC2C-47B0-9323-6F63B3241D58";
paths = (
{
closed = 1;
nodes = (
"114 -42 LINE SMOOTH",
"177 -42 OFFCURVE",
"226 -20 OFFCURVE",
"277 13 CURVE SMOOTH",
"350 61 OFFCURVE",
"327 45 OFFCURVE",
"354 119 CURVE",
"357 121 LINE SMOOTH",
"360 123 OFFCURVE",
"364 125 OFFCURVE",
"366 128 CURVE",
"381 142 OFFCURVE",
"407 249 OFFCURVE",
"407 270 CURVE SMOOTH",
"407 272 OFFCURVE",
"407 273 OFFCURVE",
"409 277 CURVE SMOOTH",
"423 301 OFFCURVE",
"429 331 OFFCURVE",
"431 361 CURVE",
"438 358 OFFCURVE",
"444 356 OFFCURVE",
"451 354 CURVE SMOOTH",
"449 355 OFFCURVE",
"471 349 OFFCURVE",
"491 349 CURVE SMOOTH",
"500 349 OFFCURVE",
"509 350 OFFCURVE",
"515 354 CURVE",
"521 354 OFFCURVE",
"527 357 OFFCURVE",
"532 360 CURVE",
"535 358 OFFCURVE",
"539 358 OFFCURVE",
"543 358 CURVE SMOOTH",
"554 358 OFFCURVE",
"563 373 OFFCURVE",
"570 388 CURVE",
"576 395 OFFCURVE",
"581 404 OFFCURVE",
"581 414 CURVE SMOOTH",
"581 430 OFFCURVE",
"575 450 OFFCURVE",
"550 457 CURVE SMOOTH",
"544 459 OFFCURVE",
"540 459 OFFCURVE",
"536 459 CURVE SMOOTH",
"529 459 OFFCURVE",
"526 456 OFFCURVE",
"526 452 CURVE SMOOTH",
"526 443 OFFCURVE",
"536 429 OFFCURVE",
"541 423 CURVE",
"540 420 OFFCURVE",
"539 417 OFFCURVE",
"539 414 CURVE",
"537 409 LINE",
"526 401 OFFCURVE",
"509 396 OFFCURVE",
"497 396 CURVE SMOOTH",
"475 396 OFFCURVE",
"454 400 OFFCURVE",
"433 405 CURVE",
"433 426 LINE",
"440 457 OFFCURVE",
"448 487 OFFCURVE",
"454 518 CURVE",
"465 513 OFFCURVE",
"476 509 OFFCURVE",
"490 509 CURVE SMOOTH",
"501 509 LINE SMOOTH",
"517 509 OFFCURVE",
"533 501 OFFCURVE",
"549 501 CURVE SMOOTH",
"558 501 LINE SMOOTH",
"563 501 OFFCURVE",
"569 500 OFFCURVE",
"575 500 CURVE",
"581 496 OFFCURVE",
"585 493 OFFCURVE",
"593 493 CURVE SMOOTH",
"600 493 OFFCURVE",
"606 496 OFFCURVE",
"612 497 CURVE SMOOTH",
"619 497 OFFCURVE",
"624 497 OFFCURVE",
"631 497 CURVE SMOOTH",
"637 497 LINE SMOOTH",
"654 496 OFFCURVE",
"660 493 OFFCURVE",
"674 493 CURVE SMOOTH",
"716 493 OFFCURVE",
"815 525 OFFCURVE",
"815 589 CURVE SMOOTH",
"815 621 OFFCURVE",
"783 635 OFFCURVE",
"756 635 CURVE SMOOTH",
"733 635 OFFCURVE",
"721 616 OFFCURVE",
"721 602 CURVE SMOOTH",
"721 595 OFFCURVE",
"725 589 OFFCURVE",
"733 589 CURVE SMOOTH",
"739 589 OFFCURVE",
"746 591 OFFCURVE",
"756 598 CURVE",
"761 598 OFFCURVE",
"778 596 OFFCURVE",
"778 589 CURVE SMOOTH",
"778 563 OFFCURVE",
"718 530 OFFCURVE",
"674 530 CURVE SMOOTH",
"656 530 OFFCURVE",
"651 535 OFFCURVE",
"623 535 CURVE SMOOTH",
"611 535 OFFCURVE",
"595 536 OFFCURVE",
"578 538 CURVE SMOOTH",
"573 538 LINE",
"545 542 OFFCURVE",
"516 549 OFFCURVE",
"502 559 CURVE",
"497 565 OFFCURVE",
"492 571 OFFCURVE",
"486 575 CURVE",
"489 578 OFFCURVE",
"492 581 OFFCURVE",
"495 583 CURVE",
"499 587 OFFCURVE",
"501 592 OFFCURVE",
"501 596 CURVE SMOOTH",
"501 607 OFFCURVE",
"492 616 OFFCURVE",
"482 616 CURVE SMOOTH",
"478 616 OFFCURVE",
"474 614 OFFCURVE",
"470 611 CURVE SMOOTH",
"461 602 OFFCURVE",
"453 594 OFFCURVE",
"446 585 CURVE",
"434 589 OFFCURVE",
"420 597 OFFCURVE",
"410 601 CURVE",
"409 602 OFFCURVE",
"409 603 OFFCURVE",
"408 603 CURVE SMOOTH",
"397 603 LINE SMOOTH",
"384 603 OFFCURVE",
"393 614 OFFCURVE",
"379 614 CURVE SMOOTH",
"372 614 OFFCURVE",
"366 617 OFFCURVE",
"361 617 CURVE SMOOTH",
"358 617 OFFCURVE",
"356 616 OFFCURVE",
"355 612 CURVE",
"316 621 OFFCURVE",
"295 657 OFFCURVE",
"249 657 CURVE SMOOTH",
"219 657 OFFCURVE",
"192 673 OFFCURVE",
"161 673 CURVE SMOOTH",
"129 673 OFFCURVE",
"109 649 OFFCURVE",
"94 648 CURVE SMOOTH",
"48 647 OFFCURVE",
"48 569 OFFCURVE",
"48 539 CURVE SMOOTH",
"48 475 OFFCURVE",
"101 437 OFFCURVE",
"151 437 CURVE SMOOTH",
"180 437 OFFCURVE",
"251 433 OFFCURVE",
"251 479 CURVE SMOOTH",
"251 501 OFFCURVE",
"235 514 OFFCURVE",
"223 514 CURVE SMOOTH",
"215 514 OFFCURVE",
"209 509 OFFCURVE",
"209 498 CURVE SMOOTH",
"209 493 OFFCURVE",
"210 488 OFFCURVE",
"213 481 CURVE",
"213 480 LINE",
"196 472 OFFCURVE",
"170 475 OFFCURVE",
"151 475 CURVE SMOOTH",
"146 475 LINE",
"144 475 LINE",
"122 484 OFFCURVE",
"105 525 OFFCURVE",
"105 555 CURVE SMOOTH",
"105 582 OFFCURVE",
"135 601 OFFCURVE",
"169 604 CURVE SMOOTH",
"171 604 LINE SMOOTH",
"185 604 OFFCURVE",
"199 595 OFFCURVE",
"212 595 CURVE SMOOTH",
"218 595 OFFCURVE",
"222 598 OFFCURVE",
"227 598 CURVE SMOOTH",
"237 598 OFFCURVE",
"274 579 OFFCURVE",
"284 575 CURVE SMOOTH",
"326 561 OFFCURVE",
"374 560 OFFCURVE",
"413 540 CURVE",
"419 538 LINE",
"405 505 OFFCURVE",
"398 470 OFFCURVE",
"396 440 CURVE",
"392 424 LINE",
"391 424 LINE",
"388 423 LINE",
"387 423 LINE",
"383 430 OFFCURVE",
"376 435 OFFCURVE",
"367 435 CURVE SMOOTH",
"360 435 OFFCURVE",
"355 432 OFFCURVE",
"349 428 CURVE",
"345 428 OFFCURVE",
"334 437 OFFCURVE",
"320 437 CURVE SMOOTH",
"306 437 OFFCURVE",
"296 433 OFFCURVE",
"289 427 CURVE",
"266 423 OFFCURVE",
"244 409 OFFCURVE",
"244 379 CURVE SMOOTH",
"244 355 OFFCURVE",
"262 340 OFFCURVE",
"280 328 CURVE SMOOTH",
"291 321 OFFCURVE",
"300 318 OFFCURVE",
"306 318 CURVE SMOOTH",
"318 318 OFFCURVE",
"323 326 OFFCURVE",
"323 334 CURVE SMOOTH",
"323 340 OFFCURVE",
"320 345 OFFCURVE",
"315 349 CURVE SMOOTH",
"308 354 OFFCURVE",
"281 369 OFFCURVE",
"281 379 CURVE SMOOTH",
"281 384 OFFCURVE",
"284 392 OFFCURVE",
"305 392 CURVE SMOOTH",
"331 392 OFFCURVE",
"356 386 OFFCURVE",
"382 380 CURVE",
"380 374 OFFCURVE",
"379 367 OFFCURVE",
"377 360 CURVE SMOOTH",
"371 327 OFFCURVE",
"368 293 OFFCURVE",
"356 262 CURVE SMOOTH",
"347 239 OFFCURVE",
"330 229 OFFCURVE",
"330 200 CURVE SMOOTH",
"330 189 OFFCURVE",
"304 144 OFFCURVE",
"298 130 CURVE",
"289 126 OFFCURVE",
"277 120 OFFCURVE",
"276 108 CURVE",
"257 105 OFFCURVE",
"250 101 OFFCURVE",
"250 95 CURVE SMOOTH",
"250 93 OFFCURVE",
"252 90 OFFCURVE",
"254 87 CURVE",
"245 82 OFFCURVE",
"238 75 OFFCURVE",
"238 66 CURVE",
"225 61 OFFCURVE",
"225 48 OFFCURVE",
"208 41 CURVE SMOOTH",
"185 33 OFFCURVE",
"174 2 OFFCURVE",
"154 0 CURVE SMOOTH",
"148 0 OFFCURVE",
"144 -1 OFFCURVE",
"141 -4 CURVE",
"138 -4 OFFCURVE",
"134 -5 OFFCURVE",
"131 -5 CURVE SMOOTH",
"129 -5 LINE",
"127 -5 LINE SMOOTH",
"100 -5 OFFCURVE",
"81 3 OFFCURVE",
"67 14 CURVE",
"67 34 OFFCURVE",
"68 75 OFFCURVE",
"63 93 CURVE",
"71 99 OFFCURVE",
"74 105 OFFCURVE",
"74 111 CURVE SMOOTH",
"74 114 OFFCURVE",
"73 117 OFFCURVE",
"72 120 CURVE",
"76 124 OFFCURVE",
"77 129 OFFCURVE",
"77 135 CURVE SMOOTH",
"77 139 OFFCURVE",
"77 142 OFFCURVE",
"75 146 CURVE",
"83 151 OFFCURVE",
"87 162 OFFCURVE",
"87 175 CURVE SMOOTH",
"87 177 OFFCURVE",
"87 179 OFFCURVE",
"86 181 CURVE",
"96 186 OFFCURVE",
"103 195 OFFCURVE",
"103 207 CURVE",
"100 217 LINE",
"99 218 LINE",
"105 224 OFFCURVE",
"108 232 OFFCURVE",
"109 240 CURVE",
"120 250 OFFCURVE",
"132 265 OFFCURVE",
"145 277 CURVE",
"156 282 OFFCURVE",
"168 286 OFFCURVE",
"180 286 CURVE SMOOTH",
"185 286 LINE SMOOTH",
"225 286 OFFCURVE",
"238 270 OFFCURVE",
"238 243 CURVE SMOOTH",
"238 201 OFFCURVE",
"206 156 OFFCURVE",
"172 156 CURVE SMOOTH",
"164 156 OFFCURVE",
"160 158 OFFCURVE",
"149 164 CURVE SMOOTH",
"146 166 OFFCURVE",
"143 167 OFFCURVE",
"140 167 CURVE SMOOTH",
"130 167 OFFCURVE",
"122 157 OFFCURVE",
"122 147 CURVE SMOOTH",
"122 142 OFFCURVE",
"124 136 OFFCURVE",
"131 132 CURVE SMOOTH",
"143 126 OFFCURVE",
"154 119 OFFCURVE",
"172 119 CURVE SMOOTH",
"237 119 OFFCURVE",
"275 193 OFFCURVE",
"275 243 CURVE SMOOTH",
"275 284 OFFCURVE",
"254 307 OFFCURVE",
"223 317 CURVE",
"223 318 OFFCURVE",
"222 319 OFFCURVE",
"221 319 CURVE",
"218 322 LINE SMOOTH",
"213 327 OFFCURVE",
"207 328 OFFCURVE",
"200 328 CURVE",
"196 332 OFFCURVE",
"191 335 OFFCURVE",
"184 335 CURVE SMOOTH",
"158 335 OFFCURVE",
"138 322 OFFCURVE",
"124 308 CURVE",
"97 295 OFFCURVE",
"73 275 OFFCURVE",
"49 258 CURVE SMOOTH",
"32 247 OFFCURVE",
"8 188 OFFCURVE",
"7 179 CURVE SMOOTH",
"5 167 OFFCURVE",
"4 154 OFFCURVE",
"4 142 CURVE SMOOTH",
"4 122 OFFCURVE",
"6 103 OFFCURVE",
"6 83 CURVE SMOOTH",
"6 43 OFFCURVE",
"17 10 OFFCURVE",
"40 -12 CURVE SMOOTH",
"42 -14 OFFCURVE",
"44 -16 OFFCURVE",
"47 -18 CURVE SMOOTH",
"63 -30 OFFCURVE",
"83 -38 OFFCURVE",
"109 -41 CURVE",
"109 -42 OFFCURVE",
"111 -42 OFFCURVE",
"112 -42 CURVE SMOOTH"
);
}
);
width = 469;
}
);
note = F;
unicode = 0046;
},
{
glyphname = G;
lastChange = "2021-06-24 05:27:23 +0000";
layers = (
{
anchors = (
{
name = bottom;
position = "{197, -413}";
},
{
name = top;
position = "{428, 660}";
}
);
layerId = "5C71BA0D-BC2C-47B0-9323-6F63B3241D58";
paths = (
{
closed = 1;
nodes = (
"259 -419 OFFCURVE",
"312 -400 OFFCURVE",
"355 -370 CURVE SMOOTH",
"393 -343 OFFCURVE",
"433 -311 OFFCURVE",
"459 -268 CURVE",
"473 -253 OFFCURVE",
"482 -232 OFFCURVE",
"492 -210 CURVE SMOOTH",
"504 -183 OFFCURVE",
"514 -156 OFFCURVE",
"519 -129 CURVE SMOOTH",
"527 -90 OFFCURVE",
"540 -52 OFFCURVE",
"540 -12 CURVE SMOOTH",
"540 190 OFFCURVE",
"535 249 OFFCURVE",
"495 297 CURVE SMOOTH",
"491 302 OFFCURVE",
"485 304 OFFCURVE",
"478 304 CURVE SMOOTH",
"457 304 OFFCURVE",
"428 285 OFFCURVE",
"426 268 CURVE SMOOTH",
"421 210 OFFCURVE",
"402 154 OFFCURVE",
"361 111 CURVE SMOOTH",
"339 87 OFFCURVE",
"294 68 OFFCURVE",
"253 68 CURVE SMOOTH",
"161 68 OFFCURVE",
"119 139 OFFCURVE",
"119 235 CURVE SMOOTH",
"119 239 OFFCURVE",
"119 243 OFFCURVE",
"120 247 CURVE SMOOTH",
"120 251 OFFCURVE",
"120 254 OFFCURVE",
"121 258 CURVE",
"123 281 OFFCURVE",
"130 299 OFFCURVE",
"138 316 CURVE SMOOTH",
"149 339 OFFCURVE",
"163 359 OFFCURVE",
"174 381 CURVE SMOOTH",
"197 428 OFFCURVE",
"271 514 OFFCURVE",
"308 548 CURVE",
"351 569 OFFCURVE",
"387 603 OFFCURVE",
"438 603 CURVE SMOOTH",
"516 603 OFFCURVE",
"568 555 OFFCURVE",
"568 492 CURVE SMOOTH",
"568 448 OFFCURVE",
"538 388 OFFCURVE",
"499 388 CURVE SMOOTH",
"476 388 OFFCURVE",
"441 405 OFFCURVE",
"440 425 CURVE SMOOTH",
"440 459 OFFCURVE",
"445 490 OFFCURVE",
"460 508 CURVE",
"463 510 OFFCURVE",
"466 512 OFFCURVE",
"467 515 CURVE",
"469 516 OFFCURVE",
"471 517 OFFCURVE",
"473 519 CURVE",
"480 522 OFFCURVE",
"482 528 OFFCURVE",
"482 534 CURVE SMOOTH",
"482 541 OFFCURVE",
"477 549 OFFCURVE",
"468 549 CURVE SMOOTH",
"466 549 OFFCURVE",
"463 548 OFFCURVE",
"460 547 CURVE SMOOTH",
"457 546 OFFCURVE",
"454 544 OFFCURVE",
"452 543 CURVE",
"449 543 OFFCURVE",
"447 542 OFFCURVE",
"444 541 CURVE SMOOTH",
"422 533 OFFCURVE",
"420 509 OFFCURVE",
"408 492 CURVE",
"412 492 LINE",
"393 474 LINE",
"393 423 LINE SMOOTH",
"393 417 OFFCURVE",
"406 403 OFFCURVE",
"410 397 CURVE SMOOTH",
"414 391 OFFCURVE",
"419 388 OFFCURVE",
"424 388 CURVE SMOOTH",
"425 388 OFFCURVE",
"425 388 OFFCURVE",
"426 388 CURVE",
"445 368 OFFCURVE",
"477 355 OFFCURVE",
"499 355 CURVE SMOOTH",
"556 355 OFFCURVE",
"613 443 OFFCURVE",
"613 501 CURVE SMOOTH",
"613 584 OFFCURVE",
"541 652 OFFCURVE",
"438 652 CURVE SMOOTH",
"435 652 OFFCURVE",
"431 652 OFFCURVE",
"428 652 CURVE SMOOTH",
"421 652 LINE SMOOTH",
"383 652 OFFCURVE",
"355 640 OFFCURVE",
"320 626 CURVE SMOOTH",
"305 620 OFFCURVE",
"286 590 OFFCURVE",
"277 590 CURVE SMOOTH",
"258 590 OFFCURVE",
"243 577 OFFCURVE",
"234 568 CURVE SMOOTH",
"219 553 OFFCURVE",
"194 541 OFFCURVE",
"194 518 CURVE SMOOTH",
"194 515 LINE",
"169 517 OFFCURVE",
"160 504 OFFCURVE",
"160 485 CURVE SMOOTH",
"160 481 OFFCURVE",
"160 477 OFFCURVE",
"161 473 CURVE",
"155 460 OFFCURVE",
"134 457 OFFCURVE",
"127 427 CURVE SMOOTH",
"126 423 OFFCURVE",
"125 419 OFFCURVE",
"125 416 CURVE SMOOTH",
"125 414 OFFCURVE",
"126 412 OFFCURVE",
"126 410 CURVE",
"125 408 LINE",
"121 401 LINE",
"120 400 OFFCURVE",
"119 398 OFFCURVE",
"118 398 CURVE",
"78 370 OFFCURVE",
"83 344 OFFCURVE",
"83 298 CURVE SMOOTH",
"83 292 LINE SMOOTH",
"83 275 OFFCURVE",
"79 257 OFFCURVE",
"79 237 CURVE",
"74 227 OFFCURVE",
"65 217 OFFCURVE",
"65 199 CURVE SMOOTH",
"65 187 OFFCURVE",
"72 179 OFFCURVE",
"80 170 CURVE",
"86 133 OFFCURVE",
"95 83 OFFCURVE",
"133 67 CURVE",
"157 45 OFFCURVE",
"192 32 OFFCURVE",
"238 32 CURVE SMOOTH",
"287 32 OFFCURVE",
"363 51 OFFCURVE",
"391 81 CURVE SMOOTH",
"416 108 OFFCURVE",
"438 120 OFFCURVE",
"451 149 CURVE",
"451 92 LINE SMOOTH",
"451 78 OFFCURVE",
"463 75 OFFCURVE",
"474 73 CURVE",
"467 64 OFFCURVE",
"464 60 OFFCURVE",
"464 57 CURVE SMOOTH",
"464 52 OFFCURVE",
"468 49 OFFCURVE",
"471 38 CURVE",
"468 26 OFFCURVE",
"467 13 OFFCURVE",
"467 1 CURVE SMOOTH",
"467 -25 OFFCURVE",
"472 -51 OFFCURVE",
"476 -77 CURVE SMOOTH",
"477 -82 OFFCURVE",
"477 -88 OFFCURVE",
"477 -95 CURVE SMOOTH",
"477 -112 OFFCURVE",
"474 -133 OFFCURVE",
"470 -153 CURVE",
"460 -185 OFFCURVE",
"444 -219 OFFCURVE",
"424 -251 CURVE",
"409 -263 OFFCURVE",
"388 -270 OFFCURVE",
"378 -288 CURVE SMOOTH",
"346 -346 OFFCURVE",
"281 -382 OFFCURVE",
"199 -382 CURVE SMOOTH",
"183 -382 OFFCURVE",
"169 -375 OFFCURVE",
"153 -375 CURVE SMOOTH",
"130 -375 OFFCURVE",
"109 -369 OFFCURVE",
"93 -357 CURVE SMOOTH",
"85 -350 OFFCURVE",
"78 -343 OFFCURVE",
"72 -335 CURVE SMOOTH",
"60 -318 OFFCURVE",
"53 -296 OFFCURVE",
"53 -272 CURVE",
"58 -264 LINE SMOOTH",
"65 -254 OFFCURVE",
"67 -245 OFFCURVE",
"67 -237 CURVE SMOOTH",
"67 -222 OFFCURVE",
"60 -209 OFFCURVE",
"60 -192 CURVE SMOOTH",
"60 -186 OFFCURVE",
"61 -179 OFFCURVE",
"63 -172 CURVE",
"70 -170 OFFCURVE",
"86 -165 OFFCURVE",
"86 -145 CURVE SMOOTH",
"86 -139 OFFCURVE",
"83 -134 OFFCURVE",
"82 -128 CURVE",
"95 -122 OFFCURVE",
"117 -113 OFFCURVE",
"110 -95 CURVE",
"132 -78 OFFCURVE",
"149 -41 OFFCURVE",
"179 -41 CURVE SMOOTH",
"189 -41 OFFCURVE",
"195 -35 OFFCURVE",
"197 -28 CURVE",
"209 -25 OFFCURVE",
"221 -24 OFFCURVE",
"235 -24 CURVE SMOOTH",
"280 -24 OFFCURVE",
"294 -55 OFFCURVE",
"294 -104 CURVE SMOOTH",
"294 -180 OFFCURVE",
"249 -206 OFFCURVE",
"215 -206 CURVE SMOOTH",
"195 -206 OFFCURVE",
"179 -197 OFFCURVE",
"179 -184 CURVE SMOOTH",
"179 -165 OFFCURVE",
"191 -119 OFFCURVE",
"211 -115 CURVE",
"210 -119 OFFCURVE",
"209 -122 OFFCURVE",
"210 -126 CURVE SMOOTH",
"213 -141 OFFCURVE",
"227 -150 OFFCURVE",
"238 -150 CURVE SMOOTH",
"247 -150 OFFCURVE",
"254 -144 OFFCURVE",
"252 -132 CURVE SMOOTH",
"249 -112 OFFCURVE",
"244 -87 OFFCURVE",
"216 -87 CURVE SMOOTH",
"177 -87 OFFCURVE",
"138 -148 OFFCURVE",
"138 -184 CURVE SMOOTH",
"138 -228 OFFCURVE",
"179 -246 OFFCURVE",
"225 -246 CURVE SMOOTH",
"294 -246 OFFCURVE",
"347 -189 OFFCURVE",
"347 -120 CURVE SMOOTH",
"347 -47 OFFCURVE",
"306 9 OFFCURVE",
"232 9 CURVE SMOOTH",
"129 9 OFFCURVE",
"53 -65 OFFCURVE",
"18 -134 CURVE SMOOTH",
"5 -161 OFFCURVE",
"-4 -197 OFFCURVE",
"-4 -240 CURVE SMOOTH",
"-4 -285 OFFCURVE",
"12 -323 OFFCURVE",
"38 -352 CURVE",
"62 -388 OFFCURVE",
"103 -413 OFFCURVE",
"153 -413 CURVE SMOOTH",
"169 -413 OFFCURVE",
"183 -419 OFFCURVE",
"199 -419 CURVE SMOOTH"
);
}
);
width = 604;
}
);
note = G;
unicode = 0047;
},
{
glyphname = H;
lastChange = "2021-06-24 05:27:24 +0000";
layers = (
{
anchors = (
{
name = bottom;
position = "{414, 0}";
},
{
name = center;
position = "{342, 330}";
},
{
name = top;
position = "{454, 660}";
},
{
name = topleft;
position = "{20, 660}";
}
);
layerId = "5C71BA0D-BC2C-47B0-9323-6F63B3241D58";
paths = (
{
closed = 1;
nodes = (
"126 -147 OFFCURVE",
"128 -146 OFFCURVE",
"130 -146 CURVE SMOOTH",
"142 -146 LINE SMOOTH",
"156 -146 OFFCURVE",
"163 -140 OFFCURVE",
"172 -132 CURVE",
"174 -131 LINE",
"244 -123 OFFCURVE",
"221 -103 OFFCURVE",
"265 -70 CURVE SMOOTH",
"269 -67 LINE",
"291 -55 OFFCURVE",
"294 -13 OFFCURVE",
"295 -13 CURVE",
"315 -5 OFFCURVE",
"321 10 OFFCURVE",
"321 29 CURVE SMOOTH",
"321 33 OFFCURVE",
"321 37 OFFCURVE",
"320 42 CURVE SMOOTH",
"318 58 OFFCURVE",
"322 138 OFFCURVE",
"326 148 CURVE SMOOTH",
"338 184 OFFCURVE",
"346 191 OFFCURVE",
"346 213 CURVE SMOOTH",
"346 221 OFFCURVE",
"345 231 OFFCURVE",
"343 244 CURVE",
"345 245 LINE SMOOTH",
"358 251 OFFCURVE",
"362 260 OFFCURVE",
"362 269 CURVE SMOOTH",
"362 270 OFFCURVE",
"362 271 OFFCURVE",
"362 272 CURVE",
"371 265 OFFCURVE",
"382 259 OFFCURVE",
"395 259 CURVE SMOOTH",
"405 259 OFFCURVE",
"414 266 OFFCURVE",
"424 266 CURVE SMOOTH",
"432 266 OFFCURVE",
"440 261 OFFCURVE",
"448 261 CURVE SMOOTH",
"461 261 OFFCURVE",
"469 266 OFFCURVE",
"476 271 CURVE SMOOTH",
"482 276 OFFCURVE",
"489 278 OFFCURVE",
"496 278 CURVE",
"496 271 OFFCURVE",
"499 264 OFFCURVE",
"509 257 CURVE",
"501 234 OFFCURVE",
"490 218 OFFCURVE",
"490 192 CURVE SMOOTH",
"490 184 OFFCURVE",
"494 178 OFFCURVE",
"497 172 CURVE",
"493 169 OFFCURVE",
"489 164 OFFCURVE",
"489 156 CURVE SMOOTH",
"489 106 OFFCURVE",
"489 24 OFFCURVE",
"528 -16 CURVE",
"529 -19 OFFCURVE",
"531 -22 OFFCURVE",
"532 -26 CURVE",
"535 -34 OFFCURVE",
"542 -37 OFFCURVE",
"548 -37 CURVE SMOOTH",
"551 -37 OFFCURVE",
"554 -36 OFFCURVE",
"556 -35 CURVE",
"566 -39 OFFCURVE",
"577 -41 OFFCURVE",
"589 -41 CURVE SMOOTH",
"645 -41 OFFCURVE",
"680 32 OFFCURVE",
"680 62 CURVE SMOOTH",
"680 104 OFFCURVE",
"673 159 OFFCURVE",
"617 159 CURVE SMOOTH",
"583 159 OFFCURVE",
"567 122 OFFCURVE",
"567 99 CURVE SMOOTH",
"567 95 OFFCURVE",
"568 89 OFFCURVE",
"569 83 CURVE SMOOTH",
"570 77 LINE",
"570 76 LINE SMOOTH",
"570 64 OFFCURVE",
"579 57 OFFCURVE",
"589 57 CURVE SMOOTH",
"598 57 OFFCURVE",
"607 64 OFFCURVE",
"607 76 CURVE SMOOTH",
"607 83 LINE",
"606 89 LINE SMOOTH",
"605 92 OFFCURVE",
"604 96 OFFCURVE",
"604 99 CURVE SMOOTH",
"604 114 OFFCURVE",
"615 122 OFFCURVE",
"617 122 CURVE SMOOTH",
"645 122 OFFCURVE",
"643 81 OFFCURVE",
"643 62 CURVE SMOOTH",
"643 42 OFFCURVE",
"615 -4 OFFCURVE",
"589 -4 CURVE SMOOTH",
"576 -4 OFFCURVE",
"566 1 OFFCURVE",
"558 7 CURVE",
"547 35 OFFCURVE",
"540 63 OFFCURVE",
"540 98 CURVE SMOOTH",
"540 165 OFFCURVE",
"557 220 OFFCURVE",
"563 281 CURVE",
"599 287 OFFCURVE",
"638 299 OFFCURVE",
"654 319 CURVE SMOOTH",
"662 330 OFFCURVE",
"672 351 OFFCURVE",
"672 372 CURVE SMOOTH",
"672 382 OFFCURVE",
"669 391 OFFCURVE",
"663 399 CURVE SMOOTH",
"656 408 OFFCURVE",
"651 411 OFFCURVE",
"647 411 CURVE SMOOTH",
"632 411 OFFCURVE",
"638 358 OFFCURVE",
"626 343 CURVE SMOOTH",
"618 333 OFFCURVE",
"593 324 OFFCURVE",
"566 319 CURVE",
"566 331 LINE SMOOTH",
"566 412 OFFCURVE",
"589 492 OFFCURVE",
"609 571 CURVE",
"620 597 OFFCURVE",
"630 626 OFFCURVE",
"647 626 CURVE SMOOTH",
"659 626 OFFCURVE",
"669 614 OFFCURVE",
"669 594 CURVE SMOOTH",
"669 590 LINE",
"660 587 OFFCURVE",
"654 582 OFFCURVE",
"650 575 CURVE",
"647 577 OFFCURVE",
"644 578 OFFCURVE",
"642 578 CURVE SMOOTH",
"633 578 OFFCURVE",
"626 567 OFFCURVE",
"626 556 CURVE SMOOTH",
"626 544 OFFCURVE",
"634 531 OFFCURVE",
"654 531 CURVE SMOOTH",
"666 531 OFFCURVE",
"674 542 OFFCURVE",
"678 552 CURVE",
"680 554 LINE",
"702 565 OFFCURVE",
"706 569 OFFCURVE",
"706 594 CURVE SMOOTH",
"706 622 OFFCURVE",
"689 662 OFFCURVE",
"647 662 CURVE SMOOTH",
"644 662 LINE SMOOTH",
"590 662 OFFCURVE",
"588 641 OFFCURVE",
"578 601 CURVE SMOOTH",
"574 585 LINE",
"571 578 OFFCURVE",
"569 572 OFFCURVE",
"566 567 CURVE",
"541 549 OFFCURVE",
"545 531 OFFCURVE",
"545 501 CURVE SMOOTH",
"545 485 OFFCURVE",
"536 418 OFFCURVE",
"531 407 CURVE",
"523 399 OFFCURVE",
"520 390 OFFCURVE",
"520 380 CURVE SMOOTH",
"520 375 OFFCURVE",
"521 370 OFFCURVE",
"522 365 CURVE SMOOTH",
"523 359 LINE",
"524 357 OFFCURVE",
"524 356 OFFCURVE",
"524 355 CURVE",
"521 353 OFFCURVE",
"517 352 OFFCURVE",
"513 350 CURVE",
"504 343 OFFCURVE",
"491 326 OFFCURVE",
"498 315 CURVE",
"497 315 LINE SMOOTH",
"493 315 OFFCURVE",
"490 316 OFFCURVE",
"487 316 CURVE SMOOTH",
"476 316 OFFCURVE",
"469 310 OFFCURVE",
"465 310 CURVE SMOOTH",
"448 310 OFFCURVE",
"418 317 OFFCURVE",
"396 317 CURVE SMOOTH",
"390 317 OFFCURVE",
"385 314 OFFCURVE",
"380 312 CURVE",
"374 312 OFFCURVE",
"370 314 OFFCURVE",
"363 317 CURVE",
"362 318 OFFCURVE",
"360 319 OFFCURVE",
"358 320 CURVE",
"360 326 OFFCURVE",
"362 332 OFFCURVE",
"367 343 CURVE SMOOTH",
"370 350 OFFCURVE",
"372 367 OFFCURVE",
"372 387 CURVE SMOOTH",
"372 419 OFFCURVE",
"368 458 OFFCURVE",
"360 470 CURVE",
"361 476 OFFCURVE",
"362 482 OFFCURVE",
"362 487 CURVE SMOOTH",
"362 529 OFFCURVE",
"329 551 OFFCURVE",
"329 583 CURVE SMOOTH",
"329 593 OFFCURVE",
"321 602 OFFCURVE",
"311 602 CURVE SMOOTH",
"298 602 OFFCURVE",
"294 617 OFFCURVE",
"266 617 CURVE SMOOTH",
"253 617 OFFCURVE",
"240 627 OFFCURVE",
"225 627 CURVE SMOOTH",
"216 627 OFFCURVE",
"169 596 OFFCURVE",
"164 590 CURVE SMOOTH",
"163 589 OFFCURVE",
"162 588 OFFCURVE",
"162 587 CURVE",
"155 582 OFFCURVE",
"151 576 OFFCURVE",
"151 568 CURVE SMOOTH",
"151 537 OFFCURVE",
"163 504 OFFCURVE",
"201 504 CURVE SMOOTH",
"204 504 OFFCURVE",
"208 504 OFFCURVE",
"212 505 CURVE SMOOTH",
"223 506 OFFCURVE",
"229 515 OFFCURVE",
"229 523 CURVE SMOOTH",
"229 532 OFFCURVE",
"222 541 OFFCURVE",
"212 541 CURVE SMOOTH",
"198 541 OFFCURVE",
"190 539 OFFCURVE",
"189 560 CURVE",
"201 563 OFFCURVE",
"214 566 OFFCURVE",
"227 566 CURVE SMOOTH",
"258 566 OFFCURVE",
"300 514 OFFCURVE",
"295 489 CURVE SMOOTH",
"292 474 OFFCURVE",
"299 466 OFFCURVE",
"308 456 CURVE",
"309 451 OFFCURVE",
"308 446 OFFCURVE",
"308 441 CURVE SMOOTH",
"308 429 OFFCURVE",
"313 419 OFFCURVE",
"323 413 CURVE",
"319 407 OFFCURVE",
"318 402 OFFCURVE",
"318 397 CURVE SMOOTH",
"318 386 OFFCURVE",
"325 378 OFFCURVE",
"329 366 CURVE",
"329 355 OFFCURVE",
"326 345 OFFCURVE",
"322 334 CURVE",
"304 339 OFFCURVE",
"288 339 OFFCURVE",
"267 339 CURVE",
"264 340 OFFCURVE",
"261 340 OFFCURVE",
"258 340 CURVE SMOOTH",
"251 340 OFFCURVE",
"244 340 OFFCURVE",
"237 338 CURVE",
"203 336 OFFCURVE",
"156 296 OFFCURVE",
"156 261 CURVE SMOOTH",
"156 249 OFFCURVE",
"165 242 OFFCURVE",
"175 242 CURVE SMOOTH",
"184 242 OFFCURVE",
"193 249 OFFCURVE",
"193 261 CURVE SMOOTH",
"193 262 OFFCURVE",
"194 264 OFFCURVE",
"195 266 CURVE",
"198 267 OFFCURVE",
"200 269 OFFCURVE",
"203 272 CURVE SMOOTH",
"218 289 OFFCURVE",
"229 298 OFFCURVE",
"242 302 CURVE",
"257 302 LINE",
"262 297 OFFCURVE",
"267 293 OFFCURVE",
"275 293 CURVE SMOOTH",
"292 293 OFFCURVE",
"292 280 OFFCURVE",
"302 280 CURVE SMOOTH",
"306 280 OFFCURVE",
"311 282 OFFCURVE",
"319 287 CURVE",
"320 284 LINE",
"319 279 OFFCURVE",
"319 276 OFFCURVE",
"318 273 CURVE",
"309 267 OFFCURVE",
"306 258 OFFCURVE",
"306 248 CURVE SMOOTH",
"306 242 OFFCURVE",
"307 235 OFFCURVE",
"309 229 CURVE SMOOTH",
"310 226 OFFCURVE",
"310 223 OFFCURVE",
"310 220 CURVE SMOOTH",
"310 200 OFFCURVE",
"296 177 OFFCURVE",
"290 160 CURVE SMOOTH",
"284 142 OFFCURVE",
"286 124 OFFCURVE",
"286 106 CURVE SMOOTH",
"286 97 OFFCURVE",
"285 88 OFFCURVE",
"283 78 CURVE SMOOTH",
"279 61 OFFCURVE",
"258 -17 OFFCURVE",
"259 -26 CURVE",
"256 -32 OFFCURVE",
"254 -34 OFFCURVE",
"250 -36 CURVE SMOOTH",
"246 -38 LINE SMOOTH",
"216 -53 OFFCURVE",
"222 -81 OFFCURVE",
"186 -91 CURVE",
"184 -92 LINE",
"180 -92 OFFCURVE",
"175 -93 OFFCURVE",
"171 -94 CURVE",
"170 -95 LINE",
"160 -96 OFFCURVE",
"156 -99 OFFCURVE",
"151 -102 CURVE SMOOTH",
"144 -105 OFFCURVE",
"137 -108 OFFCURVE",
"129 -109 CURVE",
"96 -105 OFFCURVE",
"83 -84 OFFCURVE",
"72 -48 CURVE SMOOTH",
"68 -36 OFFCURVE",
"60 -31 OFFCURVE",
"55 -21 CURVE",
"55 -8 OFFCURVE",
"54 4 OFFCURVE",
"54 16 CURVE SMOOTH",
"54 24 OFFCURVE",
"54 33 OFFCURVE",
"56 41 CURVE",
"62 45 LINE SMOOTH",
"77 55 OFFCURVE",
"80 68 OFFCURVE",
"80 83 CURVE SMOOTH",
"80 91 OFFCURVE",
"79 100 OFFCURVE",
"79 109 CURVE SMOOTH",
"79 138 OFFCURVE",
"121 154 OFFCURVE",
"144 154 CURVE SMOOTH",
"152 154 OFFCURVE",
"159 150 OFFCURVE",
"167 150 CURVE",
"179 137 OFFCURVE",
"187 95 OFFCURVE",
"187 80 CURVE SMOOTH",
"187 58 OFFCURVE",
"160 49 OFFCURVE",
"143 42 CURVE SMOOTH",
"134 39 OFFCURVE",
"130 32 OFFCURVE",
"130 25 CURVE SMOOTH",
"130 14 OFFCURVE",
"141 2 OFFCURVE",
"155 8 CURVE SMOOTH",
"189 20 OFFCURVE",
"224 37 OFFCURVE",
"224 80 CURVE SMOOTH",
"224 107 OFFCURVE",
"209 187 OFFCURVE",
"169 187 CURVE SMOOTH",
"161 187 LINE",
"158 191 OFFCURVE",
"153 194 OFFCURVE",
"147 194 CURVE SMOOTH",
"37 194 OFFCURVE",
"-3 80 OFFCURVE",
"-3 -1 CURVE SMOOTH",
"-3 -19 OFFCURVE",
"7 -24 OFFCURVE",
"18 -34 CURVE",
"23 -46 OFFCURVE",
"22 -58 OFFCURVE",
"24 -70 CURVE SMOOTH",
"29 -112 OFFCURVE",
"84 -147 OFFCURVE",
"124 -147 CURVE SMOOTH"
);
}
);
width = 684;
}
);
note = H;
unicode = 0048;
},
{
glyphname = I;
lastChange = "2021-06-24 05:27:24 +0000";
layers = (
{
anchors = (
{
name = bottom;
position = "{155, -106}";
},
{
name = ogonek;
position = "{313, -92}";
},
{
name = top;
position = "{591, 630}";
},
{
name = topleft;
position = "{20, 660}";
}
);
layerId = "5C71BA0D-BC2C-47B0-9323-6F63B3241D58";
paths = (
{
closed = 1;
nodes = (
"402 -58 OFFCURVE",
"441 -8 OFFCURVE",
"498 68 CURVE",
"499 68 LINE SMOOTH",
"511 68 OFFCURVE",
"523 39 OFFCURVE",
"526 32 CURVE SMOOTH",
"529 26 OFFCURVE",
"540 20 OFFCURVE",
"548 20 CURVE SMOOTH",
"551 20 OFFCURVE",
"553 21 OFFCURVE",
"555 22 CURVE SMOOTH",
"559 25 OFFCURVE",
"559 29 OFFCURVE",
"557 32 CURVE",
"551 49 OFFCURVE",
"538 61 OFFCURVE",
"531 77 CURVE SMOOTH",
"526 88 OFFCURVE",
"524 100 OFFCURVE",
"524 108 CURVE SMOOTH",
"524 112 OFFCURVE",
"525 115 OFFCURVE",
"525 116 CURVE",
"535 136 OFFCURVE",
"552 170 OFFCURVE",
"569 211 CURVE SMOOTH",
"604 291 OFFCURVE",
"637 383 OFFCURVE",
"637 474 CURVE SMOOTH",
"637 509 OFFCURVE",
"632 543 OFFCURVE",
"621 576 CURVE",
"621 577 LINE",
"623 582 OFFCURVE",
"622 588 OFFCURVE",
"617 597 CURVE SMOOTH",
"612 604 OFFCURVE",
"608 610 OFFCURVE",
"603 616 CURVE SMOOTH",
"597 623 OFFCURVE",
"591 628 OFFCURVE",
"585 629 CURVE SMOOTH",
"577 630 OFFCURVE",
"571 630 OFFCURVE",
"565 628 CURVE",
"497 623 OFFCURVE",
"496 551 OFFCURVE",
"471 504 CURVE",
"469 503 LINE SMOOTH",
"452 495 OFFCURVE",
"448 487 OFFCURVE",
"448 476 CURVE SMOOTH",
"448 471 OFFCURVE",
"449 465 OFFCURVE",
"450 458 CURVE",
"436 432 OFFCURVE",
"430 406 OFFCURVE",
"430 380 CURVE SMOOTH",
"430 364 OFFCURVE",
"433 348 OFFCURVE",
"436 331 CURVE",
"433 322 OFFCURVE",
"426 315 OFFCURVE",
"426 304 CURVE SMOOTH",
"426 294 OFFCURVE",
"430 285 OFFCURVE",
"437 278 CURVE",
"440 276 LINE",
"440 264 LINE SMOOTH",
"440 249 OFFCURVE",
"440 237 OFFCURVE",
"440 228 CURVE SMOOTH",
"440 194 OFFCURVE",
"443 188 OFFCURVE",
"471 154 CURVE",
"473 148 OFFCURVE",
"475 144 OFFCURVE",
"475 141 CURVE SMOOTH",
"475 140 OFFCURVE",
"475 140 OFFCURVE",
"475 139 CURVE",
"476 127 OFFCURVE",
"408 -12 OFFCURVE",
"283 -58 CURVE SMOOTH",
"251 -69 OFFCURVE",
"219 -75 OFFCURVE",
"190 -75 CURVE SMOOTH",
"183 -75 OFFCURVE",
"176 -75 OFFCURVE",
"170 -74 CURVE",
"167 -71 OFFCURVE",
"164 -68 OFFCURVE",
"159 -67 CURVE SMOOTH",
"128 -59 OFFCURVE",
"102 -54 OFFCURVE",
"77 -33 CURVE",
"76 -22 OFFCURVE",
"73 -13 OFFCURVE",
"62 -8 CURVE",
"63 5 OFFCURVE",
"59 15 OFFCURVE",
"50 22 CURVE",
"49 25 OFFCURVE",
"49 27 OFFCURVE",
"49 29 CURVE",
"56 38 OFFCURVE",
"59 46 OFFCURVE",
"59 53 CURVE SMOOTH",
"59 58 OFFCURVE",
"57 63 OFFCURVE",
"55 68 CURVE",
"63 90 OFFCURVE",
"79 110 OFFCURVE",
"100 128 CURVE SMOOTH",
"126 150 OFFCURVE",
"162 167 OFFCURVE",
"186 167 CURVE SMOOTH",
"194 167 OFFCURVE",
"200 165 OFFCURVE",
"204 161 CURVE SMOOTH",
"218 148 OFFCURVE",
"228 131 OFFCURVE",
"228 114 CURVE SMOOTH",
"228 103 OFFCURVE",
"224 91 OFFCURVE",
"212 79 CURVE",
"202 71 OFFCURVE",
"193 66 OFFCURVE",
"184 66 CURVE SMOOTH",
"179 66 OFFCURVE",
"174 68 OFFCURVE",
"169 72 CURVE SMOOTH",
"164 76 OFFCURVE",
"158 77 OFFCURVE",
"153 77 CURVE SMOOTH",
"145 77 OFFCURVE",
"138 74 OFFCURVE",
"138 67 CURVE SMOOTH",
"138 64 OFFCURVE",
"140 60 OFFCURVE",
"145 55 CURVE SMOOTH",
"153 47 OFFCURVE",
"165 30 OFFCURVE",
"190 30 CURVE SMOOTH",
"239 30 OFFCURVE",
"265 76 OFFCURVE",
"265 114 CURVE SMOOTH",
"265 120 OFFCURVE",
"264 126 OFFCURVE",
"263 131 CURVE SMOOTH",
"251 182 OFFCURVE",
"218 197 OFFCURVE",
"191 198 CURVE",
"188 201 OFFCURVE",
"185 203 OFFCURVE",
"181 204 CURVE SMOOTH",
"172 206 OFFCURVE",
"164 207 OFFCURVE",
"155 207 CURVE SMOOTH",
"110 207 OFFCURVE",
"69 176 OFFCURVE",
"44 145 CURVE SMOOTH",
"34 132 OFFCURVE",
"10 112 OFFCURVE",
"10 84 CURVE SMOOTH",
"10 75 OFFCURVE",
"12 64 OFFCURVE",
"19 53 CURVE",
"20 52 LINE",
"8 40 OFFCURVE",
"3 32 OFFCURVE",
"3 25 CURVE SMOOTH",
"3 15 OFFCURVE",
"13 7 OFFCURVE",
"25 -6 CURVE",
"24 -10 OFFCURVE",
"24 -15 OFFCURVE",
"24 -20 CURVE SMOOTH",
"24 -29 OFFCURVE",
"26 -38 OFFCURVE",
"39 -39 CURVE",
"40 -40 LINE",
"40 -41 LINE SMOOTH",
"40 -60 OFFCURVE",
"64 -74 OFFCURVE",
"89 -84 CURVE",
"122 -103 OFFCURVE",
"164 -111 OFFCURVE",
"204 -111 CURVE SMOOTH",
"241 -111 OFFCURVE",
"277 -104 OFFCURVE",
"304 -94 CURVE SMOOTH"
);
},
{
closed = 1;
nodes = (
"496 181 LINE",
"487 191 LINE",
"483 203 LINE",
"474 233 LINE",
"475 246 OFFCURVE",
"478 258 OFFCURVE",
"478 269 CURVE SMOOTH",
"478 279 OFFCURVE",
"475 289 OFFCURVE",
"467 300 CURVE",
"467 311 LINE",
"470 318 OFFCURVE",
"473 325 OFFCURVE",
"473 333 CURVE SMOOTH",
"473 335 OFFCURVE",
"472 337 OFFCURVE",
"472 339 CURVE SMOOTH",
"471 343 OFFCURVE",
"470 347 OFFCURVE",
"470 351 CURVE SMOOTH",
"474 387 OFFCURVE",
"482 421 OFFCURVE",
"491 446 CURVE SMOOTH",
"497 461 OFFCURVE",
"502 479 OFFCURVE",
"509 496 CURVE SMOOTH",
"512 503 OFFCURVE",
"514 511 OFFCURVE",
"517 519 CURVE SMOOTH",
"524 537 OFFCURVE",
"533 554 OFFCURVE",
"543 569 CURVE SMOOTH",
"550 579 OFFCURVE",
"556 586 OFFCURVE",
"562 590 CURVE",
"565 591 OFFCURVE",
"569 591 OFFCURVE",
"573 591 CURVE SMOOTH",
"576 591 OFFCURVE",
"579 587 OFFCURVE",
"580 585 CURVE SMOOTH",
"582 582 OFFCURVE",
"584 580 OFFCURVE",
"586 579 CURVE",
"590 568 OFFCURVE",
"591 551 OFFCURVE",
"591 532 CURVE SMOOTH",
"591 512 OFFCURVE",
"590 491 OFFCURVE",
"587 469 CURVE",
"586 469 LINE",
"576 370 OFFCURVE",
"532 224 OFFCURVE",
"499 178 CURVE"
);
}
);
width = 642;
}
);
note = I;
unicode = 0049;
},
{
glyphname = J;
lastChange = "2021-06-24 05:27:24 +0000";
layers = (
{
anchors = (
{
name = bottom;
position = "{192, -267}";
},
{
name = top;
position = "{497, 660}";
}
);
layerId = "5C71BA0D-BC2C-47B0-9323-6F63B3241D58";
paths = (
{
closed = 1;
nodes = (
"291 -277 OFFCURVE",
"395 -197 OFFCURVE",
"445 -148 CURVE SMOOTH",
"473 -120 OFFCURVE",
"491 -87 OFFCURVE",
"506 -44 CURVE SMOOTH",
"531 26 OFFCURVE",
"529 28 OFFCURVE",
"544 118 CURVE",
"542 143 LINE",
"544 159 OFFCURVE",
"545 174 OFFCURVE",
"545 189 CURVE SMOOTH",
"545 209 OFFCURVE",
"542 227 OFFCURVE",
"533 237 CURVE",
"533 238 LINE",
"531 247 LINE",
"539 258 OFFCURVE",
"546 272 OFFCURVE",
"546 285 CURVE SMOOTH",
"546 294 OFFCURVE",
"543 302 OFFCURVE",
"535 310 CURVE SMOOTH",
"534 311 LINE",
"538 317 OFFCURVE",
"541 324 OFFCURVE",
"541 331 CURVE SMOOTH",
"541 341 OFFCURVE",
"536 351 OFFCURVE",
"525 355 CURVE",
"529 365 OFFCURVE",
"533 371 OFFCURVE",
"533 383 CURVE SMOOTH",
"533 389 OFFCURVE",
"529 395 OFFCURVE",
"523 399 CURVE",
"525 403 OFFCURVE",
"526 407 OFFCURVE",
"526 411 CURVE SMOOTH",
"526 417 OFFCURVE",
"523 423 OFFCURVE",
"518 428 CURVE",
"520 432 OFFCURVE",
"521 435 OFFCURVE",
"521 438 CURVE SMOOTH",
"521 449 OFFCURVE",
"509 455 OFFCURVE",
"511 464 CURVE SMOOTH",
"516 491 OFFCURVE",
"500 511 OFFCURVE",
"502 534 CURVE",
"503 537 OFFCURVE",
"506 539 OFFCURVE",
"508 541 CURVE",
"512 543 OFFCURVE",
"513 547 OFFCURVE",
"513 552 CURVE SMOOTH",
"513 561 OFFCURVE",
"508 572 OFFCURVE",
"499 581 CURVE SMOOTH",
"488 592 OFFCURVE",
"475 600 OFFCURVE",
"465 600 CURVE SMOOTH",
"462 600 OFFCURVE",
"459 600 OFFCURVE",
"457 598 CURVE SMOOTH",
"442 588 OFFCURVE",
"435 574 OFFCURVE",
"431 557 CURVE SMOOTH",
"428 541 OFFCURVE",
"427 522 OFFCURVE",
"426 501 CURVE",
"488 231 LINE",
"501 143 LINE",
"494 99 OFFCURVE",
"492 73 OFFCURVE",
"488 50 CURVE SMOOTH",
"484 26 OFFCURVE",
"479 5 OFFCURVE",
"467 -30 CURVE SMOOTH",
"454 -66 OFFCURVE",
"441 -95 OFFCURVE",
"416 -119 CURVE SMOOTH",
"371 -162 OFFCURVE",
"279 -236 OFFCURVE",
"196 -236 CURVE SMOOTH",
"177 -236 OFFCURVE",
"164 -232 OFFCURVE",
"151 -227 CURVE SMOOTH",
"139 -222 OFFCURVE",
"127 -216 OFFCURVE",
"113 -212 CURVE SMOOTH",
"55 -195 OFFCURVE",
"33 -155 OFFCURVE",
"33 -78 CURVE SMOOTH",
"33 -40 OFFCURVE",
"45 -18 OFFCURVE",
"63 -1 CURVE SMOOTH",
"81 17 OFFCURVE",
"99 59 OFFCURVE",
"118 75 CURVE SMOOTH",
"128 83 OFFCURVE",
"136 86 OFFCURVE",
"143 86 CURVE SMOOTH",
"156 86 OFFCURVE",
"169 78 OFFCURVE",
"196 78 CURVE SMOOTH",
"238 78 OFFCURVE",
"245 64 OFFCURVE",
"245 22 CURVE SMOOTH",
"245 -7 OFFCURVE",
"229 -27 OFFCURVE",
"202 -28 CURVE",
"203 -24 OFFCURVE",
"204 -21 OFFCURVE",
"203 -17 CURVE SMOOTH",
"201 -6 OFFCURVE",
"192 -1 OFFCURVE",
"183 -1 CURVE SMOOTH",
"171 -1 OFFCURVE",
"159 -11 OFFCURVE",
"163 -26 CURVE SMOOTH",
"170 -53 OFFCURVE",
"185 -61 OFFCURVE",
"214 -61 CURVE SMOOTH",
"264 -61 OFFCURVE",
"287 -33 OFFCURVE",
"287 19 CURVE SMOOTH",
"287 81 OFFCURVE",
"264 159 OFFCURVE",
"195 159 CURVE SMOOTH",
"142 159 OFFCURVE",
"118 133 OFFCURVE",
"82 102 CURVE SMOOTH",
"32 59 OFFCURVE",
"-9 16 OFFCURVE",
"-9 -75 CURVE SMOOTH",
"-9 -175 OFFCURVE",
"23 -231 OFFCURVE",
"104 -252 CURVE SMOOTH",
"118 -256 OFFCURVE",
"130 -262 OFFCURVE",
"144 -267 CURVE SMOOTH",
"158 -273 OFFCURVE",
"174 -277 OFFCURVE",
"196 -277 CURVE SMOOTH"
);
},
{
closed = 1;
nodes = (
"330 409 OFFCURVE",
"367 433 OFFCURVE",
"367 491 CURVE SMOOTH",
"367 520 OFFCURVE",
"366 524 OFFCURVE",
"355 553 CURVE SMOOTH",
"352 560 OFFCURVE",
"348 563 OFFCURVE",
"344 563 CURVE SMOOTH",
"337 563 OFFCURVE",
"329 553 OFFCURVE",
"329 540 CURVE SMOOTH",
"329 536 OFFCURVE",
"329 532 OFFCURVE",
"331 528 CURVE SMOOTH",
"334 521 OFFCURVE",
"335 513 OFFCURVE",
"335 505 CURVE SMOOTH",
"335 491 OFFCURVE",
"332 476 OFFCURVE",
"326 465 CURVE SMOOTH",
"318 447 OFFCURVE",
"314 442 OFFCURVE",
"308 440 CURVE SMOOTH",
"303 438 OFFCURVE",
"293 438 OFFCURVE",
"285 438 CURVE SMOOTH",
"279 438 OFFCURVE",
"273 438 OFFCURVE",
"270 438 CURVE SMOOTH",
"269 438 LINE",
"267 441 OFFCURVE",
"265 443 OFFCURVE",
"261 445 CURVE",
"257 451 OFFCURVE",
"252 456 OFFCURVE",
"245 458 CURVE",
"241 472 OFFCURVE",
"241 491 OFFCURVE",
"241 508 CURVE SMOOTH",
"241 558 OFFCURVE",
"263 590 OFFCURVE",
"300 608 CURVE",
"306 609 OFFCURVE",
"311 611 OFFCURVE",
"316 615 CURVE",
"332 621 OFFCURVE",
"351 626 OFFCURVE",
"370 626 CURVE SMOOTH",
"371 626 LINE",
"379 620 OFFCURVE",
"385 618 OFFCURVE",
"391 618 CURVE SMOOTH",
"400 618 OFFCURVE",
"409 623 OFFCURVE",
"420 627 CURVE",
"438 627 OFFCURVE",
"454 617 OFFCURVE",
"472 617 CURVE SMOOTH",
"481 617 OFFCURVE",
"496 601 OFFCURVE",
"518 601 CURVE SMOOTH",
"537 601 OFFCURVE",
"555 593 OFFCURVE",
"574 593 CURVE SMOOTH",
"579 593 OFFCURVE",
"582 596 OFFCURVE",
"586 596 CURVE",
"597 593 LINE SMOOTH",
"608 589 OFFCURVE",
"617 585 OFFCURVE",
"629 585 CURVE SMOOTH",
"654 585 OFFCURVE",
"676 605 OFFCURVE",
"685 616 CURVE SMOOTH",
"689 621 OFFCURVE",
"691 625 OFFCURVE",
"691 629 CURVE SMOOTH",
"691 635 OFFCURVE",
"685 640 OFFCURVE",
"679 640 CURVE SMOOTH",
"673 640 OFFCURVE",
"667 638 OFFCURVE",
"661 631 CURVE SMOOTH",
"655 624 OFFCURVE",
"650 612 OFFCURVE",
"640 612 CURVE SMOOTH",
"637 612 OFFCURVE",
"631 615 OFFCURVE",
"625 619 CURVE SMOOTH",
"616 624 LINE SMOOTH",
"610 627 OFFCURVE",
"603 630 OFFCURVE",
"597 631 CURVE",
"594 633 OFFCURVE",
"591 633 OFFCURVE",
"587 633 CURVE SMOOTH",
"583 633 LINE SMOOTH",
"571 634 OFFCURVE",
"558 634 OFFCURVE",
"546 635 CURVE SMOOTH",
"537 637 OFFCURVE",
"528 639 OFFCURVE",
"518 639 CURVE SMOOTH",
"507 639 OFFCURVE",
"494 655 OFFCURVE",
"472 655 CURVE SMOOTH",
"455 655 OFFCURVE",
"440 665 OFFCURVE",
"422 665 CURVE SMOOTH",
"412 665 OFFCURVE",
"404 660 OFFCURVE",
"396 657 CURVE",
"391 657 LINE",
"390 658 LINE SMOOTH",
"384 664 OFFCURVE",
"376 667 OFFCURVE",
"367 667 CURVE SMOOTH",
"357 667 OFFCURVE",
"350 660 OFFCURVE",
"341 660 CURVE SMOOTH",
"337 660 OFFCURVE",
"333 663 OFFCURVE",
"328 663 CURVE SMOOTH",
"308 663 OFFCURVE",
"308 653 OFFCURVE",
"295 646 CURVE",
"289 650 OFFCURVE",
"283 652 OFFCURVE",
"278 652 CURVE SMOOTH",
"266 652 OFFCURVE",
"257 642 OFFCURVE",
"251 629 CURVE",
"229 621 OFFCURVE",
"192 604 OFFCURVE",
"192 577 CURVE SMOOTH",
"192 574 OFFCURVE",
"192 570 OFFCURVE",
"193 567 CURVE",
"180 563 OFFCURVE",
"171 554 OFFCURVE",
"171 543 CURVE SMOOTH",
"171 536 OFFCURVE",
"175 529 OFFCURVE",
"182 523 CURVE",
"173 518 OFFCURVE",
"167 510 OFFCURVE",
"167 500 CURVE SMOOTH",
"167 491 OFFCURVE",
"173 482 OFFCURVE",
"181 478 CURVE",
"181 473 OFFCURVE",
"181 466 OFFCURVE",
"184 453 CURVE",
"192 436 OFFCURVE",
"195 419 OFFCURVE",
"221 419 CURVE SMOOTH",
"224 419 OFFCURVE",
"226 420 OFFCURVE",
"229 421 CURVE",
"231 419 OFFCURVE",
"234 417 OFFCURVE",
"237 416 CURVE",
"242 412 OFFCURVE",
"248 410 OFFCURVE",
"252 410 CURVE SMOOTH",
"253 410 OFFCURVE",
"254 410 OFFCURVE",
"255 410 CURVE",
"260 409 OFFCURVE",
"265 409 OFFCURVE",
"270 409 CURVE SMOOTH"
);
}
);
width = 580;
}
);
note = J;
unicode = 004A;
},
{
glyphname = K;
lastChange = "2021-06-24 05:27:24 +0000";
layers = (
{
anchors = (
{
name = bottom;
position = "{396, -85}";
},
{
name = top;
position = "{548, 660}";
}
);
layerId = "5C71BA0D-BC2C-47B0-9323-6F63B3241D58";
paths = (
{
closed = 1;
nodes = (
"170 -127 OFFCURVE",
"200 -110 OFFCURVE",
"223 -85 CURVE",
"246 -65 OFFCURVE",
"263 -39 OFFCURVE",
"277 -14 CURVE SMOOTH",
"287 2 OFFCURVE",
"295 19 OFFCURVE",
"304 36 CURVE",
"312 44 OFFCURVE",
"319 51 OFFCURVE",
"319 67 CURVE",
"331 96 OFFCURVE",
"342 126 OFFCURVE",
"350 158 CURVE",
"356 156 OFFCURVE",
"364 156 OFFCURVE",
"372 156 CURVE SMOOTH",
"394 156 OFFCURVE",
"415 162 OFFCURVE",
"436 172 CURVE",
"440 169 OFFCURVE",
"445 166 OFFCURVE",
"452 164 CURVE",
"451 162 LINE SMOOTH",
"449 159 OFFCURVE",
"448 155 OFFCURVE",
"448 152 CURVE SMOOTH",
"448 142 OFFCURVE",
"455 132 OFFCURVE",
"462 125 CURVE",
"470 119 OFFCURVE",
"466 103 OFFCURVE",
"490 85 CURVE SMOOTH",
"494 82 LINE",
"490 76 OFFCURVE",
"488 70 OFFCURVE",
"488 65 CURVE SMOOTH",
"488 53 OFFCURVE",
"497 42 OFFCURVE",
"505 31 CURVE",
"527 -30 OFFCURVE",
"536 -27 OFFCURVE",
"572 -45 CURVE",
"578 -56 OFFCURVE",
"590 -59 OFFCURVE",
"603 -63 CURVE SMOOTH",
"606 -64 LINE",
"609 -67 OFFCURVE",
"612 -68 OFFCURVE",
"615 -68 CURVE SMOOTH",
"617 -68 OFFCURVE",
"618 -67 OFFCURVE",
"620 -67 CURVE",
"647 -79 OFFCURVE",
"665 -109 OFFCURVE",
"692 -109 CURVE SMOOTH",
"732 -109 OFFCURVE",
"784 -98 OFFCURVE",
"784 -47 CURVE SMOOTH",
"784 -35 OFFCURVE",
"775 -28 OFFCURVE",
"765 -28 CURVE SMOOTH",
"756 -28 OFFCURVE",
"746 -35 OFFCURVE",
"746 -47 CURVE SMOOTH",
"746 -71 OFFCURVE",
"708 -71 OFFCURVE",
"692 -71 CURVE",
"686 -69 OFFCURVE",
"680 -64 OFFCURVE",
"675 -60 CURVE SMOOTH",
"655 -45 OFFCURVE",
"648 -39 OFFCURVE",
"640 -35 CURVE SMOOTH",
"635 -33 OFFCURVE",
"629 -32 OFFCURVE",
"619 -29 CURVE",
"614 -26 OFFCURVE",
"609 -23 OFFCURVE",
"603 -20 CURVE",
"597 15 OFFCURVE",
"556 15 OFFCURVE",
"554 59 CURVE SMOOTH",
"553 101 OFFCURVE",
"519 141 OFFCURVE",
"492 178 CURVE",
"491 186 OFFCURVE",
"487 190 OFFCURVE",
"482 193 CURVE",
"479 197 LINE",
"490 208 OFFCURVE",
"499 219 OFFCURVE",
"508 231 CURVE SMOOTH",
"519 246 OFFCURVE",
"530 261 OFFCURVE",
"538 276 CURVE SMOOTH",
"549 300 OFFCURVE",
"556 326 OFFCURVE",
"568 349 CURVE",
"569 350 OFFCURVE",
"570 350 OFFCURVE",
"572 351 CURVE SMOOTH",
"596 362 OFFCURVE",
"600 369 OFFCURVE",
"600 378 CURVE SMOOTH",
"600 382 OFFCURVE",
"599 386 OFFCURVE",
"599 391 CURVE",
"610 397 OFFCURVE",
"623 406 OFFCURVE",
"623 423 CURVE SMOOTH",
"623 428 OFFCURVE",
"622 432 OFFCURVE",
"621 437 CURVE",
"643 446 OFFCURVE",
"661 454 OFFCURVE",
"658 482 CURVE",
"681 487 OFFCURVE",
"686 505 OFFCURVE",
"686 525 CURVE SMOOTH",
"686 531 LINE",
"688 531 LINE SMOOTH",
"709 531 OFFCURVE",
"725 539 OFFCURVE",
"725 563 CURVE SMOOTH",
"725 565 LINE",
"742 571 OFFCURVE",
"752 580 OFFCURVE",
"752 595 CURVE SMOOTH",
"752 598 OFFCURVE",
"752 601 OFFCURVE",
"751 604 CURVE",
"762 604 OFFCURVE",
"775 605 OFFCURVE",
"792 626 CURVE",
"803 626 OFFCURVE",
"810 624 OFFCURVE",
"820 620 CURVE SMOOTH",
"823 619 OFFCURVE",
"825 618 OFFCURVE",
"828 618 CURVE SMOOTH",
"839 618 OFFCURVE",
"846 628 OFFCURVE",
"846 637 CURVE SMOOTH",
"846 644 OFFCURVE",
"842 651 OFFCURVE",
"834 654 CURVE SMOOTH",
"820 660 OFFCURVE",
"809 663 OFFCURVE",
"792 663 CURVE SMOOTH",
"782 663 OFFCURVE",
"775 660 OFFCURVE",
"768 654 CURVE",
"767 654 OFFCURVE",
"765 654 OFFCURVE",
"763 653 CURVE SMOOTH",
"752 647 OFFCURVE",
"739 644 OFFCURVE",
"729 639 CURVE",
"725 639 LINE SMOOTH",
"669 639 OFFCURVE",
"662 555 OFFCURVE",
"633 533 CURVE SMOOTH",
"629 530 LINE SMOOTH",
"601 509 OFFCURVE",
"588 458 OFFCURVE",
"569 424 CURVE SMOOTH",
"567 421 OFFCURVE",
"566 418 OFFCURVE",
"565 414 CURVE",
"529 387 OFFCURVE",
"518 315 OFFCURVE",
"483 260 CURVE SMOOTH",
"476 250 OFFCURVE",
"467 241 OFFCURVE",
"459 233 CURVE",
"455 240 OFFCURVE",
"451 248 OFFCURVE",
"446 255 CURVE",
"442 275 OFFCURVE",
"433 292 OFFCURVE",
"403 302 CURVE",
"397 307 OFFCURVE",
"389 310 OFFCURVE",
"381 312 CURVE",
"385 330 OFFCURVE",
"389 348 OFFCURVE",
"392 366 CURVE",
"410 404 OFFCURVE",
"427 447 OFFCURVE",
"427 493 CURVE SMOOTH",
"427 502 OFFCURVE",
"426 513 OFFCURVE",
"420 519 CURVE SMOOTH",
"418 521 LINE",
"422 525 OFFCURVE",
"424 529 OFFCURVE",
"426 534 CURVE SMOOTH",
"428 539 OFFCURVE",
"429 544 OFFCURVE",
"429 547 CURVE SMOOTH",
"429 559 OFFCURVE",
"420 565 OFFCURVE",
"412 570 CURVE",
"415 575 OFFCURVE",
"416 581 OFFCURVE",
"416 587 CURVE SMOOTH",
"416 623 OFFCURVE",
"369 677 OFFCURVE",
"328 677 CURVE SMOOTH",
"325 677 LINE",
"316 679 OFFCURVE",
"307 681 OFFCURVE",
"297 681 CURVE SMOOTH",
"288 681 OFFCURVE",
"280 680 OFFCURVE",
"271 680 CURVE SMOOTH",
"266 680 LINE SMOOTH",
"244 681 OFFCURVE",
"236 683 OFFCURVE",
"220 683 CURVE SMOOTH",
"205 683 OFFCURVE",
"170 675 OFFCURVE",
"166 656 CURVE",
"152 650 LINE",
"146 650 LINE SMOOTH",
"125 650 OFFCURVE",
"89 644 OFFCURVE",
"89 619 CURVE SMOOTH",
"89 616 OFFCURVE",
"89 613 OFFCURVE",
"90 610 CURVE",
"64 588 OFFCURVE",
"42 559 OFFCURVE",
"26 525 CURVE SMOOTH",
"22 516 OFFCURVE",
"21 508 OFFCURVE",
"21 500 CURVE SMOOTH",
"21 494 OFFCURVE",
"22 488 OFFCURVE",
"22 483 CURVE SMOOTH",
"22 480 LINE",
"16 475 OFFCURVE",
"12 469 OFFCURVE",
"12 455 CURVE SMOOTH",
"12 449 OFFCURVE",
"14 445 OFFCURVE",
"18 441 CURVE",
"13 427 OFFCURVE",
"7 415 OFFCURVE",
"7 395 CURVE SMOOTH",
"7 381 OFFCURVE",
"10 363 OFFCURVE",
"16 344 CURVE",
"8 340 OFFCURVE",
"4 335 OFFCURVE",
"4 330 CURVE SMOOTH",
"4 319 OFFCURVE",
"19 308 OFFCURVE",
"32 304 CURVE",
"52 268 OFFCURVE",
"83 237 OFFCURVE",
"130 237 CURVE SMOOTH",
"217 237 OFFCURVE",
"293 265 OFFCURVE",
"293 372 CURVE SMOOTH",
"293 402 OFFCURVE",
"286 446 OFFCURVE",
"260 466 CURVE",
"261 484 OFFCURVE",
"246 491 OFFCURVE",
"232 491 CURVE SMOOTH",
"225 491 OFFCURVE",
"218 487 OFFCURVE",
"211 487 CURVE",
"207 491 OFFCURVE",
"199 497 OFFCURVE",
"186 497 CURVE SMOOTH",
"157 497 OFFCURVE",
"141 475 OFFCURVE",
"141 460 CURVE SMOOTH",
"141 453 OFFCURVE",
"145 447 OFFCURVE",
"154 447 CURVE SMOOTH",
"157 447 OFFCURVE",
"161 448 OFFCURVE",
"166 450 CURVE SMOOTH",
"170 451 OFFCURVE",
"183 460 OFFCURVE",
"186 460 CURVE",
"189 457 LINE SMOOTH",
"195 451 OFFCURVE",
"202 449 OFFCURVE",
"210 449 CURVE SMOOTH",
"214 449 OFFCURVE",
"219 450 OFFCURVE",
"222 451 CURVE",
"229 433 OFFCURVE",
"256 444 OFFCURVE",
"256 372 CURVE SMOOTH",
"256 298 OFFCURVE",
"211 275 OFFCURVE",
"132 275 CURVE SMOOTH",
"127 275 LINE SMOOTH",
"99 278 OFFCURVE",
"78 297 OFFCURVE",
"78 330 CURVE SMOOTH",
"78 344 OFFCURVE",
"71 349 OFFCURVE",
"62 349 CURVE",
"63 353 OFFCURVE",
"64 358 OFFCURVE",
"64 362 CURVE SMOOTH",
"64 371 OFFCURVE",
"62 379 OFFCURVE",
"57 386 CURVE",
"58 393 OFFCURVE",
"58 399 OFFCURVE",
"56 406 CURVE",
"68 415 OFFCURVE",
"74 424 OFFCURVE",
"74 433 CURVE SMOOTH",
"74 441 OFFCURVE",
"69 448 OFFCURVE",
"62 454 CURVE",
"76 457 OFFCURVE",
"86 464 OFFCURVE",
"86 478 CURVE SMOOTH",
"86 485 OFFCURVE",
"84 494 OFFCURVE",
"79 505 CURVE",
"80 507 LINE SMOOTH",
"84 515 OFFCURVE",
"93 524 OFFCURVE",
"93 532 CURVE",
"92 534 LINE",
"106 535 OFFCURVE",
"119 544 OFFCURVE",
"119 559 CURVE SMOOTH",
"119 562 OFFCURVE",
"119 564 OFFCURVE",
"118 567 CURVE SMOOTH",
"117 572 LINE",
"132 574 OFFCURVE",
"141 581 OFFCURVE",
"141 592 CURVE SMOOTH",
"141 595 OFFCURVE",
"141 598 OFFCURVE",
"139 602 CURVE",
"146 606 OFFCURVE",
"154 610 OFFCURVE",
"162 613 CURVE",
"179 614 OFFCURVE",
"197 617 OFFCURVE",
"204 628 CURVE",
"237 637 OFFCURVE",
"268 642 OFFCURVE",
"290 643 CURVE",
"293 641 OFFCURVE",
"297 639 OFFCURVE",
"302 639 CURVE SMOOTH",
"317 639 LINE",
"354 623 OFFCURVE",
"364 562 OFFCURVE",
"367 518 CURVE",
"365 515 OFFCURVE",
"365 511 OFFCURVE",
"367 508 CURVE",
"367 489 LINE SMOOTH",
"367 455 OFFCURVE",
"364 421 OFFCURVE",
"358 388 CURVE",
"342 360 OFFCURVE",
"325 335 OFFCURVE",
"326 305 CURVE",
"305 296 OFFCURVE",
"283 280 OFFCURVE",
"283 259 CURVE SMOOTH",
"283 239 OFFCURVE",
"289 214 OFFCURVE",
"302 194 CURVE",
"301 188 OFFCURVE",
"301 183 OFFCURVE",
"301 178 CURVE SMOOTH",
"300 165 OFFCURVE",
"282 147 OFFCURVE",
"282 129 CURVE SMOOTH",
"282 113 OFFCURVE",
"289 108 OFFCURVE",
"289 102 CURVE SMOOTH",
"289 97 OFFCURVE",
"286 93 OFFCURVE",
"276 83 CURVE SMOOTH",
"242 49 OFFCURVE",
"227 -23 OFFCURVE",
"189 -63 CURVE",
"173 -75 OFFCURVE",
"156 -82 OFFCURVE",
"138 -82 CURVE SMOOTH",
"83 -82 OFFCURVE",
"52 -33 OFFCURVE",
"52 27 CURVE SMOOTH",
"52 51 OFFCURVE",
"64 128 OFFCURVE",
"99 128 CURVE SMOOTH",
"129 128 OFFCURVE",
"144 106 OFFCURVE",
"144 85 CURVE SMOOTH",
"144 73 OFFCURVE",
"139 60 OFFCURVE",
"128 54 CURVE SMOOTH",
"122 50 OFFCURVE",
"119 45 OFFCURVE",
"119 39 CURVE SMOOTH",
"119 29 OFFCURVE",
"128 19 OFFCURVE",
"138 19 CURVE SMOOTH",
"141 19 OFFCURVE",
"145 20 OFFCURVE",
"148 22 CURVE SMOOTH",
"173 37 OFFCURVE",
"184 59 OFFCURVE",
"184 81 CURVE SMOOTH",
"184 120 OFFCURVE",
"150 160 OFFCURVE",
"107 164 CURVE",
"104 166 OFFCURVE",
"101 166 OFFCURVE",
"97 166 CURVE SMOOTH",
"63 166 LINE SMOOTH",
"44 166 OFFCURVE",
"12 109 OFFCURVE",
"18 83 CURVE",
"19 82 LINE",
"8 67 OFFCURVE",
"-1 59 OFFCURVE",
"-1 47 CURVE",
"-6 43 OFFCURVE",
"-10 37 OFFCURVE",
"-10 31 CURVE SMOOTH",
"-10 22 OFFCURVE",
"-2 10 OFFCURVE",
"3 3 CURVE",
"-1 -4 OFFCURVE",
"-3 -13 OFFCURVE",
"-3 -22 CURVE SMOOTH",
"-3 -50 OFFCURVE",
"14 -82 OFFCURVE",
"37 -91 CURVE",
"50 -125 OFFCURVE",
"98 -127 OFFCURVE",
"128 -127 CURVE SMOOTH"
);
},
{
closed = 1;
nodes = (
"321 257 LINE SMOOTH",
"321 258 OFFCURVE",
"322 259 OFFCURVE",
"323 260 CURVE",
"321 252 LINE"
);
},
{
closed = 1;
nodes = (
"367 192 OFFCURVE",
"362 193 OFFCURVE",
"357 195 CURVE",
"362 222 OFFCURVE",
"367 248 OFFCURVE",
"373 275 CURVE",
"375 272 OFFCURVE",
"378 271 OFFCURVE",
"382 270 CURVE SMOOTH",
"384 270 OFFCURVE",
"385 269 OFFCURVE",
"386 269 CURVE",
"396 262 OFFCURVE",
"405 252 OFFCURVE",
"412 240 CURVE",
"416 229 OFFCURVE",
"417 216 OFFCURVE",
"420 204 CURVE",
"405 197 OFFCURVE",
"389 192 OFFCURVE",
"372 192 CURVE SMOOTH"
);
}
);
width = 676;
}
);
note = K;
unicode = 004B;
},
{
glyphname = L;
lastChange = "2021-06-24 05:27:24 +0000";
layers = (
{
anchors = (
{
name = bottom;
position = "{333, -104}";
},
{
name = center;
position = "{335, 344}";
},
{
name = top;
position = "{620, 690}";
},
{
name = topright;
position = "{650, 687}";
}
);
layerId = "5C71BA0D-BC2C-47B0-9323-6F63B3241D58";
paths = (
{
closed = 1;
nodes = (
"600 -146 OFFCURVE",
"666 -78 OFFCURVE",
"666 -17 CURVE SMOOTH",
"666 59 OFFCURVE",
"586 73 OFFCURVE",
"546 73 CURVE SMOOTH",
"502 73 OFFCURVE",
"409 62 OFFCURVE",
"409 0 CURVE SMOOTH",
"409 -16 OFFCURVE",
"417 -31 OFFCURVE",
"431 -39 CURVE SMOOTH",
"441 -44 OFFCURVE",
"450 -47 OFFCURVE",
"458 -47 CURVE SMOOTH",
"474 -47 OFFCURVE",
"483 -37 OFFCURVE",
"483 -27 CURVE SMOOTH",
"483 -20 OFFCURVE",
"478 -13 OFFCURVE",
"467 -11 CURVE SMOOTH",
"460 -9 OFFCURVE",
"454 -9 OFFCURVE",
"447 -5 CURVE",
"447 -5 OFFCURVE",
"446 -3 OFFCURVE",
"446 0 CURVE SMOOTH",
"446 30 OFFCURVE",
"527 36 OFFCURVE",
"546 36 CURVE SMOOTH",
"549 36 OFFCURVE",
"552 35 OFFCURVE",
"555 35 CURVE",
"558 31 OFFCURVE",
"563 27 OFFCURVE",
"570 27 CURVE SMOOTH",
"579 27 LINE",
"579 26 LINE SMOOTH",
"579 21 OFFCURVE",
"580 15 OFFCURVE",
"584 10 CURVE SMOOTH",
"589 3 OFFCURVE",
"594 0 OFFCURVE",
"600 -1 CURVE",
"600 -16 OFFCURVE",
"606 -35 OFFCURVE",
"606 -51 CURVE SMOOTH",
"606 -57 OFFCURVE",
"605 -63 OFFCURVE",
"603 -68 CURVE SMOOTH",
"602 -71 OFFCURVE",
"601 -74 OFFCURVE",
"601 -77 CURVE",
"586 -93 OFFCURVE",
"566 -106 OFFCURVE",
"549 -109 CURVE",
"545 -109 LINE SMOOTH",
"541 -109 OFFCURVE",
"536 -108 OFFCURVE",
"531 -108 CURVE SMOOTH",
"522 -107 OFFCURVE",
"509 -105 OFFCURVE",
"504 -105 CURVE SMOOTH",
"500 -105 OFFCURVE",
"495 -106 OFFCURVE",
"491 -106 CURVE SMOOTH",
"469 -104 OFFCURVE",
"446 -100 OFFCURVE",
"427 -93 CURVE",
"422 -84 OFFCURVE",
"414 -78 OFFCURVE",
"401 -78 CURVE",
"400 -76 OFFCURVE",
"399 -75 OFFCURVE",
"397 -74 CURVE",
"393 -69 LINE SMOOTH",
"376 -48 OFFCURVE",
"370 -53 OFFCURVE",
"348 -48 CURVE",
"345 -45 OFFCURVE",
"343 -41 OFFCURVE",
"341 -37 CURVE SMOOTH",
"317 10 OFFCURVE",
"288 -11 OFFCURVE",
"276 -1 CURVE",
"274 4 LINE",
"281 11 OFFCURVE",
"287 19 OFFCURVE",
"287 25 CURVE SMOOTH",
"287 26 OFFCURVE",
"287 28 OFFCURVE",
"286 29 CURVE",
"302 40 OFFCURVE",
"313 52 OFFCURVE",
"327 80 CURVE",
"337 89 OFFCURVE",
"344 95 OFFCURVE",
"344 110 CURVE SMOOTH",
"344 120 OFFCURVE",
"344 130 OFFCURVE",
"352 171 CURVE",
"352 169 OFFCURVE",
"353 167 OFFCURVE",
"355 165 CURVE",
"354 163 OFFCURVE",
"355 163 OFFCURVE",
"355 161 CURVE",
"363 169 OFFCURVE",
"376 177 OFFCURVE",
"376 189 CURVE SMOOTH",
"376 192 LINE",
"388 192 LINE SMOOTH",
"449 192 OFFCURVE",
"492 213 OFFCURVE",
"535 240 CURVE SMOOTH",
"596 279 OFFCURVE",
"641 262 OFFCURVE",
"666 356 CURVE SMOOTH",
"674 385 OFFCURVE",
"709 393 OFFCURVE",
"709 438 CURVE SMOOTH",
"709 447 OFFCURVE",
"707 456 OFFCURVE",
"705 465 CURVE",
"708 472 OFFCURVE",
"721 478 OFFCURVE",
"725 489 CURVE",
"721 499 LINE",
"726 504 OFFCURVE",
"726 507 OFFCURVE",
"726 510 CURVE SMOOTH",
"726 511 OFFCURVE",
"726 512 OFFCURVE",
"726 512 CURVE SMOOTH",
"726 594 OFFCURVE",
"676 687 OFFCURVE",
"571 687 CURVE SMOOTH",
"543 687 OFFCURVE",
"517 676 OFFCURVE",
"494 660 CURVE SMOOTH",
"491 658 OFFCURVE",
"488 657 OFFCURVE",
"486 655 CURVE",
"453 638 OFFCURVE",
"446 628 OFFCURVE",
"443 608 CURVE",
"432 593 OFFCURVE",
"423 578 OFFCURVE",
"415 561 CURVE",
"404 556 OFFCURVE",
"395 549 OFFCURVE",
"391 531 CURVE SMOOTH",
"376 464 OFFCURVE",
"382 452 OFFCURVE",
"353 392 CURVE SMOOTH",
"341 369 OFFCURVE",
"335 330 OFFCURVE",
"331 325 CURVE SMOOTH",
"321 312 OFFCURVE",
"319 305 OFFCURVE",
"319 298 CURVE SMOOTH",
"319 292 OFFCURVE",
"321 285 OFFCURVE",
"321 274 CURVE",
"312 265 OFFCURVE",
"300 259 OFFCURVE",
"300 243 CURVE SMOOTH",
"300 239 OFFCURVE",
"301 235 OFFCURVE",
"303 232 CURVE",
"249 236 OFFCURVE",
"197 245 OFFCURVE",
"149 262 CURVE SMOOTH",
"139 266 OFFCURVE",
"127 265 OFFCURVE",
"118 270 CURVE",
"95 305 OFFCURVE",
"84 345 OFFCURVE",
"72 385 CURVE",
"72 453 OFFCURVE",
"116 524 OFFCURVE",
"177 525 CURVE",
"181 523 OFFCURVE",
"185 521 OFFCURVE",
"191 521 CURVE SMOOTH",
"199 521 OFFCURVE",
"206 525 OFFCURVE",
"210 528 CURVE",
"214 522 OFFCURVE",
"220 520 OFFCURVE",
"226 520 CURVE SMOOTH",
"235 520 OFFCURVE",
"243 525 OFFCURVE",
"244 535 CURVE",
"265 535 OFFCURVE",
"287 520 OFFCURVE",
"287 499 CURVE SMOOTH",
"287 497 OFFCURVE",
"280 467 OFFCURVE",
"277 463 CURVE",
"256 450 OFFCURVE",
"257 451 OFFCURVE",
"249 426 CURVE",
"249 424 LINE",
"237 425 OFFCURVE",
"218 413 OFFCURVE",
"218 403 CURVE SMOOTH",
"218 397 OFFCURVE",
"223 392 OFFCURVE",
"236 389 CURVE SMOOTH",
"242 388 OFFCURVE",
"247 387 OFFCURVE",
"251 387 CURVE SMOOTH",
"274 387 OFFCURVE",
"280 404 OFFCURVE",
"288 428 CURVE",
"314 443 OFFCURVE",
"324 467 OFFCURVE",
"324 499 CURVE SMOOTH",
"324 550 OFFCURVE",
"274 573 OFFCURVE",
"243 573 CURVE SMOOTH",
"239 573 OFFCURVE",
"234 572 OFFCURVE",
"230 570 CURVE",
"226 573 OFFCURVE",
"221 575 OFFCURVE",
"215 575 CURVE SMOOTH",
"206 575 OFFCURVE",
"199 569 OFFCURVE",
"193 563 CURVE SMOOTH",
"190 560 LINE",
"187 561 OFFCURVE",
"183 563 OFFCURVE",
"179 563 CURVE SMOOTH",
"86 563 OFFCURVE",
"35 462 OFFCURVE",
"35 385 CURVE SMOOTH",
"35 381 OFFCURVE",
"36 378 OFFCURVE",
"37 376 CURVE",
"49 333 OFFCURVE",
"68 240 OFFCURVE",
"117 231 CURVE SMOOTH",
"211 214 OFFCURVE",
"234 201 OFFCURVE",
"290 195 CURVE",
"282 174 OFFCURVE",
"278 147 OFFCURVE",
"271 130 CURVE",
"236 110 OFFCURVE",
"253 95 OFFCURVE",
"227 64 CURVE SMOOTH",
"222 59 OFFCURVE",
"216 47 OFFCURVE",
"211 35 CURVE",
"178 39 OFFCURVE",
"156 67 OFFCURVE",
"119 67 CURVE SMOOTH",
"106 67 OFFCURVE",
"101 71 OFFCURVE",
"85 71 CURVE SMOOTH",
"79 71 OFFCURVE",
"70 68 OFFCURVE",
"64 67 CURVE SMOOTH",
"63 67 OFFCURVE",
"62 67 OFFCURVE",
"61 66 CURVE",
"27 65 OFFCURVE",
"-3 53 OFFCURVE",
"-3 12 CURVE SMOOTH",
"-3 -41 OFFCURVE",
"44 -65 OFFCURVE",
"89 -65 CURVE SMOOTH",
"125 -65 OFFCURVE",
"158 -36 OFFCURVE",
"195 -36 CURVE SMOOTH",
"198 -36 OFFCURVE",
"202 -36 OFFCURVE",
"206 -35 CURVE",
"214 -41 LINE SMOOTH",
"218 -44 OFFCURVE",
"222 -46 OFFCURVE",
"226 -48 CURVE",
"237 -61 OFFCURVE",
"252 -73 OFFCURVE",
"266 -73 CURVE SMOOTH",
"277 -73 OFFCURVE",
"293 -97 OFFCURVE",
"322 -97 CURVE SMOOTH",
"328 -97 OFFCURVE",
"331 -96 OFFCURVE",
"334 -95 CURVE SMOOTH",
"336 -94 LINE",
"337 -95 LINE SMOOTH",
"342 -100 OFFCURVE",
"347 -100 OFFCURVE",
"352 -100 CURVE",
"362 -104 OFFCURVE",
"374 -109 OFFCURVE",
"386 -112 CURVE",
"390 -116 OFFCURVE",
"396 -119 OFFCURVE",
"401 -122 CURVE",
"414 -140 OFFCURVE",
"438 -144 OFFCURVE",
"462 -144 CURVE SMOOTH",
"471 -144 OFFCURVE",
"479 -143 OFFCURVE",
"487 -143 CURVE",
"503 -145 OFFCURVE",
"518 -145 OFFCURVE",
"532 -145 CURVE",
"537 -146 OFFCURVE",
"540 -146 OFFCURVE",
"541 -146 CURVE SMOOTH"
);
},
{
closed = 1;
nodes = (
"54 -28 OFFCURVE",
"34 -11 OFFCURVE",
"34 12 CURVE SMOOTH",
"34 30 OFFCURVE",
"52 30 OFFCURVE",
"66 30 CURVE SMOOTH",
"104 30 OFFCURVE",
"134 15 OFFCURVE",
"162 -4 CURVE",
"134 -12 OFFCURVE",
"108 -28 OFFCURVE",
"89 -28 CURVE SMOOTH"
);
},
{
closed = 1;
nodes = (
"378 229 LINE",
"384 235 OFFCURVE",
"387 243 OFFCURVE",
"387 252 CURVE SMOOTH",
"387 266 OFFCURVE",
"374 295 OFFCURVE",
"380 305 CURVE SMOOTH",
"391 328 OFFCURVE",
"401 352 OFFCURVE",
"408 379 CURVE",
"421 400 OFFCURVE",
"416 420 OFFCURVE",
"420 447 CURVE",
"421 449 OFFCURVE",
"421 451 OFFCURVE",
"420 453 CURVE",
"420 455 LINE SMOOTH",
"420 480 OFFCURVE",
"430 508 OFFCURVE",
"443 535 CURVE",
"472 552 OFFCURVE",
"477 563 OFFCURVE",
"477 573 CURVE SMOOTH",
"477 579 OFFCURVE",
"476 584 OFFCURVE",
"476 590 CURVE",
"488 605 OFFCURVE",
"501 618 OFFCURVE",
"515 629 CURVE",
"519 631 LINE SMOOTH",
"525 634 OFFCURVE",
"529 637 OFFCURVE",
"533 640 CURVE",
"545 646 OFFCURVE",
"558 650 OFFCURVE",
"571 650 CURVE SMOOTH",
"645 650 OFFCURVE",
"687 586 OFFCURVE",
"689 518 CURVE",
"687 514 OFFCURVE",
"683 506 OFFCURVE",
"683 500 CURVE SMOOTH",
"683 498 OFFCURVE",
"683 497 OFFCURVE",
"684 496 CURVE",
"681 493 LINE SMOOTH",
"670 482 OFFCURVE",
"667 475 OFFCURVE",
"667 467 CURVE SMOOTH",
"667 458 OFFCURVE",
"672 450 OFFCURVE",
"672 438 CURVE SMOOTH",
"672 423 OFFCURVE",
"661 413 OFFCURVE",
"651 403 CURVE SMOOTH",
"612 360 OFFCURVE",
"643 325 OFFCURVE",
"569 297 CURVE SMOOTH",
"508 272 OFFCURVE",
"458 228 OFFCURVE",
"388 228 CURVE"
);
}
);
width = 670;
}
);
note = L;
unicode = 004C;
},
{
color = 11;
glyphname = Lslash;
lastChange = "2021-06-24 05:27:24 +0000";
layers = (
{
layerId = "5C71BA0D-BC2C-47B0-9323-6F63B3241D58";
paths = (
{
closed = 1;
nodes = (
"600 -146 OFFCURVE",
"666 -78 OFFCURVE",
"666 -17 CURVE SMOOTH",
"666 59 OFFCURVE",
"586 73 OFFCURVE",
"546 73 CURVE SMOOTH",
"502 73 OFFCURVE",
"409 62 OFFCURVE",
"409 0 CURVE SMOOTH",
"409 -16 OFFCURVE",
"417 -31 OFFCURVE",
"431 -39 CURVE SMOOTH",
"441 -44 OFFCURVE",
"450 -47 OFFCURVE",
"458 -47 CURVE SMOOTH",
"474 -47 OFFCURVE",
"483 -37 OFFCURVE",
"483 -27 CURVE SMOOTH",
"483 -20 OFFCURVE",
"478 -13 OFFCURVE",
"467 -11 CURVE SMOOTH",
"460 -9 OFFCURVE",
"454 -9 OFFCURVE",
"447 -5 CURVE",
"447 -5 OFFCURVE",
"446 -3 OFFCURVE",
"446 0 CURVE SMOOTH",
"446 30 OFFCURVE",
"527 36 OFFCURVE",
"546 36 CURVE SMOOTH",
"549 36 OFFCURVE",
"552 35 OFFCURVE",
"555 35 CURVE",
"558 31 OFFCURVE",
"563 27 OFFCURVE",
"570 27 CURVE SMOOTH",
"579 27 LINE",
"579 26 LINE SMOOTH",
"580 21 OFFCURVE",
"580 15 OFFCURVE",
"584 10 CURVE SMOOTH",
"589 3 OFFCURVE",
"594 0 OFFCURVE",
"600 -1 CURVE",
"600 -16 OFFCURVE",
"606 -35 OFFCURVE",
"606 -51 CURVE SMOOTH",
"606 -57 OFFCURVE",
"605 -63 OFFCURVE",
"603 -68 CURVE SMOOTH",
"602 -71 OFFCURVE",
"601 -74 OFFCURVE",
"601 -77 CURVE",
"586 -93 OFFCURVE",
"566 -106 OFFCURVE",
"549 -109 CURVE",
"545 -109 LINE SMOOTH",
"541 -109 OFFCURVE",
"536 -108 OFFCURVE",
"531 -108 CURVE SMOOTH",
"522 -107 OFFCURVE",
"509 -105 OFFCURVE",
"504 -105 CURVE SMOOTH",
"500 -105 OFFCURVE",
"495 -106 OFFCURVE",
"491 -106 CURVE SMOOTH",
"469 -104 OFFCURVE",
"446 -100 OFFCURVE",
"427 -93 CURVE",
"422 -84 OFFCURVE",
"414 -78 OFFCURVE",
"401 -78 CURVE",
"400 -76 OFFCURVE",
"399 -75 OFFCURVE",
"397 -74 CURVE",
"393 -69 LINE SMOOTH",
"376 -48 OFFCURVE",
"370 -53 OFFCURVE",
"348 -48 CURVE",
"345 -45 OFFCURVE",
"343 -41 OFFCURVE",
"341 -37 CURVE SMOOTH",
"317 10 OFFCURVE",
"288 -11 OFFCURVE",
"276 -1 CURVE",
"274 4 LINE",
"281 11 OFFCURVE",
"287 19 OFFCURVE",
"287 25 CURVE SMOOTH",
"287 26 OFFCURVE",
"287 28 OFFCURVE",
"286 29 CURVE",
"302 40 OFFCURVE",
"313 52 OFFCURVE",
"327 80 CURVE",
"337 89 OFFCURVE",
"344 95 OFFCURVE",
"344 110 CURVE SMOOTH",
"344 120 OFFCURVE",
"344 130 OFFCURVE",
"352 171 CURVE",
"352 169 OFFCURVE",
"353 167 OFFCURVE",
"355 165 CURVE",
"354 163 OFFCURVE",
"355 163 OFFCURVE",
"355 161 CURVE",
"363 169 OFFCURVE",
"377 177 OFFCURVE",
"376 189 CURVE SMOOTH",
"376 192 LINE",
"388 192 LINE SMOOTH",
"449 191 OFFCURVE",
"492 213 OFFCURVE",
"535 240 CURVE SMOOTH",
"596 279 OFFCURVE",
"641 262 OFFCURVE",
"666 356 CURVE SMOOTH",
"674 385 OFFCURVE",
"709 393 OFFCURVE",
"709 438 CURVE SMOOTH",
"709 447 OFFCURVE",
"707 456 OFFCURVE",
"705 465 CURVE",
"708 472 OFFCURVE",
"721 478 OFFCURVE",
"725 489 CURVE",
"721 499 LINE",
"726 504 OFFCURVE",
"726 507 OFFCURVE",
"726 510 CURVE SMOOTH",
"726 511 OFFCURVE",
"726 512 OFFCURVE",
"726 512 CURVE SMOOTH",
"726 594 OFFCURVE",
"676 687 OFFCURVE",
"571 687 CURVE SMOOTH",
"543 687 OFFCURVE",
"517 676 OFFCURVE",
"494 660 CURVE SMOOTH",
"491 658 OFFCURVE",
"488 657 OFFCURVE",
"486 655 CURVE",
"453 638 OFFCURVE",
"446 628 OFFCURVE",
"443 608 CURVE",
"432 593 OFFCURVE",
"423 578 OFFCURVE",
"415 561 CURVE",
"404 556 OFFCURVE",
"395 549 OFFCURVE",
"391 531 CURVE SMOOTH",
"376 464 OFFCURVE",
"382 452 OFFCURVE",
"353 392 CURVE SMOOTH",
"341 369 OFFCURVE",
"335 330 OFFCURVE",
"331 325 CURVE SMOOTH",
"321 312 OFFCURVE",
"319 305 OFFCURVE",
"319 298 CURVE SMOOTH",
"319 292 OFFCURVE",
"321 285 OFFCURVE",
"321 274 CURVE",
"312 265 OFFCURVE",
"300 259 OFFCURVE",
"300 243 CURVE SMOOTH",
"300 239 OFFCURVE",
"301 235 OFFCURVE",
"303 232 CURVE",
"249 236 OFFCURVE",
"197 245 OFFCURVE",
"149 262 CURVE SMOOTH",
"139 266 OFFCURVE",
"127 265 OFFCURVE",
"118 270 CURVE",
"95 305 OFFCURVE",
"84 345 OFFCURVE",
"72 385 CURVE",
"72 453 OFFCURVE",
"116 524 OFFCURVE",
"177 525 CURVE",
"181 523 OFFCURVE",
"185 521 OFFCURVE",
"191 521 CURVE SMOOTH",
"199 521 OFFCURVE",
"206 525 OFFCURVE",
"210 528 CURVE",
"214 522 OFFCURVE",
"220 520 OFFCURVE",
"226 520 CURVE SMOOTH",
"235 520 OFFCURVE",
"243 525 OFFCURVE",
"244 535 CURVE",
"265 535 OFFCURVE",
"287 520 OFFCURVE",
"287 499 CURVE SMOOTH",
"287 497 OFFCURVE",
"280 467 OFFCURVE",
"277 463 CURVE",
"256 450 OFFCURVE",
"257 451 OFFCURVE",
"249 426 CURVE",
"249 424 LINE",
"237 425 OFFCURVE",
"218 413 OFFCURVE",
"218 403 CURVE SMOOTH",
"218 397 OFFCURVE",
"223 392 OFFCURVE",
"236 389 CURVE SMOOTH",
"242 388 OFFCURVE",
"247 387 OFFCURVE",
"251 387 CURVE SMOOTH",
"274 387 OFFCURVE",
"280 404 OFFCURVE",
"288 428 CURVE",
"314 443 OFFCURVE",
"324 467 OFFCURVE",
"324 499 CURVE SMOOTH",
"324 550 OFFCURVE",
"274 573 OFFCURVE",
"243 573 CURVE SMOOTH",
"239 573 OFFCURVE",
"234 572 OFFCURVE",
"230 570 CURVE",
"226 573 OFFCURVE",
"221 575 OFFCURVE",
"215 575 CURVE SMOOTH",
"206 575 OFFCURVE",
"198 570 OFFCURVE",
"193 563 CURVE SMOOTH",
"190 560 LINE",
"187 561 OFFCURVE",
"183 563 OFFCURVE",
"179 563 CURVE SMOOTH",
"86 563 OFFCURVE",
"35 462 OFFCURVE",
"35 385 CURVE SMOOTH",
"35 381 OFFCURVE",
"36 378 OFFCURVE",
"37 376 CURVE",
"49 333 OFFCURVE",
"68 240 OFFCURVE",
"117 231 CURVE SMOOTH",
"211 214 OFFCURVE",
"234 201 OFFCURVE",
"290 195 CURVE",
"282 174 OFFCURVE",
"278 147 OFFCURVE",
"271 130 CURVE",
"236 110 OFFCURVE",
"253 95 OFFCURVE",
"227 64 CURVE SMOOTH",
"222 59 OFFCURVE",
"216 47 OFFCURVE",
"211 35 CURVE",
"178 39 OFFCURVE",
"156 67 OFFCURVE",
"119 67 CURVE SMOOTH",
"106 67 OFFCURVE",
"101 71 OFFCURVE",
"85 71 CURVE SMOOTH",
"79 71 OFFCURVE",
"70 68 OFFCURVE",
"64 67 CURVE SMOOTH",
"63 67 OFFCURVE",
"62 67 OFFCURVE",
"61 66 CURVE",
"27 65 OFFCURVE",
"-3 53 OFFCURVE",
"-3 12 CURVE SMOOTH",
"-3 -41 OFFCURVE",
"44 -65 OFFCURVE",
"89 -65 CURVE SMOOTH",
"125 -65 OFFCURVE",
"158 -36 OFFCURVE",
"195 -36 CURVE SMOOTH",
"198 -36 OFFCURVE",
"202 -36 OFFCURVE",
"206 -35 CURVE",
"214 -41 LINE SMOOTH",
"218 -44 OFFCURVE",
"222 -46 OFFCURVE",
"226 -48 CURVE",
"237 -61 OFFCURVE",
"252 -73 OFFCURVE",
"266 -73 CURVE SMOOTH",
"277 -73 OFFCURVE",
"293 -97 OFFCURVE",
"322 -97 CURVE SMOOTH",
"328 -97 OFFCURVE",
"331 -96 OFFCURVE",
"334 -95 CURVE SMOOTH",
"336 -94 LINE",
"337 -95 LINE SMOOTH",
"342 -99 OFFCURVE",
"347 -100 OFFCURVE",
"352 -100 CURVE",
"362 -104 OFFCURVE",
"374 -109 OFFCURVE",
"386 -112 CURVE",
"390 -116 OFFCURVE",
"396 -119 OFFCURVE",
"401 -122 CURVE",
"414 -140 OFFCURVE",
"438 -144 OFFCURVE",
"462 -144 CURVE SMOOTH",
"471 -144 OFFCURVE",
"479 -143 OFFCURVE",
"487 -143 CURVE",
"503 -145 OFFCURVE",
"518 -145 OFFCURVE",
"532 -145 CURVE",
"537 -146 OFFCURVE",
"540 -146 OFFCURVE",
"541 -146 CURVE SMOOTH"
);
},
{
closed = 1;
nodes = (
"54 -28 OFFCURVE",
"34 -11 OFFCURVE",
"34 12 CURVE SMOOTH",
"34 30 OFFCURVE",
"52 30 OFFCURVE",
"66 30 CURVE SMOOTH",
"104 30 OFFCURVE",
"134 15 OFFCURVE",
"162 -4 CURVE",
"134 -12 OFFCURVE",
"108 -28 OFFCURVE",
"89 -28 CURVE SMOOTH"
);
},
{
closed = 1;
nodes = (
"199 96 OFFCURVE",
"210 96 OFFCURVE",
"227 96 CURVE SMOOTH",
"241 96 OFFCURVE",
"371 103 OFFCURVE",
"391 103 CURVE SMOOTH",
"399 103 OFFCURVE",
"405 106 OFFCURVE",
"412 108 CURVE SMOOTH",
"415 109 OFFCURVE",
"418 109 OFFCURVE",
"420 109 CURVE SMOOTH",
"427 109 OFFCURVE",
"431 116 OFFCURVE",
"431 123 CURVE SMOOTH",
"431 129 OFFCURVE",
"427 136 OFFCURVE",
"420 136 CURVE SMOOTH",
"416 136 OFFCURVE",
"412 134 OFFCURVE",
"407 133 CURVE SMOOTH",
"402 131 OFFCURVE",
"397 129 OFFCURVE",
"391 129 CURVE SMOOTH",
"371 129 OFFCURVE",
"249 134 OFFCURVE",
"235 134 CURVE SMOOTH",
"216 134 OFFCURVE",
"205 134 OFFCURVE",
"187 131 CURVE SMOOTH",
"179 130 OFFCURVE",
"174 119 OFFCURVE",
"174 106 CURVE SMOOTH",
"174 98 OFFCURVE",
"177 94 OFFCURVE",
"181 94 CURVE SMOOTH",
"181 94 OFFCURVE",
"182 94 OFFCURVE",
"182 94 CURVE SMOOTH"
);
},
{
closed = 1;
nodes = (
"378 229 LINE",
"384 235 OFFCURVE",
"387 243 OFFCURVE",
"387 252 CURVE SMOOTH",
"387 266 OFFCURVE",
"374 295 OFFCURVE",
"380 305 CURVE SMOOTH",
"391 328 OFFCURVE",
"401 352 OFFCURVE",
"408 379 CURVE",
"421 400 OFFCURVE",
"416 420 OFFCURVE",
"420 447 CURVE",
"421 449 OFFCURVE",
"421 451 OFFCURVE",
"420 453 CURVE",
"420 455 LINE SMOOTH",
"422 480 OFFCURVE",
"430 508 OFFCURVE",
"443 535 CURVE",
"472 552 OFFCURVE",
"477 563 OFFCURVE",
"477 573 CURVE SMOOTH",
"477 579 OFFCURVE",
"476 584 OFFCURVE",
"476 590 CURVE",
"488 605 OFFCURVE",
"501 618 OFFCURVE",
"515 629 CURVE",
"519 631 LINE SMOOTH",
"525 634 OFFCURVE",
"529 637 OFFCURVE",
"533 640 CURVE",
"545 646 OFFCURVE",
"558 650 OFFCURVE",
"571 650 CURVE SMOOTH",
"645 650 OFFCURVE",
"687 586 OFFCURVE",
"689 518 CURVE",
"687 514 OFFCURVE",
"683 506 OFFCURVE",
"683 500 CURVE SMOOTH",
"683 498 OFFCURVE",
"683 497 OFFCURVE",
"684 496 CURVE",
"681 493 LINE SMOOTH",
"671 482 OFFCURVE",
"668 474 OFFCURVE",
"668 467 CURVE SMOOTH",
"668 458 OFFCURVE",
"672 450 OFFCURVE",
"672 438 CURVE SMOOTH",
"672 423 OFFCURVE",
"661 413 OFFCURVE",
"651 403 CURVE SMOOTH",
"612 360 OFFCURVE",
"643 325 OFFCURVE",
"569 297 CURVE SMOOTH",
"508 272 OFFCURVE",
"458 228 OFFCURVE",
"388 228 CURVE"
);
}
);
width = 670;
}
);
note = Lslash;
unicode = 0141;
},
{
glyphname = M;
lastChange = "2021-06-24 05:27:24 +0000";
layers = (
{
anchors = (
{
name = bottom;
position = "{640, -72}";
},
{
name = top;
position = "{688, 536}";
}
);
layerId = "5C71BA0D-BC2C-47B0-9323-6F63B3241D58";
paths = (
{
closed = 1;
nodes = (
"917 -183 OFFCURVE",
"939 -162 OFFCURVE",
"939 -119 CURVE SMOOTH",
"939 -81 OFFCURVE",
"920 -59 OFFCURVE",
"874 -63 CURVE SMOOTH",
"863 -64 OFFCURVE",
"858 -72 OFFCURVE",
"858 -81 CURVE SMOOTH",
"858 -91 OFFCURVE",
"865 -101 OFFCURVE",
"878 -99 CURVE SMOOTH",
"900 -97 OFFCURVE",
"902 -101 OFFCURVE",
"902 -119 CURVE SMOOTH",
"902 -140 OFFCURVE",
"899 -146 OFFCURVE",
"871 -146 CURVE SMOOTH",
"868 -146 OFFCURVE",
"865 -145 OFFCURVE",
"863 -144 CURVE",
"857 -138 OFFCURVE",
"851 -131 OFFCURVE",
"847 -124 CURVE",
"839 -103 OFFCURVE",
"839 -73 OFFCURVE",
"839 -60 CURVE SMOOTH",
"839 -59 LINE SMOOTH",
"839 -27 OFFCURVE",
"844 6 OFFCURVE",
"851 39 CURVE SMOOTH",
"860 85 OFFCURVE",
"878 129 OFFCURVE",
"878 176 CURVE SMOOTH",
"878 182 OFFCURVE",
"878 186 OFFCURVE",
"881 192 CURVE",
"901 210 OFFCURVE",
"905 226 OFFCURVE",
"905 239 CURVE SMOOTH",
"905 251 OFFCURVE",
"902 261 OFFCURVE",
"902 270 CURVE SMOOTH",
"902 276 OFFCURVE",
"904 283 OFFCURVE",
"910 289 CURVE SMOOTH",
"941 322 OFFCURVE",
"936 323 OFFCURVE",
"936 367 CURVE SMOOTH",
"936 383 OFFCURVE",
"933 400 OFFCURVE",
"924 415 CURVE",
"925 436 OFFCURVE",
"882 452 OFFCURVE",
"858 452 CURVE SMOOTH",
"855 452 OFFCURVE",
"853 451 OFFCURVE",
"851 450 CURVE",
"805 448 OFFCURVE",
"766 433 OFFCURVE",
"734 405 CURVE",
"731 411 OFFCURVE",
"726 416 OFFCURVE",
"719 421 CURVE SMOOTH",
"699 436 OFFCURVE",
"690 455 OFFCURVE",
"680 473 CURVE",
"685 490 OFFCURVE",
"668 515 OFFCURVE",
"640 515 CURVE SMOOTH",
"637 515 OFFCURVE",
"634 514 OFFCURVE",
"630 514 CURVE",
"623 516 OFFCURVE",
"615 516 OFFCURVE",
"605 516 CURVE SMOOTH",
"553 516 OFFCURVE",
"533 477 OFFCURVE",
"524 431 CURVE",
"512 390 OFFCURVE",
"517 350 OFFCURVE",
"507 305 CURVE SMOOTH",
"504 292 LINE",
"502 294 OFFCURVE",
"500 297 OFFCURVE",
"497 299 CURVE",
"498 302 OFFCURVE",
"499 306 OFFCURVE",
"499 312 CURVE SMOOTH",
"499 342 OFFCURVE",
"482 403 OFFCURVE",
"464 411 CURVE SMOOTH",
"462 412 OFFCURVE",
"460 414 OFFCURVE",
"458 416 CURVE",
"453 449 OFFCURVE",
"442 469 OFFCURVE",
"421 493 CURVE SMOOTH",
"414 501 LINE SMOOTH",
"406 511 OFFCURVE",
"397 522 OFFCURVE",
"388 531 CURVE SMOOTH",
"353 569 OFFCURVE",
"317 601 OFFCURVE",
"261 607 CURVE",
"248 611 OFFCURVE",
"236 613 OFFCURVE",
"224 613 CURVE SMOOTH",
"214 613 OFFCURVE",
"208 611 OFFCURVE",
"198 609 CURVE",
"186 612 LINE",
"183 615 OFFCURVE",
"178 616 OFFCURVE",
"174 616 CURVE SMOOTH",
"171 616 OFFCURVE",
"167 616 OFFCURVE",
"164 614 CURVE",
"162 614 LINE SMOOTH",
"83 614 OFFCURVE",
"48 529 OFFCURVE",
"3 481 CURVE SMOOTH",
"-15 463 OFFCURVE",
"-10 440 OFFCURVE",
"-18 419 CURVE",
"-21 418 LINE SMOOTH",
"-33 414 OFFCURVE",
"-43 404 OFFCURVE",
"-43 391 CURVE SMOOTH",
"-43 387 OFFCURVE",
"-42 383 OFFCURVE",
"-40 379 CURVE",
"-40 378 LINE",
"-45 374 OFFCURVE",
"-49 368 OFFCURVE",
"-49 361 CURVE SMOOTH",
"-49 328 OFFCURVE",
"-28 301 OFFCURVE",
"-31 269 CURVE SMOOTH",
"-37 187 OFFCURVE",
"-5 189 OFFCURVE",
"16 177 CURVE",
"20 170 OFFCURVE",
"25 164 OFFCURVE",
"29 158 CURVE",
"29 137 OFFCURVE",
"37 119 OFFCURVE",
"63 123 CURVE SMOOTH",
"85 127 OFFCURVE",
"104 113 OFFCURVE",
"126 113 CURVE SMOOTH",
"145 113 OFFCURVE",
"156 116 OFFCURVE",
"175 116 CURVE SMOOTH",
"191 116 OFFCURVE",
"206 118 OFFCURVE",
"220 121 CURVE SMOOTH",
"224 122 OFFCURVE",
"228 122 OFFCURVE",
"231 123 CURVE SMOOTH",
"272 132 OFFCURVE",
"295 148 OFFCURVE",
"308 168 CURVE",
"325 184 OFFCURVE",
"339 203 OFFCURVE",
"350 223 CURVE SMOOTH",
"354 231 OFFCURVE",
"356 238 OFFCURVE",
"356 244 CURVE SMOOTH",
"356 261 OFFCURVE",
"346 272 OFFCURVE",
"347 286 CURVE",
"350 288 OFFCURVE",
"359 296 OFFCURVE",
"359 308 CURVE SMOOTH",
"359 326 OFFCURVE",
"343 332 OFFCURVE",
"338 333 CURVE",
"336 334 LINE",
"336 335 LINE SMOOTH",
"336 346 OFFCURVE",
"331 361 OFFCURVE",
"311 367 CURVE SMOOTH",
"300 370 OFFCURVE",
"290 374 OFFCURVE",
"280 377 CURVE",
"269 383 OFFCURVE",
"256 387 OFFCURVE",
"242 387 CURVE SMOOTH",
"212 387 OFFCURVE",
"147 363 OFFCURVE",
"147 304 CURVE SMOOTH",
"147 286 OFFCURVE",
"152 275 OFFCURVE",
"160 261 CURVE SMOOTH",
"164 254 OFFCURVE",
"170 251 OFFCURVE",
"175 251 CURVE SMOOTH",
"185 251 OFFCURVE",
"195 259 OFFCURVE",
"195 270 CURVE SMOOTH",
"195 273 OFFCURVE",
"194 276 OFFCURVE",
"192 279 CURVE SMOOTH",
"186 289 OFFCURVE",
"184 294 OFFCURVE",
"184 304 CURVE SMOOTH",
"184 329 OFFCURVE",
"213 347 OFFCURVE",
"236 349 CURVE",
"239 346 OFFCURVE",
"244 344 OFFCURVE",
"249 344 CURVE SMOOTH",
"254 344 OFFCURVE",
"260 344 OFFCURVE",
"265 343 CURVE",
"278 334 OFFCURVE",
"288 317 OFFCURVE",
"288 298 CURVE SMOOTH",
"288 286 OFFCURVE",
"289 273 OFFCURVE",
"289 259 CURVE SMOOTH",
"289 235 OFFCURVE",
"287 210 OFFCURVE",
"278 191 CURVE SMOOTH",
"277 189 OFFCURVE",
"277 188 OFFCURVE",
"275 186 CURVE",
"249 170 OFFCURVE",
"217 159 OFFCURVE",
"194 155 CURVE SMOOTH",
"176 153 OFFCURVE",
"158 153 OFFCURVE",
"147 153 CURVE SMOOTH",
"131 153 OFFCURVE",
"90 157 OFFCURVE",
"74 164 CURVE",
"71 166 OFFCURVE",
"69 169 OFFCURVE",
"67 172 CURVE",
"65 187 OFFCURVE",
"57 195 OFFCURVE",
"46 200 CURVE",
"26 236 OFFCURVE",
"14 283 OFFCURVE",
"14 324 CURVE SMOOTH",
"14 446 OFFCURVE",
"90 504 OFFCURVE",
"173 574 CURVE",
"176 572 OFFCURVE",
"180 572 OFFCURVE",
"184 572 CURVE SMOOTH",
"190 572 OFFCURVE",
"194 572 OFFCURVE",
"198 572 CURVE SMOOTH",
"209 572 LINE",
"238 572 LINE SMOOTH",
"246 572 OFFCURVE",
"254 571 OFFCURVE",
"262 570 CURVE",
"320 552 OFFCURVE",
"375 497 OFFCURVE",
"403 445 CURVE SMOOTH",
"410 432 OFFCURVE",
"405 410 OFFCURVE",
"413 392 CURVE SMOOTH",
"443 326 OFFCURVE",
"446 242 OFFCURVE",
"446 157 CURVE SMOOTH",
"446 140 LINE SMOOTH",
"446 64 OFFCURVE",
"413 -7 OFFCURVE",
"413 -83 CURVE SMOOTH",
"413 -93 OFFCURVE",
"422 -102 OFFCURVE",
"432 -102 CURVE SMOOTH",
"433 -102 OFFCURVE",
"435 -101 OFFCURVE",
"438 -101 CURVE SMOOTH",
"446 -100 LINE SMOOTH",
"505 -93 OFFCURVE",
"516 -85 OFFCURVE",
"516 -60 CURVE SMOOTH",
"516 -45 OFFCURVE",
"512 -23 OFFCURVE",
"512 9 CURVE SMOOTH",
"512 106 OFFCURVE",
"534 199 OFFCURVE",
"549 295 CURVE SMOOTH",
"553 318 OFFCURVE",
"550 375 OFFCURVE",
"559 420 CURVE",
"566 442 OFFCURVE",
"578 461 OFFCURVE",
"601 471 CURVE",
"603 468 LINE SMOOTH",
"612 454 OFFCURVE",
"628 446 OFFCURVE",
"640 433 CURVE SMOOTH",
"650 421 OFFCURVE",
"651 413 OFFCURVE",
"651 407 CURVE SMOOTH",
"651 405 OFFCURVE",
"651 403 OFFCURVE",
"651 401 CURVE SMOOTH",
"651 395 OFFCURVE",
"653 389 OFFCURVE",
"669 382 CURVE",
"674 363 OFFCURVE",
"675 349 OFFCURVE",
"681 331 CURVE",
"631 249 OFFCURVE",
"599 222 OFFCURVE",
"599 99 CURVE SMOOTH",
"599 76 OFFCURVE",
"606 5 OFFCURVE",
"642 5 CURVE SMOOTH",
"717 5 OFFCURVE",
"739 59 OFFCURVE",
"739 116 CURVE SMOOTH",
"739 135 OFFCURVE",
"737 155 OFFCURVE",
"733 173 CURVE",
"733 177 OFFCURVE",
"733 180 OFFCURVE",
"731 183 CURVE",
"729 191 LINE",
"729 195 OFFCURVE",
"729 198 OFFCURVE",
"728 202 CURVE",
"742 221 OFFCURVE",
"745 238 OFFCURVE",
"745 257 CURVE SMOOTH",
"745 266 OFFCURVE",
"744 276 OFFCURVE",
"744 287 CURVE SMOOTH",
"744 298 OFFCURVE",
"739 308 OFFCURVE",
"730 312 CURVE",
"729 312 LINE",
"729 325 OFFCURVE",
"733 338 OFFCURVE",
"736 351 CURVE",
"765 392 OFFCURVE",
"804 414 OFFCURVE",
"861 414 CURVE SMOOTH",
"865 414 OFFCURVE",
"870 413 OFFCURVE",
"873 412 CURVE",
"871 408 OFFCURVE",
"869 404 OFFCURVE",
"869 398 CURVE SMOOTH",
"869 384 OFFCURVE",
"876 377 OFFCURVE",
"884 368 CURVE",
"882 366 LINE",
"880 365 OFFCURVE",
"878 364 OFFCURVE",
"876 362 CURVE SMOOTH",
"856 344 OFFCURVE",
"845 234 OFFCURVE",
"837 204 CURVE SMOOTH",
"826 161 OFFCURVE",
"831 141 OFFCURVE",
"823 103 CURVE SMOOTH",
"811 51 OFFCURVE",
"793 2 OFFCURVE",
"793 -52 CURVE SMOOTH",
"793 -86 OFFCURVE",
"799 -114 OFFCURVE",
"812 -138 CURVE",
"821 -163 OFFCURVE",
"841 -183 OFFCURVE",
"871 -183 CURVE SMOOTH"
);
},
{
closed = 1;
nodes = (
"639 59 OFFCURVE",
"636 81 OFFCURVE",
"636 99 CURVE SMOOTH",
"636 176 OFFCURVE",
"655 241 OFFCURVE",
"695 288 CURVE",
"696 281 OFFCURVE",
"697 275 OFFCURVE",
"697 269 CURVE SMOOTH",
"697 252 OFFCURVE",
"693 236 OFFCURVE",
"692 212 CURVE",
"691 210 LINE SMOOTH",
"690 208 OFFCURVE",
"689 204 OFFCURVE",
"689 200 CURVE SMOOTH",
"689 180 OFFCURVE",
"701 140 OFFCURVE",
"701 106 CURVE SMOOTH",
"701 73 OFFCURVE",
"690 45 OFFCURVE",
"647 43 CURVE"
);
}
);
width = 929;
}
);
note = M;
unicode = 004D;
},
{
glyphname = N;
lastChange = "2021-06-24 05:27:24 +0000";
layers = (
{
anchors = (
{
name = bottom;
position = "{578, -24}";
},
{
name = top;
position = "{610, 570}";
}
);
layerId = "5C71BA0D-BC2C-47B0-9323-6F63B3241D58";
paths = (
{
closed = 1;
nodes = (
"421 -39 OFFCURVE",
"432 -41 OFFCURVE",
"442 -41 CURVE SMOOTH",
"458 -41 OFFCURVE",
"475 -37 OFFCURVE",
"476 -19 CURVE SMOOTH",
"480 23 OFFCURVE",
"488 123 OFFCURVE",
"500 235 CURVE SMOOTH",
"517 388 OFFCURVE",
"579 498 OFFCURVE",
"616 503 CURVE SMOOTH",
"653 507 OFFCURVE",
"695 455 OFFCURVE",
"695 397 CURVE SMOOTH",
"695 388 OFFCURVE",
"694 379 OFFCURVE",
"692 370 CURVE SMOOTH",
"679 313 OFFCURVE",
"653 179 OFFCURVE",
"648 92 CURVE SMOOTH",
"644 29 OFFCURVE",
"682 -11 OFFCURVE",
"705 -24 CURVE SMOOTH",
"715 -29 OFFCURVE",
"727 -32 OFFCURVE",
"742 -32 CURVE SMOOTH",
"772 -32 OFFCURVE",
"809 -18 OFFCURVE",
"836 19 CURVE",
"837 19 LINE",
"842 25 OFFCURVE",
"844 31 OFFCURVE",
"844 35 CURVE SMOOTH",
"844 45 OFFCURVE",
"835 52 OFFCURVE",
"824 55 CURVE",
"802 56 OFFCURVE",
"802 -6 OFFCURVE",
"773 0 CURVE SMOOTH",
"761 2 OFFCURVE",
"748 -3 OFFCURVE",
"734 -3 CURVE SMOOTH",
"728 -3 OFFCURVE",
"723 -3 OFFCURVE",
"717 0 CURVE SMOOTH",
"699 8 OFFCURVE",
"682 36 OFFCURVE",
"682 122 CURVE SMOOTH",
"682 141 OFFCURVE",
"687 164 OFFCURVE",
"695 189 CURVE SMOOTH",
"698 198 OFFCURVE",
"701 207 OFFCURVE",
"705 217 CURVE",
"726 232 OFFCURVE",
"735 240 OFFCURVE",
"735 263 CURVE",
"738 271 OFFCURVE",
"740 280 OFFCURVE",
"740 288 CURVE SMOOTH",
"740 290 OFFCURVE",
"740 293 OFFCURVE",
"739 296 CURVE",
"740 297 LINE",
"749 312 OFFCURVE",
"756 347 OFFCURVE",
"756 364 CURVE SMOOTH",
"756 374 OFFCURVE",
"760 383 OFFCURVE",
"760 389 CURVE SMOOTH",
"760 393 OFFCURVE",
"758 397 OFFCURVE",
"753 399 CURVE",
"754 403 LINE",
"758 409 OFFCURVE",
"761 416 OFFCURVE",
"761 425 CURVE SMOOTH",
"761 428 OFFCURVE",
"760 431 OFFCURVE",
"759 433 CURVE",
"760 440 OFFCURVE",
"760 446 OFFCURVE",
"760 453 CURVE SMOOTH",
"760 490 OFFCURVE",
"719 549 OFFCURVE",
"674 549 CURVE",
"674 548 LINE",
"670 551 OFFCURVE",
"666 553 OFFCURVE",
"660 553 CURVE SMOOTH",
"653 553 OFFCURVE",
"648 551 OFFCURVE",
"643 549 CURVE",
"638 550 OFFCURVE",
"633 550 OFFCURVE",
"628 550 CURVE SMOOTH",
"606 550 OFFCURVE",
"581 543 OFFCURVE",
"562 527 CURVE SMOOTH",
"555 521 OFFCURVE",
"551 515 OFFCURVE",
"549 510 CURVE",
"520 469 OFFCURVE",
"482 411 OFFCURVE",
"481 366 CURVE SMOOTH",
"480 353 OFFCURVE",
"479 345 OFFCURVE",
"478 340 CURVE",
"477 339 OFFCURVE",
"478 338 OFFCURVE",
"477 338 CURVE",
"474 341 OFFCURVE",
"468 354 OFFCURVE",
"464 373 CURVE",
"432 462 OFFCURVE",
"377 581 OFFCURVE",
"261 593 CURVE",
"255 596 OFFCURVE",
"249 599 OFFCURVE",
"241 599 CURVE SMOOTH",
"235 599 OFFCURVE",
"229 597 OFFCURVE",
"224 593 CURVE",
"216 593 LINE",
"212 595 OFFCURVE",
"207 597 OFFCURVE",
"201 597 CURVE SMOOTH",
"191 597 OFFCURVE",
"185 595 OFFCURVE",
"175 595 CURVE",
"164 585 LINE SMOOTH",
"163 584 OFFCURVE",
"162 584 OFFCURVE",
"161 584 CURVE SMOOTH",
"153 584 OFFCURVE",
"146 589 OFFCURVE",
"138 589 CURVE SMOOTH",
"126 589 OFFCURVE",
"113 583 OFFCURVE",
"107 572 CURVE",
"89 564 OFFCURVE",
"43 541 OFFCURVE",
"43 516 CURVE SMOOTH",
"43 513 OFFCURVE",
"44 510 OFFCURVE",
"45 507 CURVE",
"27 503 OFFCURVE",
"17 496 OFFCURVE",
"17 483 CURVE SMOOTH",
"17 479 OFFCURVE",
"18 474 OFFCURVE",
"20 469 CURVE",
"18 468 OFFCURVE",
"16 466 OFFCURVE",
"15 465 CURVE",
"9 441 LINE",
"9 442 OFFCURVE",
"9 443 OFFCURVE",
"8 443 CURVE",
"9 444 OFFCURVE",
"9 446 OFFCURVE",
"9 447 CURVE",
"0 438 OFFCURVE",
"-9 431 OFFCURVE",
"-9 417 CURVE SMOOTH",
"-9 393 OFFCURVE",
"-3 381 OFFCURVE",
"5 359 CURVE",
"1 355 LINE SMOOTH",
"-5 349 OFFCURVE",
"-7 343 OFFCURVE",
"-7 337 CURVE SMOOTH",
"-7 324 OFFCURVE",
"3 311 OFFCURVE",
"16 304 CURVE",
"22 294 OFFCURVE",
"23 288 OFFCURVE",
"23 280 CURVE SMOOTH",
"23 276 OFFCURVE",
"23 273 OFFCURVE",
"23 268 CURVE SMOOTH",
"23 247 OFFCURVE",
"46 241 OFFCURVE",
"62 236 CURVE SMOOTH",
"65 235 LINE",
"87 222 LINE",
"120 195 OFFCURVE",
"162 179 OFFCURVE",
"199 179 CURVE SMOOTH",
"212 179 OFFCURVE",
"224 181 OFFCURVE",
"236 185 CURVE SMOOTH",
"270 197 OFFCURVE",
"316 255 OFFCURVE",
"316 311 CURVE SMOOTH",
"316 319 OFFCURVE",
"315 328 OFFCURVE",
"313 336 CURVE SMOOTH",
"303 369 OFFCURVE",
"280 398 OFFCURVE",
"258 408 CURVE SMOOTH",
"247 413 OFFCURVE",
"238 414 OFFCURVE",
"231 414 CURVE SMOOTH",
"218 414 OFFCURVE",
"211 408 OFFCURVE",
"211 400 CURVE SMOOTH",
"211 394 OFFCURVE",
"215 387 OFFCURVE",
"223 383 CURVE SMOOTH",
"250 369 OFFCURVE",
"264 340 OFFCURVE",
"264 310 CURVE SMOOTH",
"264 276 OFFCURVE",
"247 242 OFFCURVE",
"211 225 CURVE",
"206 225 LINE SMOOTH",
"125 225 OFFCURVE",
"149 247 OFFCURVE",
"89 267 CURVE",
"77 278 OFFCURVE",
"67 292 OFFCURVE",
"62 306 CURVE SMOOTH",
"50 339 OFFCURVE",
"45 368 OFFCURVE",
"45 393 CURVE SMOOTH",
"45 426 OFFCURVE",
"53 454 OFFCURVE",
"68 476 CURVE",
"75 479 OFFCURVE",
"84 486 OFFCURVE",
"86 499 CURVE",
"109 522 OFFCURVE",
"138 539 OFFCURVE",
"170 548 CURVE",
"172 549 OFFCURVE",
"176 549 OFFCURVE",
"179 551 CURVE",
"187 553 OFFCURVE",
"195 556 OFFCURVE",
"203 556 CURVE SMOOTH",
"206 556 LINE",
"211 554 OFFCURVE",
"216 551 OFFCURVE",
"223 551 CURVE SMOOTH",
"230 551 OFFCURVE",
"236 554 OFFCURVE",
"241 558 CURVE",
"248 558 LINE",
"254 555 OFFCURVE",
"259 554 OFFCURVE",
"263 554 CURVE SMOOTH",
"265 554 OFFCURVE",
"266 555 OFFCURVE",
"268 555 CURVE",
"330 543 OFFCURVE",
"382 496 OFFCURVE",
"402 410 CURVE SMOOTH",
"411 373 LINE",
"407 366 OFFCURVE",
"401 357 OFFCURVE",
"401 350 CURVE SMOOTH",
"401 345 OFFCURVE",
"404 340 OFFCURVE",
"410 336 CURVE SMOOTH",
"421 329 OFFCURVE",
"423 317 OFFCURVE",
"423 303 CURVE SMOOTH",
"423 294 OFFCURVE",
"422 284 OFFCURVE",
"422 275 CURVE SMOOTH",
"422 269 OFFCURVE",
"423 263 OFFCURVE",
"424 258 CURVE",
"419 252 OFFCURVE",
"416 246 OFFCURVE",
"416 241 CURVE SMOOTH",
"416 227 OFFCURVE",
"431 215 OFFCURVE",
"432 201 CURVE",
"422 193 OFFCURVE",
"417 184 OFFCURVE",
"417 175 CURVE SMOOTH",
"417 169 OFFCURVE",
"419 163 OFFCURVE",
"424 157 CURVE",
"419 152 OFFCURVE",
"416 146 OFFCURVE",
"416 140 CURVE SMOOTH",
"416 133 OFFCURVE",
"419 126 OFFCURVE",
"425 120 CURVE",
"418 117 OFFCURVE",
"412 114 OFFCURVE",
"412 103 CURVE SMOOTH",
"412 97 OFFCURVE",
"413 89 OFFCURVE",
"417 78 CURVE SMOOTH",
"419 72 LINE",
"412 70 OFFCURVE",
"408 64 OFFCURVE",
"408 57 CURVE SMOOTH",
"408 55 OFFCURVE",
"409 52 OFFCURVE",
"410 49 CURVE SMOOTH",
"413 38 OFFCURVE",
"412 29 OFFCURVE",
"413 19 CURVE",
"410 10 OFFCURVE",
"404 -8 OFFCURVE",
"404 -21 CURVE SMOOTH",
"404 -31 OFFCURVE",
"407 -39 OFFCURVE",
"416 -39 CURVE SMOOTH"
);
}
);
width = 773;
}
);
note = N;
unicode = 004E;
},
{
color = 11;
glyphname = Eng;
lastChange = "2021-06-24 05:16:15 +0000";
layers = (
{
layerId = "5C71BA0D-BC2C-47B0-9323-6F63B3241D58";
paths = (
{
closed = 1;
nodes = (
"377 -107 OFFCURVE",
"382 -107 OFFCURVE",
"386 -107 CURVE SMOOTH",
"437 -107 OFFCURVE",
"480 -46 OFFCURVE",
"488 -7 CURVE SMOOTH",
"490 2 OFFCURVE",
"491 14 OFFCURVE",
"491 27 CURVE SMOOTH",
"491 58 OFFCURVE",
"483 95 OFFCURVE",
"452 102 CURVE SMOOTH",
"447 103 OFFCURVE",
"442 104 OFFCURVE",
"436 104 CURVE SMOOTH",
"381 104 OFFCURVE",
"317 40 OFFCURVE",
"299 -1 CURVE SMOOTH",
"290 -21 OFFCURVE",
"283 -34 OFFCURVE",
"278 -54 CURVE SMOOTH",
"272 -77 OFFCURVE",
"269 -98 OFFCURVE",
"269 -117 CURVE SMOOTH",
"269 -192 OFFCURVE",
"316 -232 OFFCURVE",
"374 -232 CURVE SMOOTH",
"448 -232 OFFCURVE",
"541 -166 OFFCURVE",
"576 -22 CURVE SMOOTH",
"590 38 OFFCURVE",
"595 86 OFFCURVE",
"596 146 CURVE SMOOTH",
"596 161 OFFCURVE",
"606 209 OFFCURVE",
"606 246 CURVE SMOOTH",
"605 280 OFFCURVE",
"593 301 OFFCURVE",
"593 344 CURVE SMOOTH",
"593 363 OFFCURVE",
"603 381 OFFCURVE",
"603 399 CURVE SMOOTH",
"603 416 OFFCURVE",
"591 433 OFFCURVE",
"591 450 CURVE SMOOTH",
"591 473 OFFCURVE",
"591 496 OFFCURVE",
"591 518 CURVE SMOOTH",
"591 607 OFFCURVE",
"593 682 OFFCURVE",
"599 704 CURVE SMOOTH",
"600 708 OFFCURVE",
"601 711 OFFCURVE",
"601 715 CURVE SMOOTH",
"601 734 OFFCURVE",
"581 743 OFFCURVE",
"559 743 CURVE SMOOTH",
"527 743 OFFCURVE",
"489 726 OFFCURVE",
"489 700 CURVE SMOOTH",
"489 696 OFFCURVE",
"490 692 OFFCURVE",
"492 687 CURVE SMOOTH",
"523 623 OFFCURVE",
"546 535 OFFCURVE",
"546 359 CURVE SMOOTH",
"546 333 OFFCURVE",
"545 304 OFFCURVE",
"544 274 CURVE",
"541 246 LINE",
"527 268 OFFCURVE",
"512 289 OFFCURVE",
"499 309 CURVE SMOOTH",
"488 324 OFFCURVE",
"478 351 OFFCURVE",
"468 366 CURVE SMOOTH",
"458 380 OFFCURVE",
"448 382 OFFCURVE",
"439 396 CURVE SMOOTH",
"412 435 OFFCURVE",
"387 474 OFFCURVE",
"364 517 CURVE SMOOTH",
"350 544 OFFCURVE",
"335 570 OFFCURVE",
"320 594 CURVE SMOOTH",
"311 608 OFFCURVE",
"289 628 OFFCURVE",
"278 648 CURVE SMOOTH",
"265 668 OFFCURVE",
"263 687 OFFCURVE",
"253 699 CURVE SMOOTH",
"222 735 OFFCURVE",
"195 750 OFFCURVE",
"166 750 CURVE SMOOTH",
"149 750 OFFCURVE",
"132 744 OFFCURVE",
"113 735 CURVE SMOOTH",
"83 720 OFFCURVE",
"79 605 OFFCURVE",
"78 589 CURVE SMOOTH",
"77 569 OFFCURVE",
"77 548 OFFCURVE",
"77 527 CURVE SMOOTH",
"77 419 OFFCURVE",
"84 291 OFFCURVE",
"84 192 CURVE SMOOTH",
"84 185 OFFCURVE",
"91 183 OFFCURVE",
"100 183 CURVE SMOOTH",
"118 183 OFFCURVE",
"143 193 OFFCURVE",
"143 205 CURVE SMOOTH",
"143 281 OFFCURVE",
"141 369 OFFCURVE",
"141 452 CURVE SMOOTH",
"141 483 OFFCURVE",
"141 514 OFFCURVE",
"142 542 CURVE SMOOTH",
"144 577 OFFCURVE",
"149 638 OFFCURVE",
"165 669 CURVE",
"179 654 OFFCURVE",
"212 608 OFFCURVE",
"253 549 CURVE SMOOTH",
"258 541 OFFCURVE",
"264 541 OFFCURVE",
"269 533 CURVE SMOOTH",
"275 525 OFFCURVE",
"281 509 OFFCURVE",
"287 500 CURVE SMOOTH",
"303 476 OFFCURVE",
"321 442 OFFCURVE",
"338 417 CURVE SMOOTH",
"347 403 OFFCURVE",
"356 400 OFFCURVE",
"365 387 CURVE SMOOTH",
"379 367 OFFCURVE",
"392 334 OFFCURVE",
"405 315 CURVE SMOOTH",
"465 229 OFFCURVE",
"516 168 OFFCURVE",
"536 148 CURVE",
"532 94 OFFCURVE",
"532 48 OFFCURVE",
"519 -8 CURVE SMOOTH",
"491 -126 OFFCURVE",
"425 -174 OFFCURVE",
"372 -174 CURVE SMOOTH",
"330 -174 OFFCURVE",
"296 -143 OFFCURVE",
"296 -92 CURVE SMOOTH",
"296 -82 OFFCURVE",
"297 -71 OFFCURVE",
"300 -59 CURVE SMOOTH",
"305 -40 OFFCURVE",
"307 -27 OFFCURVE",
"315 -10 CURVE SMOOTH",
"331 25 OFFCURVE",
"385 80 OFFCURVE",
"434 80 CURVE SMOOTH",
"438 80 OFFCURVE",
"443 79 OFFCURVE",
"448 78 CURVE SMOOTH",
"463 75 OFFCURVE",
"467 52 OFFCURVE",
"467 30 CURVE SMOOTH",
"467 18 OFFCURVE",
"466 5 OFFCURVE",
"464 -1 CURVE SMOOTH",
"452 -43 OFFCURVE",
"413 -90 OFFCURVE",
"381 -83 CURVE SMOOTH",
"370 -81 OFFCURVE",
"364 -59 OFFCURVE",
"366 -49 CURVE SMOOTH",
"371 -31 OFFCURVE",
"385 -22 OFFCURVE",
"393 -20 CURVE SMOOTH",
"398 -19 OFFCURVE",
"400 -15 OFFCURVE",
"400 -11 CURVE SMOOTH",
"400 -7 OFFCURVE",
"397 -2 OFFCURVE",
"391 -2 CURVE SMOOTH",
"390 -2 OFFCURVE",
"390 -2 OFFCURVE",
"389 -2 CURVE SMOOTH",
"374 -4 OFFCURVE",
"356 -21 OFFCURVE",
"349 -44 CURVE SMOOTH",
"348 -47 OFFCURVE",
"348 -50 OFFCURVE",
"348 -54 CURVE SMOOTH",
"348 -75 OFFCURVE",
"359 -103 OFFCURVE",
"373 -106 CURVE SMOOTH"
);
}
);
width = 600;
}
);
unicode = 014A;
},
{
glyphname = O;
lastChange = "2021-06-28 10:46:45 +0000";
layers = (
{
anchors = (
{
name = bottom;
position = "{209, -11}";
},
{
name = center;
position = "{296, 330}";
},
{
name = ogonek;
position = "{288, 0}";
},
{
name = top;
position = "{407, 651}";
},
{
name = topleft;
position = "{20, 660}";
},
{
name = topright;
position = "{479, 492}";
}
);
layerId = "5C71BA0D-BC2C-47B0-9323-6F63B3241D58";
paths = (
{
closed = 1;
nodes = (
"286 -16 LINE",
"288 -16 LINE SMOOTH",
"361 -16 OFFCURVE",
"409 26 OFFCURVE",
"454 63 CURVE SMOOTH",
"524 121 OFFCURVE",
"507 102 OFFCURVE",
"521 181 CURVE SMOOTH",
"526 208 OFFCURVE",
"566 236 OFFCURVE",
"566 260 CURVE SMOOTH",
"566 266 OFFCURVE",
"564 271 OFFCURVE",
"559 276 CURVE SMOOTH",
"558 277 LINE",
"560 279 LINE SMOOTH",
"566 285 OFFCURVE",
"568 293 OFFCURVE",
"568 298 CURVE SMOOTH",
"568 303 OFFCURVE",
"567 307 OFFCURVE",
"565 310 CURVE",
"567 317 LINE SMOOTH",
"568 321 OFFCURVE",
"570 325 OFFCURVE",
"570 328 CURVE SMOOTH",
"570 329 LINE",
"571 330 LINE",
"580 334 OFFCURVE",
"585 342 OFFCURVE",
"585 352 CURVE SMOOTH",
"585 365 OFFCURVE",
"577 376 OFFCURVE",
"566 379 CURVE SMOOTH",
"562 380 LINE",
"564 392 OFFCURVE",
"569 402 OFFCURVE",
"569 414 CURVE SMOOTH",
"569 464 OFFCURVE",
"513 506 OFFCURVE",
"475 535 CURVE SMOOTH",
"444 560 OFFCURVE",
"399 568 OFFCURVE",
"354 570 CURVE",
"386 595 OFFCURVE",
"427 614 OFFCURVE",
"464 614 CURVE SMOOTH",
"468 614 OFFCURVE",
"476 606 OFFCURVE",
"479 603 CURVE",
"477 598 LINE SMOOTH",
"475 594 OFFCURVE",
"474 590 OFFCURVE",
"474 587 CURVE SMOOTH",
"474 577 OFFCURVE",
"481 573 OFFCURVE",
"489 573 CURVE SMOOTH",
"501 573 OFFCURVE",
"517 583 OFFCURVE",
"517 603 CURVE SMOOTH",
"517 627 OFFCURVE",
"485 651 OFFCURVE",
"464 651 CURVE SMOOTH",
"403 651 OFFCURVE",
"339 613 OFFCURVE",
"299 571 CURVE",
"254 571 LINE",
"225 571 LINE SMOOTH",
"199 571 OFFCURVE",
"193 575 OFFCURVE",
"172 575 CURVE SMOOTH",
"158 575 OFFCURVE",
"143 568 OFFCURVE",
"136 556 CURVE",
"122 557 OFFCURVE",
"99 561 OFFCURVE",
"99 539 CURVE SMOOTH",
"99 534 LINE",
"97 530 OFFCURVE",
"91 527 OFFCURVE",
"89 522 CURVE",
"86 522 LINE SMOOTH",
"79 522 OFFCURVE",
"75 517 OFFCURVE",
"69 513 CURVE",
"73 503 LINE",
"68 503 LINE",
"66 500 OFFCURVE",
"64 497 OFFCURVE",
"63 494 CURVE",
"50 477 LINE",
"29 472 OFFCURVE",
"23 461 OFFCURVE",
"23 447 CURVE SMOOTH",
"23 440 OFFCURVE",
"24 433 OFFCURVE",
"26 425 CURVE",
"18 423 OFFCURVE",
"11 416 OFFCURVE",
"11 408 CURVE SMOOTH",
"11 406 OFFCURVE",
"12 405 OFFCURVE",
"12 403 CURVE SMOOTH",
"13 399 OFFCURVE",
"13 395 OFFCURVE",
"13 391 CURVE SMOOTH",
"13 376 OFFCURVE",
"8 362 OFFCURVE",
"8 346 CURVE SMOOTH",
"8 333 OFFCURVE",
"17 325 OFFCURVE",
"28 321 CURVE",
"39 286 OFFCURVE",
"59 262 OFFCURVE",
"85 244 CURVE",
"83 239 OFFCURVE",
"82 232 OFFCURVE",
"82 225 CURVE SMOOTH",
"82 214 OFFCURVE",
"83 204 OFFCURVE",
"84 194 CURVE",
"83 177 OFFCURVE",
"80 161 OFFCURVE",
"80 145 CURVE SMOOTH",
"80 134 OFFCURVE",
"89 120 OFFCURVE",
"88 113 CURVE",
"106 92 LINE SMOOTH",
"108 90 OFFCURVE",
"102 95 OFFCURVE",
"99 95 CURVE",
"105 82 OFFCURVE",
"107 72 OFFCURVE",
"117 61 CURVE SMOOTH",
"122 55 LINE",
"127 45 OFFCURVE",
"135 32 OFFCURVE",
"148 13 CURVE SMOOTH",
"166 -13 OFFCURVE",
"201 -17 OFFCURVE",
"235 -17 CURVE SMOOTH",
"252 -17 OFFCURVE",
"267 -16 OFFCURVE",
"281 -16 CURVE SMOOTH"
);
},
{
closed = 1;
nodes = (
"79 302 OFFCURVE",
"67 330 OFFCURVE",
"67 369 CURVE SMOOTH",
"67 386 OFFCURVE",
"72 393 OFFCURVE",
"82 405 CURVE SMOOTH",
"105 431 OFFCURVE",
"99 425 OFFCURVE",
"100 455 CURVE",
"109 473 OFFCURVE",
"147 467 OFFCURVE",
"167 510 CURVE SMOOTH",
"176 530 OFFCURVE",
"209 534 OFFCURVE",
"235 534 CURVE SMOOTH",
"245 534 LINE SMOOTH",
"251 534 OFFCURVE",
"257 533 OFFCURVE",
"262 532 CURVE",
"257 526 OFFCURVE",
"254 518 OFFCURVE",
"252 509 CURVE",
"223 484 OFFCURVE",
"150 421 OFFCURVE",
"136 394 CURVE SMOOTH",
"131 383 OFFCURVE",
"117 368 OFFCURVE",
"117 356 CURVE SMOOTH",
"117 352 OFFCURVE",
"118 349 OFFCURVE",
"121 346 CURVE",
"105 334 OFFCURVE",
"106 317 OFFCURVE",
"105 300 CURVE SMOOTH",
"104 293 OFFCURVE",
"102 287 OFFCURVE",
"100 281 CURVE"
);
},
{
closed = 1;
nodes = (
"207 24 LINE",
"182 33 OFFCURVE",
"171 53 OFFCURVE",
"153 75 CURVE",
"150 82 OFFCURVE",
"148 88 OFFCURVE",
"147 92 CURVE SMOOTH",
"146 95 LINE",
"147 98 OFFCURVE",
"146 101 OFFCURVE",
"145 105 CURVE SMOOTH",
"143 113 LINE SMOOTH",
"137 139 OFFCURVE",
"131 175 OFFCURVE",
"131 189 CURVE SMOOTH",
"131 198 OFFCURVE",
"133 207 OFFCURVE",
"134 217 CURVE",
"177 200 OFFCURVE",
"227 195 OFFCURVE",
"272 195 CURVE SMOOTH",
"314 195 OFFCURVE",
"360 212 OFFCURVE",
"393 241 CURVE",
"419 243 OFFCURVE",
"441 270 OFFCURVE",
"441 298 CURVE SMOOTH",
"441 303 OFFCURVE",
"440 309 OFFCURVE",
"439 314 CURVE",
"440 321 OFFCURVE",
"441 330 OFFCURVE",
"441 338 CURVE SMOOTH",
"441 405 OFFCURVE",
"399 413 OFFCURVE",
"355 413 CURVE SMOOTH",
"300 413 OFFCURVE",
"263 372 OFFCURVE",
"263 323 CURVE SMOOTH",
"263 311 OFFCURVE",
"272 304 OFFCURVE",
"282 304 CURVE SMOOTH",
"291 304 OFFCURVE",
"300 311 OFFCURVE",
"300 323 CURVE SMOOTH",
"300 338 OFFCURVE",
"306 351 OFFCURVE",
"315 360 CURVE",
"317 361 OFFCURVE",
"319 362 OFFCURVE",
"320 363 CURVE",
"327 367 LINE SMOOTH",
"329 368 OFFCURVE",
"330 369 OFFCURVE",
"332 369 CURVE SMOOTH",
"347 368 OFFCURVE",
"376 358 OFFCURVE",
"385 349 CURVE",
"386 341 OFFCURVE",
"384 331 OFFCURVE",
"384 322 CURVE SMOOTH",
"384 313 OFFCURVE",
"386 305 OFFCURVE",
"394 300 CURVE",
"389 290 OFFCURVE",
"382 282 OFFCURVE",
"374 274 CURVE",
"369 271 OFFCURVE",
"364 267 OFFCURVE",
"360 264 CURVE SMOOTH",
"334 244 OFFCURVE",
"301 239 OFFCURVE",
"268 239 CURVE SMOOTH",
"267 239 LINE SMOOTH",
"230 239 OFFCURVE",
"187 245 OFFCURVE",
"149 255 CURVE",
"150 259 OFFCURVE",
"151 263 OFFCURVE",
"151 267 CURVE SMOOTH",
"151 272 OFFCURVE",
"150 277 OFFCURVE",
"150 281 CURVE SMOOTH",
"150 285 OFFCURVE",
"151 289 OFFCURVE",
"152 291 CURVE",
"154 304 LINE SMOOTH",
"154 305 OFFCURVE",
"155 302 OFFCURVE",
"156 301 CURVE",
"175 313 OFFCURVE",
"185 335 OFFCURVE",
"183 359 CURVE",
"196 361 OFFCURVE",
"200 372 OFFCURVE",
"203 384 CURVE SMOOTH",
"204 388 LINE",
"214 396 OFFCURVE",
"215 401 OFFCURVE",
"215 408 CURVE SMOOTH",
"215 410 OFFCURVE",
"215 412 OFFCURVE",
"215 415 CURVE SMOOTH",
"215 417 OFFCURVE",
"215 418 OFFCURVE",
"215 420 CURVE",
"218 422 LINE SMOOTH",
"226 427 OFFCURVE",
"232 435 OFFCURVE",
"240 440 CURVE SMOOTH",
"280 465 OFFCURVE",
"278 464 OFFCURVE",
"285 491 CURVE",
"290 498 OFFCURVE",
"295 506 OFFCURVE",
"300 514 CURVE",
"303 516 LINE",
"305 520 OFFCURVE",
"308 524 OFFCURVE",
"312 529 CURVE SMOOTH",
"313 530 OFFCURVE",
"315 532 OFFCURVE",
"317 533 CURVE",
"319 531 OFFCURVE",
"322 531 OFFCURVE",
"326 531 CURVE SMOOTH",
"365 531 LINE",
"384 528 OFFCURVE",
"412 522 OFFCURVE",
"435 511 CURVE SMOOTH",
"479 492 OFFCURVE",
"469 476 OFFCURVE",
"480 455 CURVE",
"480 452 LINE SMOOTH",
"480 441 OFFCURVE",
"483 424 OFFCURVE",
"489 408 CURVE",
"485 401 OFFCURVE",
"483 391 OFFCURVE",
"483 382 CURVE SMOOTH",
"483 374 OFFCURVE",
"484 366 OFFCURVE",
"485 358 CURVE SMOOTH",
"485 357 OFFCURVE",
"484 356 OFFCURVE",
"484 354 CURVE SMOOTH",
"484 352 OFFCURVE",
"486 348 OFFCURVE",
"486 344 CURVE SMOOTH",
"486 340 LINE SMOOTH",
"486 339 OFFCURVE",
"486 338 OFFCURVE",
"487 337 CURVE",
"491 322 OFFCURVE",
"496 303 OFFCURVE",
"498 291 CURVE",
"492 286 LINE SMOOTH",
"478 274 OFFCURVE",
"468 261 OFFCURVE",
"468 246 CURVE SMOOTH",
"468 240 OFFCURVE",
"470 233 OFFCURVE",
"474 226 CURVE",
"469 215 OFFCURVE",
"465 202 OFFCURVE",
"464 185 CURVE",
"459 172 OFFCURVE",
"450 160 OFFCURVE",
"443 148 CURVE SMOOTH",
"440 143 LINE",
"408 110 OFFCURVE",
"360 32 OFFCURVE",
"312 32 CURVE SMOOTH",
"281 32 OFFCURVE",
"262 24 OFFCURVE",
"243 21 CURVE"
);
}
);
width = 592;
}
);
note = O;
unicode = 004F;
},
{
glyphname = Oslash;
lastChange = "2021-06-24 05:27:24 +0000";
layers = (
{
layerId = "5C71BA0D-BC2C-47B0-9323-6F63B3241D58";
paths = (
{
closed = 1;
nodes = (
"85 -66 OFFCURVE",
"100 -60 OFFCURVE",
"113 -39 CURVE SMOOTH",
"117 -33 OFFCURVE",
"121 -27 OFFCURVE",
"126 -21 CURVE",
"136 -14 OFFCURVE",
"150 -13 OFFCURVE",
"160 0 CURVE",
"179 -14 OFFCURVE",
"207 -17 OFFCURVE",
"235 -17 CURVE SMOOTH",
"251 -17 OFFCURVE",
"267 -16 OFFCURVE",
"281 -16 CURVE SMOOTH",
"286 -16 LINE",
"288 -16 LINE SMOOTH",
"361 -14 OFFCURVE",
"409 26 OFFCURVE",
"454 63 CURVE SMOOTH",
"524 121 OFFCURVE",
"507 102 OFFCURVE",
"521 181 CURVE SMOOTH",
"526 208 OFFCURVE",
"564 234 OFFCURVE",
"564 260 CURVE SMOOTH",
"564 265 OFFCURVE",
"563 271 OFFCURVE",
"559 276 CURVE SMOOTH",
"558 277 LINE",
"560 279 LINE SMOOTH",
"566 285 OFFCURVE",
"568 293 OFFCURVE",
"568 298 CURVE SMOOTH",
"568 303 OFFCURVE",
"567 307 OFFCURVE",
"565 310 CURVE",
"567 317 LINE",
"570 328 LINE",
"570 329 LINE",
"571 330 LINE",
"580 334 OFFCURVE",
"585 342 OFFCURVE",
"585 352 CURVE SMOOTH",
"585 365 OFFCURVE",
"577 375 OFFCURVE",
"566 379 CURVE SMOOTH",
"562 380 LINE",
"564 392 OFFCURVE",
"569 402 OFFCURVE",
"569 414 CURVE SMOOTH",
"569 442 OFFCURVE",
"551 468 OFFCURVE",
"529 490 CURVE",
"535 494 OFFCURVE",
"540 497 OFFCURVE",
"545 501 CURVE SMOOTH",
"575 524 OFFCURVE",
"593 552 OFFCURVE",
"619 579 CURVE SMOOTH",
"622 582 OFFCURVE",
"623 586 OFFCURVE",
"623 589 CURVE SMOOTH",
"623 597 OFFCURVE",
"616 604 OFFCURVE",
"608 604 CURVE SMOOTH",
"604 604 OFFCURVE",
"600 602 OFFCURVE",
"597 599 CURVE SMOOTH",
"589 590 OFFCURVE",
"580 579 OFFCURVE",
"572 568 CURVE SMOOTH",
"566 560 OFFCURVE",
"559 553 OFFCURVE",
"552 547 CURVE SMOOTH",
"551 546 OFFCURVE",
"549 545 OFFCURVE",
"547 544 CURVE SMOOTH",
"523 529 LINE",
"514 525 OFFCURVE",
"504 524 OFFCURVE",
"495 520 CURVE",
"475 535 LINE SMOOTH",
"444 560 OFFCURVE",
"399 568 OFFCURVE",
"354 570 CURVE",
"386 595 OFFCURVE",
"427 614 OFFCURVE",
"464 614 CURVE SMOOTH",
"468 614 OFFCURVE",
"476 606 OFFCURVE",
"479 603 CURVE",
"477 598 LINE SMOOTH",
"475 593 OFFCURVE",
"474 590 OFFCURVE",
"474 586 CURVE SMOOTH",
"474 577 OFFCURVE",
"481 573 OFFCURVE",
"489 573 CURVE SMOOTH",
"501 573 OFFCURVE",
"517 583 OFFCURVE",
"517 603 CURVE SMOOTH",
"517 627 OFFCURVE",
"485 651 OFFCURVE",
"464 651 CURVE SMOOTH",
"403 651 OFFCURVE",
"339 613 OFFCURVE",
"299 571 CURVE",
"254 571 LINE",
"225 571 LINE SMOOTH",
"199 571 OFFCURVE",
"193 575 OFFCURVE",
"172 575 CURVE SMOOTH",
"158 575 OFFCURVE",
"143 568 OFFCURVE",
"136 556 CURVE",
"122 557 OFFCURVE",
"99 561 OFFCURVE",
"99 539 CURVE SMOOTH",
"99 534 LINE",
"97 530 OFFCURVE",
"91 527 OFFCURVE",
"89 522 CURVE",
"86 522 LINE SMOOTH",
"79 521 OFFCURVE",
"75 517 OFFCURVE",
"69 513 CURVE",
"73 503 LINE",
"68 503 LINE",
"66 500 OFFCURVE",
"64 497 OFFCURVE",
"63 494 CURVE",
"50 477 LINE",
"29 472 OFFCURVE",
"23 461 OFFCURVE",
"23 447 CURVE SMOOTH",
"23 440 OFFCURVE",
"24 433 OFFCURVE",
"26 425 CURVE",
"18 423 OFFCURVE",
"11 416 OFFCURVE",
"11 408 CURVE SMOOTH",
"11 406 OFFCURVE",
"12 405 OFFCURVE",
"12 403 CURVE SMOOTH",
"13 399 OFFCURVE",
"13 395 OFFCURVE",
"13 391 CURVE SMOOTH",
"13 376 OFFCURVE",
"8 362 OFFCURVE",
"8 346 CURVE SMOOTH",
"8 333 OFFCURVE",
"17 325 OFFCURVE",
"28 321 CURVE",
"39 286 OFFCURVE",
"59 262 OFFCURVE",
"85 244 CURVE",
"83 239 OFFCURVE",
"82 232 OFFCURVE",
"82 225 CURVE SMOOTH",
"82 214 OFFCURVE",
"83 204 OFFCURVE",
"84 194 CURVE",
"83 177 OFFCURVE",
"80 161 OFFCURVE",
"80 145 CURVE SMOOTH",
"80 134 OFFCURVE",
"89 120 OFFCURVE",
"88 113 CURVE",
"106 92 LINE SMOOTH",
"104 94 OFFCURVE",
"102 95 OFFCURVE",
"99 95 CURVE",
"105 82 OFFCURVE",
"107 72 OFFCURVE",
"117 61 CURVE SMOOTH",
"122 55 LINE SMOOTH",
"124 52 OFFCURVE",
"126 48 OFFCURVE",
"128 44 CURVE",
"128 43 LINE",
"112 7 OFFCURVE",
"77 11 OFFCURVE",
"61 -28 CURVE SMOOTH",
"59 -35 OFFCURVE",
"45 -60 OFFCURVE",
"45 -73 CURVE SMOOTH",
"45 -77 OFFCURVE",
"46 -80 OFFCURVE",
"51 -80 CURVE SMOOTH",
"54 -80 OFFCURVE",
"58 -79 OFFCURVE",
"64 -76 CURVE SMOOTH"
);
},
{
closed = 1;
nodes = (
"79 302 OFFCURVE",
"67 330 OFFCURVE",
"67 369 CURVE SMOOTH",
"67 386 OFFCURVE",
"72 393 OFFCURVE",
"82 405 CURVE SMOOTH",
"105 431 OFFCURVE",
"99 425 OFFCURVE",
"100 455 CURVE",
"109 473 OFFCURVE",
"147 467 OFFCURVE",
"167 510 CURVE SMOOTH",
"176 530 OFFCURVE",
"209 534 OFFCURVE",
"235 534 CURVE SMOOTH",
"245 534 LINE SMOOTH",
"251 534 OFFCURVE",
"257 533 OFFCURVE",
"262 532 CURVE",
"257 526 OFFCURVE",
"254 518 OFFCURVE",
"252 509 CURVE",
"223 484 OFFCURVE",
"150 421 OFFCURVE",
"136 394 CURVE SMOOTH",
"131 383 OFFCURVE",
"117 368 OFFCURVE",
"117 356 CURVE SMOOTH",
"117 352 OFFCURVE",
"118 349 OFFCURVE",
"121 346 CURVE",
"105 334 OFFCURVE",
"106 317 OFFCURVE",
"105 300 CURVE SMOOTH",
"104 293 OFFCURVE",
"102 287 OFFCURVE",
"100 281 CURVE"
);
},
{
closed = 1;
nodes = (
"207 24 LINE",
"197 27 OFFCURVE",
"190 32 OFFCURVE",
"184 38 CURVE",
"241 89 OFFCURVE",
"307 138 OFFCURVE",
"327 206 CURVE SMOOTH",
"334 231 OFFCURVE",
"345 258 OFFCURVE",
"357 284 CURVE",
"390 310 OFFCURVE",
"390 311 OFFCURVE",
"401 345 CURVE SMOOTH",
"417 395 OFFCURVE",
"460 372 OFFCURVE",
"479 436 CURVE SMOOTH",
"481 442 LINE",
"482 432 OFFCURVE",
"485 420 OFFCURVE",
"489 408 CURVE",
"485 401 OFFCURVE",
"483 391 OFFCURVE",
"483 382 CURVE SMOOTH",
"483 374 OFFCURVE",
"484 366 OFFCURVE",
"485 358 CURVE SMOOTH",
"485 357 OFFCURVE",
"484 356 OFFCURVE",
"484 354 CURVE SMOOTH",
"484 352 OFFCURVE",
"485 348 OFFCURVE",
"486 344 CURVE SMOOTH",
"486 340 LINE SMOOTH",
"486 339 OFFCURVE",
"486 338 OFFCURVE",
"487 337 CURVE",
"491 322 OFFCURVE",
"496 303 OFFCURVE",
"498 291 CURVE",
"492 286 LINE SMOOTH",
"477 275 OFFCURVE",
"468 262 OFFCURVE",
"468 247 CURVE SMOOTH",
"468 240 OFFCURVE",
"470 233 OFFCURVE",
"474 226 CURVE",
"469 215 OFFCURVE",
"465 202 OFFCURVE",
"464 185 CURVE",
"459 172 OFFCURVE",
"451 160 OFFCURVE",
"443 148 CURVE SMOOTH",
"440 143 LINE",
"408 110 OFFCURVE",
"360 32 OFFCURVE",
"312 32 CURVE SMOOTH",
"281 32 OFFCURVE",
"262 24 OFFCURVE",
"243 21 CURVE"
);
},
{
closed = 1;
nodes = (
"149 85 OFFCURVE",
"147 89 OFFCURVE",
"147 92 CURVE",
"146 95 LINE",
"147 98 OFFCURVE",
"146 101 OFFCURVE",
"145 105 CURVE SMOOTH",
"143 113 LINE SMOOTH",
"138 139 OFFCURVE",
"131 175 OFFCURVE",
"131 189 CURVE SMOOTH",
"131 198 OFFCURVE",
"133 207 OFFCURVE",
"134 217 CURVE",
"159 207 OFFCURVE",
"156 205 OFFCURVE",
"157 205 CURVE SMOOTH",
"158 205 OFFCURVE",
"162 206 OFFCURVE",
"180 206 CURVE SMOOTH",
"199 206 OFFCURVE",
"211 212 OFFCURVE",
"211 220 CURVE SMOOTH",
"211 230 OFFCURVE",
"193 243 OFFCURVE",
"149 255 CURVE",
"150 259 OFFCURVE",
"151 263 OFFCURVE",
"151 267 CURVE SMOOTH",
"151 272 OFFCURVE",
"150 277 OFFCURVE",
"150 281 CURVE SMOOTH",
"150 285 OFFCURVE",
"151 289 OFFCURVE",
"152 291 CURVE",
"154 304 LINE SMOOTH",
"154 303 OFFCURVE",
"155 302 OFFCURVE",
"156 301 CURVE",
"175 313 OFFCURVE",
"185 335 OFFCURVE",
"183 359 CURVE",
"196 361 OFFCURVE",
"201 372 OFFCURVE",
"203 384 CURVE SMOOTH",
"204 388 LINE",
"214 396 OFFCURVE",
"215 401 OFFCURVE",
"215 408 CURVE SMOOTH",
"215 410 OFFCURVE",
"215 412 OFFCURVE",
"215 415 CURVE SMOOTH",
"215 417 OFFCURVE",
"215 418 OFFCURVE",
"215 420 CURVE",
"218 422 LINE SMOOTH",
"226 427 OFFCURVE",
"232 435 OFFCURVE",
"240 440 CURVE SMOOTH",
"280 465 OFFCURVE",
"278 464 OFFCURVE",
"285 491 CURVE",
"290 498 OFFCURVE",
"295 506 OFFCURVE",
"300 514 CURVE",
"303 516 LINE",
"305 520 OFFCURVE",
"308 524 OFFCURVE",
"312 529 CURVE SMOOTH",
"313 530 OFFCURVE",
"315 532 OFFCURVE",
"317 533 CURVE",
"319 531 OFFCURVE",
"322 531 OFFCURVE",
"326 531 CURVE SMOOTH",
"365 531 LINE",
"384 528 OFFCURVE",
"412 522 OFFCURVE",
"435 511 CURVE SMOOTH",
"452 504 OFFCURVE",
"461 497 OFFCURVE",
"466 490 CURVE",
"463 483 LINE",
"430 456 OFFCURVE",
"399 427 OFFCURVE",
"366 399 CURVE SMOOTH",
"335 374 OFFCURVE",
"339 352 OFFCURVE",
"339 329 CURVE SMOOTH",
"339 324 OFFCURVE",
"339 319 OFFCURVE",
"338 313 CURVE",
"336 309 OFFCURVE",
"334 305 OFFCURVE",
"332 301 CURVE",
"328 297 LINE",
"320 293 OFFCURVE",
"308 288 OFFCURVE",
"303 286 CURVE SMOOTH",
"278 273 OFFCURVE",
"274 255 OFFCURVE",
"274 237 CURVE SMOOTH",
"274 228 OFFCURVE",
"275 220 OFFCURVE",
"275 212 CURVE",
"272 205 OFFCURVE",
"268 198 OFFCURVE",
"265 191 CURVE",
"247 188 OFFCURVE",
"242 183 OFFCURVE",
"225 170 CURVE SMOOTH",
"205 155 OFFCURVE",
"201 144 OFFCURVE",
"201 136 CURVE SMOOTH",
"201 130 OFFCURVE",
"203 126 OFFCURVE",
"203 122 CURVE SMOOTH",
"203 105 OFFCURVE",
"173 117 OFFCURVE",
"156 85 CURVE SMOOTH",
"155 83 OFFCURVE",
"153 82 OFFCURVE",
"151 80 CURVE"
);
}
);
width = 592;
}
);
note = Oslash;
unicode = 00D8;
},
{
glyphname = OE;
lastChange = "2021-06-24 05:27:24 +0000";
layers = (
{
layerId = "5C71BA0D-BC2C-47B0-9323-6F63B3241D58";
paths = (
{
closed = 1;
nodes = (
"618 -66 OFFCURVE",
"676 -60 OFFCURVE",
"723 -38 CURVE SMOOTH",
"741 -29 OFFCURVE",
"758 -30 OFFCURVE",
"772 -11 CURVE",
"803 -3 OFFCURVE",
"804 -17 OFFCURVE",
"840 12 CURVE SMOOTH",
"901 61 OFFCURVE",
"930 81 OFFCURVE",
"947 161 CURVE SMOOTH",
"953 193 OFFCURVE",
"969 205 OFFCURVE",
"969 246 CURVE SMOOTH",
"969 317 OFFCURVE",
"896 327 OFFCURVE",
"843 327 CURVE SMOOTH",
"828 327 OFFCURVE",
"812 326 OFFCURVE",
"795 325 CURVE SMOOTH",
"781 325 OFFCURVE",
"768 323 OFFCURVE",
"756 319 CURVE SMOOTH",
"746 316 OFFCURVE",
"736 313 OFFCURVE",
"726 309 CURVE SMOOTH",
"664 283 OFFCURVE",
"632 199 OFFCURVE",
"632 142 CURVE SMOOTH",
"632 93 OFFCURVE",
"676 71 OFFCURVE",
"709 71 CURVE SMOOTH",
"733 71 OFFCURVE",
"772 81 OFFCURVE",
"801 100 CURVE",
"804 101 OFFCURVE",
"807 103 OFFCURVE",
"808 105 CURVE",
"827 118 OFFCURVE",
"841 136 OFFCURVE",
"841 155 CURVE SMOOTH",
"841 168 OFFCURVE",
"836 182 OFFCURVE",
"822 197 CURVE SMOOTH",
"818 201 OFFCURVE",
"814 203 OFFCURVE",
"810 203 CURVE SMOOTH",
"800 203 OFFCURVE",
"792 195 OFFCURVE",
"792 185 CURVE SMOOTH",
"792 182 OFFCURVE",
"794 178 OFFCURVE",
"797 174 CURVE SMOOTH",
"803 168 OFFCURVE",
"806 161 OFFCURVE",
"806 155 CURVE SMOOTH",
"806 147 OFFCURVE",
"800 139 OFFCURVE",
"791 132 CURVE",
"778 129 OFFCURVE",
"766 120 OFFCURVE",
"752 120 CURVE SMOOTH",
"743 120 OFFCURVE",
"733 115 OFFCURVE",
"724 115 CURVE",
"719 118 OFFCURVE",
"713 135 OFFCURVE",
"700 135 CURVE SMOOTH",
"697 135 LINE",
"696 137 LINE SMOOTH",
"695 141 OFFCURVE",
"696 145 OFFCURVE",
"697 150 CURVE",
"694 161 OFFCURVE",
"690 186 OFFCURVE",
"691 200 CURVE",
"702 246 OFFCURVE",
"715 265 OFFCURVE",
"748 281 CURVE SMOOTH",
"763 287 OFFCURVE",
"780 290 OFFCURVE",
"797 291 CURVE SMOOTH",
"807 291 OFFCURVE",
"818 290 OFFCURVE",
"828 290 CURVE SMOOTH",
"850 290 LINE SMOOTH",
"893 290 OFFCURVE",
"909 265 OFFCURVE",
"909 221 CURVE SMOOTH",
"909 178 OFFCURVE",
"891 111 OFFCURVE",
"843 72 CURVE SMOOTH",
"839 69 OFFCURVE",
"836 67 OFFCURVE",
"825 64 CURVE SMOOTH",
"775 53 OFFCURVE",
"757 33 OFFCURVE",
"730 23 CURVE SMOOTH",
"697 11 OFFCURVE",
"671 -4 OFFCURVE",
"645 -15 CURVE",
"644 -15 LINE SMOOTH",
"625 -15 OFFCURVE",
"614 -13 OFFCURVE",
"596 -13 CURVE SMOOTH",
"589 -13 OFFCURVE",
"585 -15 OFFCURVE",
"578 -15 CURVE SMOOTH",
"568 -15 OFFCURVE",
"558 -7 OFFCURVE",
"546 -7 CURVE SMOOTH",
"539 -7 OFFCURVE",
"533 -11 OFFCURVE",
"529 -15 CURVE SMOOTH",
"528 -16 LINE",
"506 -14 OFFCURVE",
"528 38 OFFCURVE",
"493 48 CURVE",
"491 48 LINE",
"492 50 LINE SMOOTH",
"493 54 OFFCURVE",
"494 58 OFFCURVE",
"494 62 CURVE SMOOTH",
"494 68 OFFCURVE",
"492 75 OFFCURVE",
"487 79 CURVE",
"492 84 OFFCURVE",
"495 89 OFFCURVE",
"495 95 CURVE SMOOTH",
"495 96 OFFCURVE",
"495 97 OFFCURVE",
"495 98 CURVE",
"517 118 OFFCURVE",
"511 124 OFFCURVE",
"521 181 CURVE SMOOTH",
"526 209 OFFCURVE",
"565 234 OFFCURVE",
"565 260 CURVE SMOOTH",
"565 263 OFFCURVE",
"564 267 OFFCURVE",
"563 270 CURVE",
"572 286 OFFCURVE",
"589 312 OFFCURVE",
"607 335 CURVE",
"619 330 OFFCURVE",
"633 326 OFFCURVE",
"650 326 CURVE SMOOTH",
"652 326 LINE SMOOTH",
"659 325 OFFCURVE",
"665 324 OFFCURVE",
"672 324 CURVE SMOOTH",
"675 324 LINE SMOOTH",
"681 323 OFFCURVE",
"686 321 OFFCURVE",
"693 321 CURVE SMOOTH",
"732 321 OFFCURVE",
"800 359 OFFCURVE",
"800 413 CURVE SMOOTH",
"800 444 OFFCURVE",
"775 445 OFFCURVE",
"753 445 CURVE",
"747 446 OFFCURVE",
"740 445 OFFCURVE",
"731 444 CURVE",
"725 445 OFFCURVE",
"719 446 OFFCURVE",
"712 446 CURVE SMOOTH",
"705 446 OFFCURVE",
"700 441 OFFCURVE",
"698 436 CURVE",
"688 433 OFFCURVE",
"678 429 OFFCURVE",
"667 424 CURVE",
"655 423 OFFCURVE",
"640 415 OFFCURVE",
"625 403 CURVE",
"617 399 OFFCURVE",
"609 394 OFFCURVE",
"601 389 CURVE",
"590 403 OFFCURVE",
"581 422 OFFCURVE",
"585 431 CURVE",
"591 438 OFFCURVE",
"595 445 OFFCURVE",
"595 453 CURVE SMOOTH",
"595 458 OFFCURVE",
"593 464 OFFCURVE",
"588 469 CURVE",
"586 470 LINE",
"591 490 OFFCURVE",
"617 537 OFFCURVE",
"626 552 CURVE SMOOTH",
"636 569 OFFCURVE",
"644 578 OFFCURVE",
"652 584 CURVE",
"662 588 OFFCURVE",
"673 592 OFFCURVE",
"684 594 CURVE SMOOTH",
"700 597 LINE SMOOTH",
"709 599 OFFCURVE",
"718 600 OFFCURVE",
"728 600 CURVE SMOOTH",
"744 600 LINE SMOOTH",
"746 600 OFFCURVE",
"748 601 OFFCURVE",
"750 601 CURVE SMOOTH",
"754 601 LINE SMOOTH",
"790 601 OFFCURVE",
"900 595 OFFCURVE",
"900 541 CURVE SMOOTH",
"900 519 OFFCURVE",
"889 500 OFFCURVE",
"871 500 CURVE SMOOTH",
"853 500 OFFCURVE",
"804 501 OFFCURVE",
"804 528 CURVE SMOOTH",
"804 539 OFFCURVE",
"806 544 OFFCURVE",
"806 554 CURVE SMOOTH",
"806 566 OFFCURVE",
"802 571 OFFCURVE",
"797 571 CURVE SMOOTH",
"791 571 OFFCURVE",
"784 566 OFFCURVE",
"778 555 CURVE SMOOTH",
"773 546 OFFCURVE",
"770 539 OFFCURVE",
"770 528 CURVE SMOOTH",
"770 475 OFFCURVE",
"823 462 OFFCURVE",
"863 462 CURVE SMOOTH",
"912 462 OFFCURVE",
"934 516 OFFCURVE",
"934 541 CURVE SMOOTH",
"934 624 OFFCURVE",
"812 635 OFFCURVE",
"754 635 CURVE SMOOTH",
"745 635 OFFCURVE",
"736 634 OFFCURVE",
"727 634 CURVE SMOOTH",
"707 634 LINE SMOOTH",
"698 634 OFFCURVE",
"687 629 OFFCURVE",
"678 628 CURVE SMOOTH",
"665 627 OFFCURVE",
"654 623 OFFCURVE",
"643 617 CURVE",
"619 609 OFFCURVE",
"596 595 OFFCURVE",
"574 578 CURVE SMOOTH",
"548 558 OFFCURVE",
"538 519 OFFCURVE",
"534 485 CURVE",
"516 504 OFFCURVE",
"493 521 OFFCURVE",
"475 535 CURVE SMOOTH",
"444 560 OFFCURVE",
"399 568 OFFCURVE",
"354 570 CURVE",
"386 595 OFFCURVE",
"427 614 OFFCURVE",
"464 614 CURVE SMOOTH",
"468 614 OFFCURVE",
"476 606 OFFCURVE",
"479 603 CURVE",
"477 598 LINE SMOOTH",
"475 593 OFFCURVE",
"474 590 OFFCURVE",
"474 586 CURVE SMOOTH",
"474 577 OFFCURVE",
"481 573 OFFCURVE",
"489 573 CURVE SMOOTH",
"501 573 OFFCURVE",
"517 583 OFFCURVE",
"517 603 CURVE SMOOTH",
"517 627 OFFCURVE",
"485 651 OFFCURVE",
"464 651 CURVE SMOOTH",
"403 651 OFFCURVE",
"339 613 OFFCURVE",
"299 571 CURVE",
"254 571 LINE",
"225 571 LINE SMOOTH",
"199 571 OFFCURVE",
"193 575 OFFCURVE",
"172 575 CURVE SMOOTH",
"158 575 OFFCURVE",
"143 568 OFFCURVE",
"136 556 CURVE",
"122 557 OFFCURVE",
"99 561 OFFCURVE",
"99 539 CURVE SMOOTH",
"99 534 LINE",
"97 530 OFFCURVE",
"91 527 OFFCURVE",
"89 522 CURVE",
"86 522 LINE SMOOTH",
"79 521 OFFCURVE",
"75 517 OFFCURVE",
"69 513 CURVE",
"73 503 LINE",
"68 503 LINE",
"66 500 OFFCURVE",
"64 497 OFFCURVE",
"63 494 CURVE",
"50 477 LINE",
"29 472 OFFCURVE",
"23 461 OFFCURVE",
"23 447 CURVE SMOOTH",
"23 440 OFFCURVE",
"24 433 OFFCURVE",
"26 425 CURVE",
"18 423 OFFCURVE",
"11 416 OFFCURVE",
"11 408 CURVE SMOOTH",
"11 406 OFFCURVE",
"12 405 OFFCURVE",
"12 403 CURVE SMOOTH",
"13 399 OFFCURVE",
"13 395 OFFCURVE",
"13 391 CURVE SMOOTH",
"13 376 OFFCURVE",
"8 362 OFFCURVE",
"8 346 CURVE SMOOTH",
"8 333 OFFCURVE",
"17 325 OFFCURVE",
"28 321 CURVE",
"39 286 OFFCURVE",
"59 262 OFFCURVE",
"85 244 CURVE",
"83 239 OFFCURVE",
"82 232 OFFCURVE",
"82 225 CURVE SMOOTH",
"82 214 OFFCURVE",
"83 204 OFFCURVE",
"84 194 CURVE",
"83 177 OFFCURVE",
"80 161 OFFCURVE",
"80 145 CURVE SMOOTH",
"80 134 OFFCURVE",
"89 120 OFFCURVE",
"88 113 CURVE",
"106 92 LINE SMOOTH",
"104 94 OFFCURVE",
"102 95 OFFCURVE",
"99 95 CURVE",
"105 82 OFFCURVE",
"107 72 OFFCURVE",
"117 61 CURVE SMOOTH",
"122 55 LINE",
"127 45 OFFCURVE",
"135 32 OFFCURVE",
"148 13 CURVE SMOOTH",
"166 -13 OFFCURVE",
"201 -17 OFFCURVE",
"235 -17 CURVE SMOOTH",
"252 -17 OFFCURVE",
"267 -16 OFFCURVE",
"281 -16 CURVE SMOOTH",
"286 -16 LINE",
"288 -16 LINE SMOOTH",
"349 -14 OFFCURVE",
"392 13 OFFCURVE",
"430 44 CURVE",
"445 -23 OFFCURVE",
"503 -66 OFFCURVE",
"566 -66 CURVE SMOOTH"
);
},
{
closed = 1;
nodes = (
"66 -15 LINE",
"64 -15 LINE",
"63 -14 LINE",
"64 -16 OFFCURVE",
"65 -18 OFFCURVE",
"67 -20 CURVE"
);
},
{
closed = 1;
nodes = (
"79 302 OFFCURVE",
"67 330 OFFCURVE",
"67 369 CURVE SMOOTH",
"67 386 OFFCURVE",
"72 393 OFFCURVE",
"82 405 CURVE SMOOTH",
"105 431 OFFCURVE",
"99 425 OFFCURVE",
"100 455 CURVE",
"109 473 OFFCURVE",
"147 467 OFFCURVE",
"167 510 CURVE SMOOTH",
"176 530 OFFCURVE",
"209 534 OFFCURVE",
"235 534 CURVE SMOOTH",
"245 534 LINE SMOOTH",
"251 534 OFFCURVE",
"257 533 OFFCURVE",
"262 532 CURVE",
"257 526 OFFCURVE",
"254 518 OFFCURVE",
"252 509 CURVE",
"223 484 OFFCURVE",
"150 421 OFFCURVE",
"136 394 CURVE SMOOTH",
"131 383 OFFCURVE",
"117 368 OFFCURVE",
"117 356 CURVE SMOOTH",
"117 352 OFFCURVE",
"118 349 OFFCURVE",
"121 346 CURVE",
"105 334 OFFCURVE",
"106 317 OFFCURVE",
"105 300 CURVE SMOOTH",
"104 293 OFFCURVE",
"102 287 OFFCURVE",
"100 281 CURVE"
);
},
{
closed = 1;
nodes = (
"207 24 LINE",
"182 33 OFFCURVE",
"171 53 OFFCURVE",
"153 75 CURVE",
"150 82 OFFCURVE",
"148 88 OFFCURVE",
"147 92 CURVE SMOOTH",
"146 95 LINE",
"147 98 OFFCURVE",
"146 101 OFFCURVE",
"145 105 CURVE SMOOTH",
"143 113 LINE SMOOTH",
"138 139 OFFCURVE",
"131 175 OFFCURVE",
"131 189 CURVE SMOOTH",
"131 198 OFFCURVE",
"133 207 OFFCURVE",
"134 217 CURVE",
"177 200 OFFCURVE",
"227 195 OFFCURVE",
"272 195 CURVE SMOOTH",
"314 195 OFFCURVE",
"360 212 OFFCURVE",
"393 241 CURVE",
"419 243 OFFCURVE",
"441 270 OFFCURVE",
"441 298 CURVE SMOOTH",
"441 303 OFFCURVE",
"440 309 OFFCURVE",
"439 314 CURVE",
"440 321 OFFCURVE",
"441 330 OFFCURVE",
"441 338 CURVE SMOOTH",
"441 405 OFFCURVE",
"399 413 OFFCURVE",
"355 413 CURVE SMOOTH",
"300 413 OFFCURVE",
"263 372 OFFCURVE",
"263 323 CURVE SMOOTH",
"263 311 OFFCURVE",
"272 304 OFFCURVE",
"282 304 CURVE SMOOTH",
"291 304 OFFCURVE",
"300 311 OFFCURVE",
"300 323 CURVE SMOOTH",
"300 338 OFFCURVE",
"306 351 OFFCURVE",
"315 360 CURVE",
"317 361 OFFCURVE",
"319 362 OFFCURVE",
"320 363 CURVE",
"327 367 LINE SMOOTH",
"329 368 OFFCURVE",
"330 369 OFFCURVE",
"332 369 CURVE SMOOTH",
"347 368 OFFCURVE",
"376 358 OFFCURVE",
"385 349 CURVE",
"386 341 OFFCURVE",
"384 331 OFFCURVE",
"384 322 CURVE SMOOTH",
"384 313 OFFCURVE",
"386 305 OFFCURVE",
"394 300 CURVE",
"389 290 OFFCURVE",
"382 282 OFFCURVE",
"374 274 CURVE",
"369 271 OFFCURVE",
"364 267 OFFCURVE",
"360 264 CURVE SMOOTH",
"334 244 OFFCURVE",
"301 239 OFFCURVE",
"268 239 CURVE SMOOTH",
"267 239 LINE SMOOTH",
"231 246 OFFCURVE",
"187 245 OFFCURVE",
"149 255 CURVE",
"150 259 OFFCURVE",
"151 263 OFFCURVE",
"151 267 CURVE SMOOTH",
"151 272 OFFCURVE",
"150 277 OFFCURVE",
"150 281 CURVE SMOOTH",
"150 285 OFFCURVE",
"151 289 OFFCURVE",
"152 291 CURVE",
"154 304 LINE SMOOTH",
"154 303 OFFCURVE",
"155 302 OFFCURVE",
"156 301 CURVE",
"175 313 OFFCURVE",
"185 335 OFFCURVE",
"183 359 CURVE",
"196 361 OFFCURVE",
"201 372 OFFCURVE",
"203 384 CURVE SMOOTH",
"204 388 LINE",
"214 396 OFFCURVE",
"215 401 OFFCURVE",
"215 408 CURVE SMOOTH",
"215 410 OFFCURVE",
"215 412 OFFCURVE",
"215 415 CURVE SMOOTH",
"215 417 OFFCURVE",
"215 418 OFFCURVE",
"215 420 CURVE",
"218 422 LINE SMOOTH",
"226 427 OFFCURVE",
"232 435 OFFCURVE",
"240 440 CURVE SMOOTH",
"280 465 OFFCURVE",
"278 464 OFFCURVE",
"285 491 CURVE",
"290 498 OFFCURVE",
"295 506 OFFCURVE",
"300 514 CURVE",
"303 516 LINE",
"305 520 OFFCURVE",
"308 524 OFFCURVE",
"312 529 CURVE SMOOTH",
"313 530 OFFCURVE",
"315 532 OFFCURVE",
"317 533 CURVE",
"319 531 OFFCURVE",
"322 531 OFFCURVE",
"326 531 CURVE SMOOTH",
"365 531 LINE",
"384 528 OFFCURVE",
"412 522 OFFCURVE",
"435 511 CURVE SMOOTH",
"479 492 OFFCURVE",
"469 476 OFFCURVE",
"480 455 CURVE",
"480 452 LINE SMOOTH",
"480 441 OFFCURVE",
"483 424 OFFCURVE",
"489 408 CURVE",
"485 401 OFFCURVE",
"483 391 OFFCURVE",
"483 382 CURVE SMOOTH",
"483 374 OFFCURVE",
"484 366 OFFCURVE",
"485 358 CURVE SMOOTH",
"485 357 OFFCURVE",
"484 356 OFFCURVE",
"484 354 CURVE SMOOTH",
"484 352 OFFCURVE",
"485 348 OFFCURVE",
"486 344 CURVE SMOOTH",
"486 340 LINE SMOOTH",
"486 339 OFFCURVE",
"486 338 OFFCURVE",
"487 337 CURVE",
"491 322 OFFCURVE",
"496 303 OFFCURVE",
"498 291 CURVE",
"492 286 LINE SMOOTH",
"477 275 OFFCURVE",
"468 262 OFFCURVE",
"468 247 CURVE SMOOTH",
"468 244 OFFCURVE",
"468 240 OFFCURVE",
"469 237 CURVE",
"456 215 OFFCURVE",
"452 182 OFFCURVE",
"449 157 CURVE",
"443 148 LINE",
"440 143 LINE",
"408 110 OFFCURVE",
"360 32 OFFCURVE",
"312 32 CURVE SMOOTH",
"281 32 OFFCURVE",
"262 24 OFFCURVE",
"243 21 CURVE"
);
},
{
closed = 1;
nodes = (
"672 359 OFFCURVE",
"668 360 OFFCURVE",
"664 360 CURVE SMOOTH",
"654 360 LINE",
"647 362 OFFCURVE",
"640 363 OFFCURVE",
"633 365 CURVE",
"647 380 OFFCURVE",
"661 390 OFFCURVE",
"670 390 CURVE SMOOTH",
"679 390 OFFCURVE",
"684 396 OFFCURVE",
"686 402 CURVE",
"700 406 OFFCURVE",
"714 409 OFFCURVE",
"727 410 CURVE",
"737 407 OFFCURVE",
"739 402 OFFCURVE",
"739 395 CURVE SMOOTH",
"739 364 OFFCURVE",
"699 359 OFFCURVE",
"675 358 CURVE"
);
}
);
width = 985;
}
);
note = OE;
unicode = 0152;
},
{
glyphname = P;
lastChange = "2021-06-24 05:27:24 +0000";
layers = (
{
layerId = "5C71BA0D-BC2C-47B0-9323-6F63B3241D58";
paths = (
{
closed = 1;
nodes = (
"469 167 OFFCURVE",
"474 168 OFFCURVE",
"479 168 CURVE SMOOTH",
"489 168 LINE SMOOTH",
"500 168 OFFCURVE",
"508 169 OFFCURVE",
"513 173 CURVE",
"559 184 OFFCURVE",
"597 210 OFFCURVE",
"623 246 CURVE",
"626 247 LINE SMOOTH",
"673 267 OFFCURVE",
"700 378 OFFCURVE",
"700 421 CURVE SMOOTH",
"700 465 OFFCURVE",
"679 485 OFFCURVE",
"678 525 CURVE SMOOTH",
"676 575 OFFCURVE",
"636 591 OFFCURVE",
"594 606 CURVE",
"583 635 OFFCURVE",
"543 637 OFFCURVE",
"517 637 CURVE SMOOTH",
"491 637 OFFCURVE",
"457 665 OFFCURVE",
"425 665 CURVE SMOOTH",
"423 665 OFFCURVE",
"418 665 OFFCURVE",
"412 660 CURVE SMOOTH",
"409 658 LINE",
"407 655 OFFCURVE",
"398 648 OFFCURVE",
"396 648 CURVE SMOOTH",
"382 648 OFFCURVE",
"376 651 OFFCURVE",
"359 651 CURVE SMOOTH",
"332 651 OFFCURVE",
"277 650 OFFCURVE",
"259 630 CURVE SMOOTH",
"256 627 OFFCURVE",
"256 628 OFFCURVE",
"254 626 CURVE",
"203 613 OFFCURVE",
"162 611 OFFCURVE",
"133 577 CURVE",
"131 577 OFFCURVE",
"128 575 OFFCURVE",
"126 573 CURVE SMOOTH",
"66 526 OFFCURVE",
"39 469 OFFCURVE",
"39 388 CURVE SMOOTH",
"39 345 OFFCURVE",
"83 270 OFFCURVE",
"138 270 CURVE",
"142 268 OFFCURVE",
"145 267 OFFCURVE",
"148 266 CURVE SMOOTH",
"154 265 OFFCURVE",
"159 266 OFFCURVE",
"163 268 CURVE",
"176 268 LINE SMOOTH",
"191 268 OFFCURVE",
"200 267 OFFCURVE",
"207 267 CURVE SMOOTH",
"218 267 OFFCURVE",
"220 270 OFFCURVE",
"229 288 CURVE",
"232 289 OFFCURVE",
"264 303 OFFCURVE",
"266 305 CURVE SMOOTH",
"289 328 OFFCURVE",
"296 325 OFFCURVE",
"296 367 CURVE SMOOTH",
"296 380 OFFCURVE",
"296 393 OFFCURVE",
"293 406 CURVE SMOOTH",
"287 437 OFFCURVE",
"274 447 OFFCURVE",
"261 447 CURVE SMOOTH",
"248 447 OFFCURVE",
"235 435 OFFCURVE",
"235 424 CURVE SMOOTH",
"235 417 OFFCURVE",
"240 411 OFFCURVE",
"253 410 CURVE",
"259 401 OFFCURVE",
"259 378 OFFCURVE",
"259 367 CURVE SMOOTH",
"259 298 OFFCURVE",
"233 325 OFFCURVE",
"199 310 CURVE SMOOTH",
"191 306 OFFCURVE",
"184 305 OFFCURVE",
"176 305 CURVE SMOOTH",
"167 305 OFFCURVE",
"158 306 OFFCURVE",
"149 306 CURVE",
"130 319 OFFCURVE",
"101 354 OFFCURVE",
"108 369 CURVE SMOOTH",
"112 378 OFFCURVE",
"114 386 OFFCURVE",
"114 393 CURVE SMOOTH",
"114 415 OFFCURVE",
"100 432 OFFCURVE",
"100 457 CURVE SMOOTH",
"100 464 OFFCURVE",
"136 500 OFFCURVE",
"145 523 CURVE SMOOTH",
"177 606 OFFCURVE",
"250 565 OFFCURVE",
"286 605 CURVE",
"306 612 OFFCURVE",
"337 614 OFFCURVE",
"359 614 CURVE SMOOTH",
"376 614 OFFCURVE",
"382 611 OFFCURVE",
"396 611 CURVE SMOOTH",
"399 611 OFFCURVE",
"402 612 OFFCURVE",
"405 613 CURVE",
"407 612 OFFCURVE",
"409 611 OFFCURVE",
"412 611 CURVE SMOOTH",
"444 607 OFFCURVE",
"465 583 OFFCURVE",
"502 583 CURVE SMOOTH",
"510 583 OFFCURVE",
"525 565 OFFCURVE",
"547 565 CURVE SMOOTH",
"549 565 OFFCURVE",
"551 566 OFFCURVE",
"553 566 CURVE",
"555 553 OFFCURVE",
"562 543 OFFCURVE",
"581 543 CURVE",
"588 544 LINE",
"600 532 LINE",
"606 514 OFFCURVE",
"616 496 OFFCURVE",
"616 488 CURVE",
"618 489 OFFCURVE",
"619 490 OFFCURVE",
"619 491 CURVE SMOOTH",
"618 462 LINE",
"622 459 OFFCURVE",
"625 455 OFFCURVE",
"628 451 CURVE SMOOTH",
"630 449 LINE",
"625 442 OFFCURVE",
"622 434 OFFCURVE",
"622 426 CURVE SMOOTH",
"622 420 OFFCURVE",
"624 413 OFFCURVE",
"629 407 CURVE",
"627 404 OFFCURVE",
"625 400 OFFCURVE",
"623 396 CURVE SMOOTH",
"618 386 OFFCURVE",
"616 378 OFFCURVE",
"616 372 CURVE SMOOTH",
"616 363 OFFCURVE",
"620 360 OFFCURVE",
"627 359 CURVE SMOOTH",
"626 359 OFFCURVE",
"625 358 OFFCURVE",
"625 358 CURVE",
"619 356 LINE SMOOTH",
"609 352 OFFCURVE",
"602 345 OFFCURVE",
"601 339 CURVE SMOOTH",
"584 276 OFFCURVE",
"565 277 OFFCURVE",
"518 236 CURVE SMOOTH",
"512 230 OFFCURVE",
"503 214 OFFCURVE",
"494 207 CURVE",
"489 206 OFFCURVE",
"483 205 OFFCURVE",
"478 205 CURVE SMOOTH",
"471 205 OFFCURVE",
"465 206 OFFCURVE",
"457 205 CURVE",
"441 209 OFFCURVE",
"432 223 OFFCURVE",
"432 240 CURVE SMOOTH",
"432 242 OFFCURVE",
"432 244 OFFCURVE",
"433 245 CURVE",
"435 251 OFFCURVE",
"436 256 OFFCURVE",
"436 261 CURVE SMOOTH",
"436 272 OFFCURVE",
"430 277 OFFCURVE",
"422 277 CURVE SMOOTH",
"410 277 OFFCURVE",
"395 265 OFFCURVE",
"395 240 CURVE SMOOTH",
"395 207 OFFCURVE",
"417 167 OFFCURVE",
"465 167 CURVE SMOOTH"
);
},
{
closed = 1;
nodes = (
"191 -91 OFFCURVE",
"207 -85 OFFCURVE",
"221 -77 CURVE",
"240 -73 OFFCURVE",
"259 -64 OFFCURVE",
"271 -50 CURVE",
"284 -41 OFFCURVE",
"292 -30 OFFCURVE",
"301 -16 CURVE",
"317 -12 OFFCURVE",
"328 -7 OFFCURVE",
"331 13 CURVE",
"340 21 OFFCURVE",
"345 32 OFFCURVE",
"347 44 CURVE",
"348 45 LINE SMOOTH",
"390 99 OFFCURVE",
"370 183 OFFCURVE",
"386 248 CURVE SMOOTH",
"392 269 OFFCURVE",
"386 327 OFFCURVE",
"395 341 CURVE SMOOTH",
"416 374 OFFCURVE",
"418 408 OFFCURVE",
"425 445 CURVE",
"427 446 LINE SMOOTH",
"442 454 OFFCURVE",
"444 468 OFFCURVE",
"443 484 CURVE",
"446 486 LINE",
"448 487 LINE SMOOTH",
"478 499 OFFCURVE",
"465 523 OFFCURVE",
"491 527 CURVE SMOOTH",
"503 529 OFFCURVE",
"508 535 OFFCURVE",
"508 542 CURVE SMOOTH",
"508 552 OFFCURVE",
"497 564 OFFCURVE",
"481 564 CURVE SMOOTH",
"468 564 OFFCURVE",
"452 555 OFFCURVE",
"439 528 CURVE",
"438 528 LINE",
"421 514 LINE SMOOTH",
"419 512 OFFCURVE",
"417 511 OFFCURVE",
"416 510 CURVE SMOOTH",
"361 465 OFFCURVE",
"355 451 OFFCURVE",
"345 365 CURVE SMOOTH",
"342 346 OFFCURVE",
"339 337 OFFCURVE",
"339 327 CURVE SMOOTH",
"339 322 OFFCURVE",
"340 317 OFFCURVE",
"343 309 CURVE",
"332 296 OFFCURVE",
"324 289 OFFCURVE",
"324 277 CURVE SMOOTH",
"324 271 OFFCURVE",
"326 264 OFFCURVE",
"331 254 CURVE",
"325 249 OFFCURVE",
"323 243 OFFCURVE",
"323 236 CURVE SMOOTH",
"323 223 OFFCURVE",
"332 208 OFFCURVE",
"341 197 CURVE",
"313 166 OFFCURVE",
"317 152 OFFCURVE",
"317 134 CURVE SMOOTH",
"317 122 OFFCURVE",
"316 109 OFFCURVE",
"304 89 CURVE SMOOTH",
"287 61 OFFCURVE",
"273 39 OFFCURVE",
"261 11 CURVE",
"239 0 OFFCURVE",
"230 -20 OFFCURVE",
"215 -35 CURVE",
"209 -38 OFFCURVE",
"201 -42 OFFCURVE",
"195 -45 CURVE",
"186 -45 LINE SMOOTH",
"166 -45 OFFCURVE",
"135 -43 OFFCURVE",
"107 -34 CURVE",
"102 -26 OFFCURVE",
"95 -21 OFFCURVE",
"87 -17 CURVE",
"87 -1 OFFCURVE",
"92 19 OFFCURVE",
"73 36 CURVE SMOOTH",
"68 40 LINE",
"69 57 OFFCURVE",
"86 71 OFFCURVE",
"96 83 CURVE SMOOTH",
"102 91 OFFCURVE",
"106 102 OFFCURVE",
"111 109 CURVE",
"121 112 OFFCURVE",
"132 114 OFFCURVE",
"144 114 CURVE SMOOTH",
"170 114 OFFCURVE",
"182 102 OFFCURVE",
"183 88 CURVE",
"185 82 OFFCURVE",
"185 77 OFFCURVE",
"185 73 CURVE SMOOTH",
"185 51 OFFCURVE",
"166 49 OFFCURVE",
"152 42 CURVE",
"138 57 LINE SMOOTH",
"135 61 OFFCURVE",
"133 64 OFFCURVE",
"131 65 CURVE SMOOTH",
"125 69 OFFCURVE",
"120 71 OFFCURVE",
"116 71 CURVE SMOOTH",
"107 71 OFFCURVE",
"102 63 OFFCURVE",
"102 54 CURVE SMOOTH",
"102 36 OFFCURVE",
"120 9 OFFCURVE",
"163 9 CURVE SMOOTH",
"194 9 OFFCURVE",
"232 43 OFFCURVE",
"232 77 CURVE SMOOTH",
"232 143 OFFCURVE",
"184 154 OFFCURVE",
"131 154 CURVE",
"129 155 OFFCURVE",
"126 156 OFFCURVE",
"122 155 CURVE SMOOTH",
"119 155 OFFCURVE",
"116 154 OFFCURVE",
"113 154 CURVE SMOOTH",
"46 146 OFFCURVE",
"11 88 OFFCURVE",
"11 25 CURVE SMOOTH",
"11 21 OFFCURVE",
"11 18 OFFCURVE",
"12 14 CURVE",
"10 -9 OFFCURVE",
"19 -22 OFFCURVE",
"31 -30 CURVE",
"41 -42 OFFCURVE",
"54 -51 OFFCURVE",
"70 -59 CURVE",
"73 -62 OFFCURVE",
"76 -65 OFFCURVE",
"80 -67 CURVE",
"83 -73 OFFCURVE",
"89 -77 OFFCURVE",
"96 -77 CURVE",
"109 -83 OFFCURVE",
"123 -87 OFFCURVE",
"136 -87 CURVE SMOOTH",
"140 -87 LINE",
"149 -89 OFFCURVE",
"157 -91 OFFCURVE",
"166 -91 CURVE SMOOTH"
);
}
);
width = 713;
}
);
note = P;
unicode = 0050;
},
{
glyphname = Thorn;
lastChange = "2021-06-24 05:27:24 +0000";
layers = (
{
layerId = "5C71BA0D-BC2C-47B0-9323-6F63B3241D58";
paths = (
{
closed = 1;
nodes = (
"177 -21 LINE SMOOTH",
"190 -21 OFFCURVE",
"194 -3 OFFCURVE",
"194 19 CURVE SMOOTH",
"194 44 OFFCURVE",
"189 74 OFFCURVE",
"187 83 CURVE",
"186 162 LINE",
"187 163 LINE",
"201 154 OFFCURVE",
"219 149 OFFCURVE",
"244 149 CURVE SMOOTH",
"248 149 OFFCURVE",
"254 150 OFFCURVE",
"261 150 CURVE SMOOTH",
"272 150 LINE SMOOTH",
"286 150 OFFCURVE",
"295 150 OFFCURVE",
"301 154 CURVE",
"356 163 OFFCURVE",
"401 185 OFFCURVE",
"433 215 CURVE",
"436 216 LINE SMOOTH",
"492 233 OFFCURVE",
"524 326 OFFCURVE",
"524 362 CURVE SMOOTH",
"524 399 OFFCURVE",
"499 416 OFFCURVE",
"498 450 CURVE SMOOTH",
"496 491 OFFCURVE",
"448 505 OFFCURVE",
"397 518 CURVE",
"385 542 OFFCURVE",
"337 543 OFFCURVE",
"306 543 CURVE SMOOTH",
"278 543 OFFCURVE",
"243 562 OFFCURVE",
"208 566 CURVE",
"206 574 OFFCURVE",
"201 579 OFFCURVE",
"197 584 CURVE",
"196 587 OFFCURVE",
"196 589 OFFCURVE",
"196 593 CURVE",
"199 597 OFFCURVE",
"201 603 OFFCURVE",
"201 610 CURVE SMOOTH",
"201 615 OFFCURVE",
"200 621 OFFCURVE",
"196 627 CURVE",
"194 628 LINE",
"198 642 OFFCURVE",
"200 655 OFFCURVE",
"200 670 CURVE",
"179 683 LINE",
"177 687 OFFCURVE",
"172 690 OFFCURVE",
"167 690 CURVE SMOOTH",
"159 690 OFFCURVE",
"151 684 OFFCURVE",
"151 673 CURVE",
"150 668 LINE",
"148 665 OFFCURVE",
"146 662 OFFCURVE",
"145 657 CURVE",
"137 654 OFFCURVE",
"131 647 OFFCURVE",
"131 636 CURVE SMOOTH",
"131 626 OFFCURVE",
"135 619 OFFCURVE",
"141 614 CURVE",
"138 557 LINE",
"138 554 LINE SMOOTH",
"138 551 OFFCURVE",
"137 549 OFFCURVE",
"137 547 CURVE",
"131 544 OFFCURVE",
"129 540 OFFCURVE",
"129 536 CURVE SMOOTH",
"129 533 OFFCURVE",
"131 529 OFFCURVE",
"136 526 CURVE",
"135 510 OFFCURVE",
"134 494 OFFCURVE",
"134 479 CURVE",
"131 474 OFFCURVE",
"130 470 OFFCURVE",
"130 465 CURVE SMOOTH",
"130 458 OFFCURVE",
"132 450 OFFCURVE",
"132 441 CURVE SMOOTH",
"132 438 OFFCURVE",
"132 435 OFFCURVE",
"131 431 CURVE",
"134 425 LINE",
"135 409 OFFCURVE",
"135 334 OFFCURVE",
"135 318 CURVE",
"130 309 OFFCURVE",
"125 301 OFFCURVE",
"125 282 CURVE SMOOTH",
"125 269 OFFCURVE",
"128 250 OFFCURVE",
"134 222 CURVE SMOOTH",
"135 218 OFFCURVE",
"136 213 OFFCURVE",
"136 208 CURVE SMOOTH",
"136 169 LINE",
"128 163 OFFCURVE",
"120 157 OFFCURVE",
"120 148 CURVE SMOOTH",
"120 137 OFFCURVE",
"125 102 OFFCURVE",
"132 97 CURVE",
"126 75 OFFCURVE",
"120 54 OFFCURVE",
"120 23 CURVE",
"121 22 LINE",
"116 13 OFFCURVE",
"112 1 OFFCURVE",
"112 -7 CURVE SMOOTH",
"112 -15 OFFCURVE",
"116 -21 OFFCURVE",
"127 -21 CURVE SMOOTH"
);
},
{
closed = 1;
nodes = (
"215 184 OFFCURVE",
"204 196 OFFCURVE",
"204 210 CURVE SMOOTH",
"204 212 LINE SMOOTH",
"204 213 OFFCURVE",
"205 213 OFFCURVE",
"206 214 CURVE",
"209 219 OFFCURVE",
"210 223 OFFCURVE",
"210 227 CURVE SMOOTH",
"210 230 OFFCURVE",
"209 233 OFFCURVE",
"207 235 CURVE",
"208 245 OFFCURVE",
"209 254 OFFCURVE",
"209 260 CURVE SMOOTH",
"209 281 OFFCURVE",
"199 288 OFFCURVE",
"194 304 CURVE",
"197 306 LINE",
"202 314 OFFCURVE",
"204 330 OFFCURVE",
"204 347 CURVE SMOOTH",
"204 376 OFFCURVE",
"198 407 OFFCURVE",
"191 414 CURVE",
"191 434 OFFCURVE",
"190 459 OFFCURVE",
"190 481 CURVE",
"191 484 OFFCURVE",
"192 488 OFFCURVE",
"192 492 CURVE SMOOTH",
"192 495 OFFCURVE",
"191 499 OFFCURVE",
"190 503 CURVE",
"190 504 LINE",
"194 508 OFFCURVE",
"197 513 OFFCURVE",
"199 519 CURVE",
"227 512 OFFCURVE",
"251 498 OFFCURVE",
"288 498 CURVE SMOOTH",
"298 498 OFFCURVE",
"332 478 OFFCURVE",
"358 478 CURVE SMOOTH",
"361 478 OFFCURVE",
"362 479 OFFCURVE",
"365 479 CURVE",
"368 468 OFFCURVE",
"376 459 OFFCURVE",
"398 459 CURVE SMOOTH",
"401 459 OFFCURVE",
"405 460 OFFCURVE",
"406 460 CURVE",
"421 450 LINE",
"428 435 OFFCURVE",
"441 420 OFFCURVE",
"441 414 CURVE",
"442 414 OFFCURVE",
"444 414 OFFCURVE",
"444 415 CURVE SMOOTH",
"442 391 LINE",
"448 389 OFFCURVE",
"451 385 OFFCURVE",
"455 382 CURVE SMOOTH",
"457 380 LINE",
"451 375 OFFCURVE",
"448 368 OFFCURVE",
"448 362 CURVE SMOOTH",
"448 356 OFFCURVE",
"450 350 OFFCURVE",
"456 345 CURVE",
"453 343 OFFCURVE",
"451 340 OFFCURVE",
"449 336 CURVE",
"443 327 OFFCURVE",
"440 321 OFFCURVE",
"440 316 CURVE SMOOTH",
"440 309 OFFCURVE",
"446 306 OFFCURVE",
"453 305 CURVE SMOOTH",
"452 305 OFFCURVE",
"451 304 OFFCURVE",
"451 304 CURVE",
"444 303 LINE",
"432 299 OFFCURVE",
"424 293 OFFCURVE",
"423 288 CURVE",
"402 236 OFFCURVE",
"394 247 OFFCURVE",
"338 212 CURVE SMOOTH",
"331 207 OFFCURVE",
"289 188 OFFCURVE",
"279 182 CURVE",
"272 181 OFFCURVE",
"265 181 OFFCURVE",
"259 181 CURVE SMOOTH",
"235 181 LINE"
);
}
);
width = 570;
}
);
note = Thorn;
unicode = 00DE;
},
{
glyphname = Q;
lastChange = "2021-06-24 05:27:24 +0000";
layers = (
{
layerId = "5C71BA0D-BC2C-47B0-9323-6F63B3241D58";
paths = (
{
closed = 1;
nodes = (
"596 -341 OFFCURVE",
"610 -337 OFFCURVE",
"623 -332 CURVE",
"670 -320 OFFCURVE",
"701 -285 OFFCURVE",
"727 -246 CURVE SMOOTH",
"732 -240 OFFCURVE",
"733 -234 OFFCURVE",
"733 -228 CURVE SMOOTH",
"733 -219 OFFCURVE",
"729 -210 OFFCURVE",
"723 -201 CURVE",
"727 -197 OFFCURVE",
"733 -190 OFFCURVE",
"733 -178 CURVE SMOOTH",
"733 -139 OFFCURVE",
"701 -67 OFFCURVE",
"652 -66 CURVE",
"651 -64 LINE",
"644 -59 OFFCURVE",
"637 -55 OFFCURVE",
"628 -55 CURVE SMOOTH",
"606 -55 OFFCURVE",
"595 -65 OFFCURVE",
"591 -75 CURVE",
"572 -93 OFFCURVE",
"567 -129 OFFCURVE",
"567 -152 CURVE SMOOTH",
"567 -168 OFFCURVE",
"573 -197 OFFCURVE",
"576 -208 CURVE SMOOTH",
"579 -217 OFFCURVE",
"586 -221 OFFCURVE",
"593 -221 CURVE SMOOTH",
"605 -221 OFFCURVE",
"616 -211 OFFCURVE",
"612 -196 CURVE",
"609 -189 OFFCURVE",
"604 -164 OFFCURVE",
"604 -152 CURVE SMOOTH",
"604 -143 OFFCURVE",
"607 -108 OFFCURVE",
"617 -102 CURVE",
"648 -102 OFFCURVE",
"666 -138 OFFCURVE",
"666 -183 CURVE SMOOTH",
"666 -233 OFFCURVE",
"647 -281 OFFCURVE",
"609 -297 CURVE",
"602 -299 OFFCURVE",
"595 -299 OFFCURVE",
"587 -299 CURVE SMOOTH",
"574 -299 OFFCURVE",
"560 -300 OFFCURVE",
"548 -299 CURVE",
"487 -280 OFFCURVE",
"484 -203 OFFCURVE",
"476 -146 CURVE SMOOTH",
"470 -93 OFFCURVE",
"454 -42 OFFCURVE",
"441 10 CURVE",
"458 17 OFFCURVE",
"472 25 OFFCURVE",
"483 34 CURVE",
"485 35 LINE",
"490 36 OFFCURVE",
"495 39 OFFCURVE",
"498 43 CURVE",
"498 44 OFFCURVE",
"499 46 OFFCURVE",
"500 47 CURVE SMOOTH",
"519 60 OFFCURVE",
"536 74 OFFCURVE",
"552 92 CURVE SMOOTH",
"572 113 OFFCURVE",
"617 99 OFFCURVE",
"615 154 CURVE SMOOTH",
"615 158 LINE",
"632 179 OFFCURVE",
"630 215 OFFCURVE",
"632 245 CURVE",
"636 257 LINE",
"645 263 OFFCURVE",
"650 277 OFFCURVE",
"651 293 CURVE",
"667 300 OFFCURVE",
"671 309 OFFCURVE",
"671 319 CURVE SMOOTH",
"671 335 OFFCURVE",
"660 353 OFFCURVE",
"663 371 CURVE",
"668 379 OFFCURVE",
"673 384 OFFCURVE",
"673 395 CURVE SMOOTH",
"673 419 OFFCURVE",
"666 421 OFFCURVE",
"656 438 CURVE",
"657 439 LINE SMOOTH",
"664 449 OFFCURVE",
"667 458 OFFCURVE",
"667 468 CURVE SMOOTH",
"667 479 OFFCURVE",
"663 490 OFFCURVE",
"655 503 CURVE",
"653 509 OFFCURVE",
"650 515 OFFCURVE",
"649 521 CURVE SMOOTH",
"638 585 OFFCURVE",
"611 644 OFFCURVE",
"552 674 CURVE",
"547 679 OFFCURVE",
"543 683 OFFCURVE",
"537 686 CURVE",
"531 691 OFFCURVE",
"525 695 OFFCURVE",
"517 695 CURVE SMOOTH",
"516 695 LINE SMOOTH",
"508 696 OFFCURVE",
"499 697 OFFCURVE",
"488 697 CURVE SMOOTH",
"474 697 OFFCURVE",
"458 696 OFFCURVE",
"438 696 CURVE SMOOTH",
"387 696 OFFCURVE",
"300 666 OFFCURVE",
"257 613 CURVE",
"241 609 OFFCURVE",
"226 603 OFFCURVE",
"212 597 CURVE",
"192 599 OFFCURVE",
"175 584 OFFCURVE",
"162 565 CURVE",
"156 560 OFFCURVE",
"152 554 OFFCURVE",
"149 547 CURVE SMOOTH",
"146 541 LINE",
"128 519 OFFCURVE",
"112 527 OFFCURVE",
"91 468 CURVE SMOOTH",
"88 461 OFFCURVE",
"71 450 OFFCURVE",
"64 450 CURVE SMOOTH",
"54 450 OFFCURVE",
"45 442 OFFCURVE",
"45 432 CURVE SMOOTH",
"45 423 OFFCURVE",
"45 413 OFFCURVE",
"44 404 CURVE",
"26 397 OFFCURVE",
"22 382 OFFCURVE",
"22 366 CURVE SMOOTH",
"22 353 OFFCURVE",
"25 339 OFFCURVE",
"25 328 CURVE",
"21 314 OFFCURVE",
"7 313 OFFCURVE",
"7 291 CURVE SMOOTH",
"7 290 OFFCURVE",
"8 286 OFFCURVE",
"10 280 CURVE SMOOTH",
"15 267 OFFCURVE",
"16 264 OFFCURVE",
"16 256 CURVE SMOOTH",
"16 250 OFFCURVE",
"16 242 OFFCURVE",
"16 228 CURVE SMOOTH",
"16 193 OFFCURVE",
"26 165 OFFCURVE",
"42 139 CURVE",
"37 132 OFFCURVE",
"35 123 OFFCURVE",
"31 106 CURVE",
"28 102 OFFCURVE",
"27 98 OFFCURVE",
"27 94 CURVE SMOOTH",
"27 91 OFFCURVE",
"28 88 OFFCURVE",
"30 85 CURVE",
"30 73 LINE SMOOTH",
"30 23 OFFCURVE",
"25 -20 OFFCURVE",
"65 -60 CURVE SMOOTH",
"69 -64 OFFCURVE",
"73 -66 OFFCURVE",
"78 -66 CURVE SMOOTH",
"88 -66 OFFCURVE",
"97 -57 OFFCURVE",
"97 -47 CURVE SMOOTH",
"97 -42 OFFCURVE",
"95 -38 OFFCURVE",
"91 -34 CURVE SMOOTH",
"70 -13 OFFCURVE",
"67 13 OFFCURVE",
"67 40 CURVE SMOOTH",
"67 51 OFFCURVE",
"67 62 OFFCURVE",
"67 73 CURVE SMOOTH",
"67 84 OFFCURVE",
"68 90 OFFCURVE",
"73 97 CURVE",
"84 85 OFFCURVE",
"95 73 OFFCURVE",
"107 61 CURVE",
"107 59 LINE",
"108 55 LINE SMOOTH",
"111 35 OFFCURVE",
"144 18 OFFCURVE",
"178 4 CURVE SMOOTH",
"214 -11 OFFCURVE",
"257 -19 OFFCURVE",
"284 -19 CURVE SMOOTH",
"313 -19 OFFCURVE",
"362 -13 OFFCURVE",
"406 -1 CURVE",
"412 -28 OFFCURVE",
"418 -54 OFFCURVE",
"425 -77 CURVE SMOOTH",
"453 -158 OFFCURVE",
"433 -293 OFFCURVE",
"523 -331 CURVE",
"526 -333 OFFCURVE",
"530 -335 OFFCURVE",
"535 -335 CURVE",
"538 -336 LINE SMOOTH",
"550 -339 OFFCURVE",
"563 -341 OFFCURVE",
"579 -341 CURVE SMOOTH"
);
},
{
closed = 1;
nodes = (
"242 22 OFFCURVE",
"208 32 OFFCURVE",
"181 44 CURVE SMOOTH",
"172 49 OFFCURVE",
"165 55 OFFCURVE",
"162 62 CURVE SMOOTH",
"156 79 OFFCURVE",
"140 119 OFFCURVE",
"121 143 CURVE",
"157 176 OFFCURVE",
"187 192 OFFCURVE",
"254 192 CURVE SMOOTH",
"311 192 OFFCURVE",
"343 147 OFFCURVE",
"371 101 CURVE SMOOTH",
"375 95 LINE",
"381 74 OFFCURVE",
"386 54 OFFCURVE",
"389 38 CURVE",
"348 27 OFFCURVE",
"303 22 OFFCURVE",
"256 22 CURVE SMOOTH"
);
},
{
closed = 1;
nodes = (
"249 405 LINE",
"252 407 LINE",
"253 402 LINE"
);
},
{
closed = 1;
nodes = (
"425 69 OFFCURVE",
"419 87 OFFCURVE",
"410 105 CURVE",
"390 172 OFFCURVE",
"354 242 OFFCURVE",
"280 242 CURVE SMOOTH",
"266 242 OFFCURVE",
"253 240 OFFCURVE",
"239 240 CURVE SMOOTH",
"226 240 OFFCURVE",
"214 241 OFFCURVE",
"202 241 CURVE SMOOTH",
"178 241 OFFCURVE",
"156 238 OFFCURVE",
"136 220 CURVE SMOOTH",
"115 202 OFFCURVE",
"90 209 OFFCURVE",
"84 179 CURVE",
"79 189 OFFCURVE",
"82 197 OFFCURVE",
"80 210 CURVE SMOOTH",
"77 229 OFFCURVE",
"56 250 OFFCURVE",
"56 255 CURVE SMOOTH",
"56 260 OFFCURVE",
"60 264 OFFCURVE",
"63 268 CURVE SMOOTH",
"98 318 OFFCURVE",
"57 366 OFFCURVE",
"106 417 CURVE SMOOTH",
"129 441 OFFCURVE",
"169 503 OFFCURVE",
"183 532 CURVE",
"183 533 LINE",
"186 536 OFFCURVE",
"188 539 OFFCURVE",
"190 542 CURVE",
"196 548 OFFCURVE",
"204 553 OFFCURVE",
"213 558 CURVE",
"217 558 LINE",
"214 550 OFFCURVE",
"211 542 OFFCURVE",
"211 534 CURVE SMOOTH",
"211 518 OFFCURVE",
"217 512 OFFCURVE",
"226 500 CURVE",
"227 490 OFFCURVE",
"212 476 OFFCURVE",
"212 459 CURVE SMOOTH",
"212 452 OFFCURVE",
"216 443 OFFCURVE",
"226 434 CURVE",
"216 427 OFFCURVE",
"210 417 OFFCURVE",
"210 407 CURVE SMOOTH",
"210 400 OFFCURVE",
"212 394 OFFCURVE",
"217 387 CURVE SMOOTH",
"239 358 OFFCURVE",
"253 338 OFFCURVE",
"283 331 CURVE",
"296 324 OFFCURVE",
"311 323 OFFCURVE",
"329 323 CURVE SMOOTH",
"344 323 OFFCURVE",
"360 324 OFFCURVE",
"376 324 CURVE SMOOTH",
"418 324 OFFCURVE",
"455 365 OFFCURVE",
"455 403 CURVE SMOOTH",
"455 432 OFFCURVE",
"447 465 OFFCURVE",
"410 465 CURVE SMOOTH",
"377 465 OFFCURVE",
"366 451 OFFCURVE",
"366 438 CURVE SMOOTH",
"366 426 OFFCURVE",
"374 416 OFFCURVE",
"383 416 CURVE SMOOTH",
"388 416 OFFCURVE",
"393 419 OFFCURVE",
"398 426 CURVE",
"400 426 OFFCURVE",
"405 428 OFFCURVE",
"410 428 CURVE SMOOTH",
"411 428 OFFCURVE",
"412 427 OFFCURVE",
"413 427 CURVE",
"415 424 OFFCURVE",
"418 415 OFFCURVE",
"418 403 CURVE SMOOTH",
"418 383 OFFCURVE",
"396 360 OFFCURVE",
"376 360 CURVE SMOOTH",
"370 360 OFFCURVE",
"363 360 OFFCURVE",
"355 360 CURVE",
"349 363 LINE",
"340 366 OFFCURVE",
"330 366 OFFCURVE",
"321 366 CURVE SMOOTH",
"316 366 OFFCURVE",
"312 366 OFFCURVE",
"307 366 CURVE SMOOTH",
"303 366 LINE",
"299 369 OFFCURVE",
"295 373 OFFCURVE",
"291 379 CURVE SMOOTH",
"271 408 OFFCURVE",
"266 437 OFFCURVE",
"266 468 CURVE SMOOTH",
"266 492 OFFCURVE",
"269 518 OFFCURVE",
"269 547 CURVE SMOOTH",
"269 554 OFFCURVE",
"270 562 OFFCURVE",
"273 569 CURVE",
"278 573 OFFCURVE",
"283 576 OFFCURVE",
"287 577 CURVE SMOOTH",
"292 579 OFFCURVE",
"295 582 OFFCURVE",
"297 585 CURVE",
"315 589 OFFCURVE",
"332 592 OFFCURVE",
"347 593 CURVE SMOOTH",
"353 593 LINE SMOOTH",
"371 593 OFFCURVE",
"384 594 OFFCURVE",
"393 595 CURVE SMOOTH",
"399 595 OFFCURVE",
"406 594 OFFCURVE",
"412 593 CURVE SMOOTH",
"414 593 OFFCURVE",
"421 590 OFFCURVE",
"428 588 CURVE",
"439 580 OFFCURVE",
"448 571 OFFCURVE",
"458 565 CURVE SMOOTH",
"461 563 OFFCURVE",
"464 562 OFFCURVE",
"467 562 CURVE SMOOTH",
"478 562 OFFCURVE",
"486 572 OFFCURVE",
"486 582 CURVE SMOOTH",
"486 587 OFFCURVE",
"483 593 OFFCURVE",
"476 597 CURVE SMOOTH",
"450 612 OFFCURVE",
"442 635 OFFCURVE",
"404 635 CURVE",
"404 635 OFFCURVE",
"401 634 OFFCURVE",
"396 633 CURVE SMOOTH",
"393 633 LINE",
"384 633 LINE SMOOTH",
"372 633 OFFCURVE",
"355 632 OFFCURVE",
"336 630 CURVE",
"367 647 OFFCURVE",
"404 659 OFFCURVE",
"434 659 CURVE",
"437 658 OFFCURVE",
"440 658 OFFCURVE",
"443 658 CURVE SMOOTH",
"485 658 LINE",
"487 656 OFFCURVE",
"490 654 OFFCURVE",
"494 654 CURVE",
"504 652 OFFCURVE",
"513 650 OFFCURVE",
"521 647 CURVE",
"540 622 OFFCURVE",
"532 590 OFFCURVE",
"563 573 CURVE SMOOTH",
"567 571 LINE",
"568 570 OFFCURVE",
"569 570 OFFCURVE",
"569 569 CURVE",
"574 561 OFFCURVE",
"577 553 OFFCURVE",
"583 548 CURVE",
"585 524 OFFCURVE",
"585 497 OFFCURVE",
"588 481 CURVE SMOOTH",
"594 452 OFFCURVE",
"607 424 OFFCURVE",
"609 394 CURVE",
"607 382 OFFCURVE",
"607 371 OFFCURVE",
"607 359 CURVE SMOOTH",
"607 345 OFFCURVE",
"607 331 OFFCURVE",
"608 316 CURVE SMOOTH",
"608 313 LINE",
"602 306 OFFCURVE",
"600 297 OFFCURVE",
"600 286 CURVE SMOOTH",
"600 282 OFFCURVE",
"600 278 OFFCURVE",
"601 273 CURVE",
"592 264 OFFCURVE",
"588 252 OFFCURVE",
"581 241 CURVE SMOOTH",
"570 224 OFFCURVE",
"541 237 OFFCURVE",
"541 205 CURVE SMOOTH",
"541 193 OFFCURVE",
"545 187 OFFCURVE",
"551 179 CURVE",
"525 133 LINE",
"505 110 OFFCURVE",
"482 85 OFFCURVE",
"467 70 CURVE",
"456 63 OFFCURVE",
"443 57 OFFCURVE",
"431 52 CURVE"
);
}
);
width = 676;
}
);
note = Q;
unicode = 0051;
},
{
glyphname = R;
lastChange = "2021-06-24 05:27:24 +0000";
layers = (
{
anchors = (
{
name = bottom;
position = "{495, -108}";
},
{
name = top;
position = "{689, 626}";
}
);
layerId = "5C71BA0D-BC2C-47B0-9323-6F63B3241D58";
paths = (
{
closed = 1;
nodes = (
"196 -123 OFFCURVE",
"206 -120 OFFCURVE",
"214 -117 CURVE",
"235 -115 OFFCURVE",
"258 -109 OFFCURVE",
"281 -103 CURVE SMOOTH",
"293 -101 OFFCURVE",
"303 -98 OFFCURVE",
"313 -92 CURVE",
"332 -85 OFFCURVE",
"350 -77 OFFCURVE",
"364 -69 CURVE SMOOTH",
"382 -59 OFFCURVE",
"400 -41 OFFCURVE",
"412 -18 CURVE",
"443 15 OFFCURVE",
"469 50 OFFCURVE",
"478 102 CURVE",
"480 109 OFFCURVE",
"482 126 OFFCURVE",
"484 148 CURVE",
"501 144 OFFCURVE",
"518 142 OFFCURVE",
"536 142 CURVE",
"536 123 OFFCURVE",
"531 106 OFFCURVE",
"556 95 CURVE",
"552 89 OFFCURVE",
"550 83 OFFCURVE",
"550 77 CURVE SMOOTH",
"550 63 OFFCURVE",
"563 51 OFFCURVE",
"579 51 CURVE SMOOTH",
"580 51 LINE",
"577 42 OFFCURVE",
"575 35 OFFCURVE",
"575 29 CURVE SMOOTH",
"575 17 OFFCURVE",
"582 7 OFFCURVE",
"596 -4 CURVE",
"592 -11 OFFCURVE",
"589 -17 OFFCURVE",
"589 -25 CURVE SMOOTH",
"589 -60 OFFCURVE",
"619 -74 OFFCURVE",
"648 -87 CURVE",
"662 -102 OFFCURVE",
"681 -113 OFFCURVE",
"709 -113 CURVE SMOOTH",
"762 -113 OFFCURVE",
"803 -75 OFFCURVE",
"803 -24 CURVE SMOOTH",
"803 16 OFFCURVE",
"782 44 OFFCURVE",
"743 44 CURVE SMOOTH",
"739 44 OFFCURVE",
"735 44 OFFCURVE",
"731 43 CURVE SMOOTH",
"720 42 OFFCURVE",
"714 33 OFFCURVE",
"714 25 CURVE SMOOTH",
"714 15 OFFCURVE",
"722 5 OFFCURVE",
"735 7 CURVE SMOOTH",
"756 9 OFFCURVE",
"766 2 OFFCURVE",
"766 -24 CURVE SMOOTH",
"766 -52 OFFCURVE",
"745 -74 OFFCURVE",
"712 -75 CURVE",
"709 -73 LINE SMOOTH",
"701 -68 OFFCURVE",
"686 -62 OFFCURVE",
"671 -56 CURVE",
"665 -47 LINE SMOOTH",
"648 -20 OFFCURVE",
"630 26 OFFCURVE",
"616 67 CURVE SMOOTH",
"615 69 OFFCURVE",
"615 71 OFFCURVE",
"614 72 CURVE",
"606 94 OFFCURVE",
"600 115 OFFCURVE",
"595 131 CURVE SMOOTH",
"592 141 LINE",
"688 142 OFFCURVE",
"746 176 OFFCURVE",
"767 244 CURVE",
"819 274 OFFCURVE",
"815 348 OFFCURVE",
"815 401 CURVE SMOOTH",
"815 406 OFFCURVE",
"814 410 OFFCURVE",
"813 413 CURVE",
"819 421 OFFCURVE",
"825 429 OFFCURVE",
"825 441 CURVE SMOOTH",
"825 466 OFFCURVE",
"811 476 OFFCURVE",
"797 477 CURVE",
"798 480 OFFCURVE",
"798 484 OFFCURVE",
"798 486 CURVE SMOOTH",
"798 504 OFFCURVE",
"787 514 OFFCURVE",
"772 522 CURVE SMOOTH",
"770 523 LINE",
"771 525 OFFCURVE",
"773 529 OFFCURVE",
"773 533 CURVE SMOOTH",
"773 552 OFFCURVE",
"763 559 OFFCURVE",
"748 567 CURVE",
"697 623 OFFCURVE",
"615 623 OFFCURVE",
"546 633 CURVE SMOOTH",
"542 634 OFFCURVE",
"538 633 OFFCURVE",
"535 632 CURVE",
"487 638 OFFCURVE",
"443 641 OFFCURVE",
"421 641 CURVE SMOOTH",
"372 641 OFFCURVE",
"311 641 OFFCURVE",
"262 625 CURVE",
"259 626 OFFCURVE",
"256 626 OFFCURVE",
"253 626 CURVE SMOOTH",
"187 626 OFFCURVE",
"151 519 OFFCURVE",
"151 471 CURVE SMOOTH",
"151 418 OFFCURVE",
"192 386 OFFCURVE",
"239 386 CURVE SMOOTH",
"242 386 LINE",
"254 382 OFFCURVE",
"268 379 OFFCURVE",
"284 379 CURVE SMOOTH",
"322 379 OFFCURVE",
"375 399 OFFCURVE",
"375 445 CURVE SMOOTH",
"375 476 OFFCURVE",
"362 507 OFFCURVE",
"326 507 CURVE SMOOTH",
"316 507 OFFCURVE",
"300 506 OFFCURVE",
"288 490 CURVE SMOOTH",
"285 486 OFFCURVE",
"284 482 OFFCURVE",
"284 479 CURVE SMOOTH",
"284 469 OFFCURVE",
"293 460 OFFCURVE",
"303 460 CURVE SMOOTH",
"308 460 OFFCURVE",
"314 462 OFFCURVE",
"318 468 CURVE",
"319 468 OFFCURVE",
"322 470 OFFCURVE",
"326 470 CURVE SMOOTH",
"338 470 OFFCURVE",
"338 453 OFFCURVE",
"338 445 CURVE SMOOTH",
"338 424 OFFCURVE",
"299 416 OFFCURVE",
"284 416 CURVE SMOOTH",
"280 416 OFFCURVE",
"277 417 OFFCURVE",
"274 417 CURVE",
"271 418 LINE SMOOTH",
"264 420 OFFCURVE",
"257 422 OFFCURVE",
"249 422 CURVE",
"222 434 OFFCURVE",
"212 462 OFFCURVE",
"212 503 CURVE SMOOTH",
"212 596 OFFCURVE",
"308 603 OFFCURVE",
"383 603 CURVE SMOOTH",
"397 603 OFFCURVE",
"409 603 OFFCURVE",
"421 603 CURVE SMOOTH",
"506 603 OFFCURVE",
"586 591 OFFCURVE",
"666 564 CURVE SMOOTH",
"736 540 OFFCURVE",
"750 437 OFFCURVE",
"750 377 CURVE SMOOTH",
"750 338 OFFCURVE",
"745 300 OFFCURVE",
"734 267 CURVE",
"678 232 OFFCURVE",
"658 190 OFFCURVE",
"575 189 CURVE",
"560 226 OFFCURVE",
"539 270 OFFCURVE",
"515 306 CURVE SMOOTH",
"514 308 OFFCURVE",
"513 311 OFFCURVE",
"511 314 CURVE SMOOTH",
"509 317 LINE",
"523 401 OFFCURVE",
"543 478 OFFCURVE",
"569 478 CURVE SMOOTH",
"577 478 OFFCURVE",
"584 477 OFFCURVE",
"592 474 CURVE SMOOTH",
"607 470 OFFCURVE",
"617 481 OFFCURVE",
"617 493 CURVE SMOOTH",
"617 500 OFFCURVE",
"613 507 OFFCURVE",
"604 510 CURVE SMOOTH",
"592 514 OFFCURVE",
"582 514 OFFCURVE",
"569 514 CURVE SMOOTH",
"544 514 OFFCURVE",
"522 492 OFFCURVE",
"514 475 CURVE SMOOTH",
"505 452 LINE",
"493 445 OFFCURVE",
"471 378 OFFCURVE",
"470 367 CURVE",
"466 364 LINE SMOOTH",
"464 363 OFFCURVE",
"462 362 OFFCURVE",
"461 361 CURVE",
"449 368 OFFCURVE",
"437 372 OFFCURVE",
"425 372 CURVE",
"412 376 OFFCURVE",
"398 379 OFFCURVE",
"385 379 CURVE SMOOTH",
"352 379 OFFCURVE",
"343 354 OFFCURVE",
"343 327 CURVE SMOOTH",
"343 322 OFFCURVE",
"344 318 OFFCURVE",
"344 313 CURVE",
"333 307 OFFCURVE",
"325 297 OFFCURVE",
"325 284 CURVE SMOOTH",
"325 263 OFFCURVE",
"344 249 OFFCURVE",
"358 235 CURVE SMOOTH",
"360 233 LINE",
"359 229 OFFCURVE",
"358 226 OFFCURVE",
"358 222 CURVE SMOOTH",
"358 217 OFFCURVE",
"359 212 OFFCURVE",
"363 208 CURVE SMOOTH",
"379 188 OFFCURVE",
"401 175 OFFCURVE",
"426 167 CURVE",
"423 151 OFFCURVE",
"430 144 OFFCURVE",
"430 131 CURVE SMOOTH",
"430 127 OFFCURVE",
"429 124 OFFCURVE",
"428 119 CURVE",
"425 116 LINE",
"421 112 LINE SMOOTH",
"415 106 OFFCURVE",
"403 96 OFFCURVE",
"403 79 CURVE SMOOTH",
"403 75 OFFCURVE",
"405 71 OFFCURVE",
"406 68 CURVE",
"403 62 OFFCURVE",
"402 55 OFFCURVE",
"401 51 CURVE SMOOTH",
"398 34 OFFCURVE",
"391 20 OFFCURVE",
"383 6 CURVE",
"368 -7 OFFCURVE",
"350 -18 OFFCURVE",
"330 -27 CURVE SMOOTH",
"317 -33 OFFCURVE",
"309 -43 OFFCURVE",
"304 -49 CURVE SMOOTH",
"300 -54 LINE SMOOTH",
"298 -57 OFFCURVE",
"295 -59 OFFCURVE",
"292 -61 CURVE SMOOTH",
"287 -63 OFFCURVE",
"282 -64 OFFCURVE",
"277 -66 CURVE",
"266 -66 LINE SMOOTH",
"240 -66 OFFCURVE",
"222 -75 OFFCURVE",
"207 -81 CURVE",
"191 -81 LINE SMOOTH",
"178 -81 OFFCURVE",
"170 -79 OFFCURVE",
"157 -79 CURVE SMOOTH",
"154 -79 OFFCURVE",
"151 -80 OFFCURVE",
"146 -80 CURVE",
"81 -61 OFFCURVE",
"60 6 OFFCURVE",
"60 88 CURVE SMOOTH",
"60 191 OFFCURVE",
"111 234 OFFCURVE",
"205 234 CURVE SMOOTH",
"209 234 OFFCURVE",
"212 233 OFFCURVE",
"216 233 CURVE",
"218 229 OFFCURVE",
"221 226 OFFCURVE",
"226 224 CURVE SMOOTH",
"241 218 OFFCURVE",
"257 203 OFFCURVE",
"270 194 CURVE",
"264 177 LINE SMOOTH",
"259 164 OFFCURVE",
"259 110 OFFCURVE",
"259 95 CURVE SMOOTH",
"259 92 LINE",
"253 89 LINE",
"248 87 LINE SMOOTH",
"236 82 OFFCURVE",
"230 75 OFFCURVE",
"230 68 CURVE",
"219 65 OFFCURVE",
"211 63 OFFCURVE",
"207 63 CURVE SMOOTH",
"197 63 OFFCURVE",
"188 65 OFFCURVE",
"182 67 CURVE SMOOTH",
"178 69 OFFCURVE",
"154 96 OFFCURVE",
"142 96 CURVE SMOOTH",
"138 96 OFFCURVE",
"135 92 OFFCURVE",
"135 83 CURVE SMOOTH",
"135 80 OFFCURVE",
"135 76 OFFCURVE",
"136 72 CURVE SMOOTH",
"140 37 OFFCURVE",
"178 26 OFFCURVE",
"207 26 CURVE SMOOTH",
"211 26 LINE",
"214 25 OFFCURVE",
"217 26 OFFCURVE",
"219 27 CURVE",
"232 29 OFFCURVE",
"247 34 OFFCURVE",
"261 40 CURVE",
"263 40 LINE SMOOTH",
"294 40 OFFCURVE",
"309 56 OFFCURVE",
"321 81 CURVE SMOOTH",
"330 99 OFFCURVE",
"351 114 OFFCURVE",
"351 134 CURVE SMOOTH",
"351 231 OFFCURVE",
"281 275 OFFCURVE",
"195 275 CURVE SMOOTH",
"149 275 OFFCURVE",
"36 244 OFFCURVE",
"32 181 CURVE",
"10 168 OFFCURVE",
"4 161 OFFCURVE",
"4 152 CURVE SMOOTH",
"4 144 OFFCURVE",
"9 134 OFFCURVE",
"10 118 CURVE",
"7 100 OFFCURVE",
"-7 90 OFFCURVE",
"-7 67 CURVE SMOOTH",
"-7 -1 OFFCURVE",
"35 -119 OFFCURVE",
"125 -119 CURVE SMOOTH",
"130 -119 OFFCURVE",
"136 -118 OFFCURVE",
"142 -118 CURVE",
"155 -121 OFFCURVE",
"170 -123 OFFCURVE",
"186 -123 CURVE SMOOTH"
);
},
{
closed = 1;
nodes = (
"416 224 OFFCURVE",
"400 252 OFFCURVE",
"400 294 CURVE SMOOTH",
"400 326 OFFCURVE",
"406 335 OFFCURVE",
"419 335 CURVE",
"429 332 OFFCURVE",
"439 327 OFFCURVE",
"448 322 CURVE",
"450 311 OFFCURVE",
"453 300 OFFCURVE",
"452 287 CURVE",
"438 279 OFFCURVE",
"434 267 OFFCURVE",
"434 254 CURVE SMOOTH",
"434 237 OFFCURVE",
"440 219 OFFCURVE",
"440 206 CURVE"
);
},
{
closed = 1;
nodes = (
"520 189 OFFCURVE",
"505 189 OFFCURVE",
"490 191 CURVE",
"493 213 OFFCURVE",
"496 237 OFFCURVE",
"500 261 CURVE",
"514 237 OFFCURVE",
"525 213 OFFCURVE",
"535 189 CURVE"
);
}
);
width = 828;
}
);
note = R;
unicode = 0052;
},
{
glyphname = S;
lastChange = "2021-06-24 05:27:24 +0000";
layers = (
{
anchors = (
{
name = bottom;
position = "{141, -129}";
},
{
name = top;
position = "{242, 629}";
}
);
layerId = "5C71BA0D-BC2C-47B0-9323-6F63B3241D58";
paths = (
{
closed = 1;
nodes = (
"141 -129 OFFCURVE",
"233 -132 OFFCURVE",
"249 -100 CURVE SMOOTH",
"251 -96 LINE SMOOTH",
"252 -94 OFFCURVE",
"253 -93 OFFCURVE",
"253 -92 CURVE",
"281 -80 OFFCURVE",
"298 -104 OFFCURVE",
"313 -53 CURVE",
"321 -49 LINE",
"361 -36 OFFCURVE",
"359 -12 OFFCURVE",
"369 27 CURVE",
"369 26 OFFCURVE",
"370 26 OFFCURVE",
"370 25 CURVE",
"383 46 OFFCURVE",
"397 52 OFFCURVE",
"395 83 CURVE SMOOTH",
"393 108 OFFCURVE",
"405 111 OFFCURVE",
"405 133 CURVE SMOOTH",
"405 177 OFFCURVE",
"379 203 OFFCURVE",
"377 226 CURVE SMOOTH",
"375 254 OFFCURVE",
"366 260 OFFCURVE",
"345 263 CURVE",
"339 271 OFFCURVE",
"332 279 OFFCURVE",
"324 286 CURVE",
"311 308 OFFCURVE",
"298 329 OFFCURVE",
"264 329 CURVE SMOOTH",
"262 329 OFFCURVE",
"260 328 OFFCURVE",
"258 328 CURVE",
"243 336 OFFCURVE",
"227 343 OFFCURVE",
"209 352 CURVE SMOOTH",
"203 355 LINE",
"190 377 OFFCURVE",
"171 398 OFFCURVE",
"160 421 CURVE",
"160 429 OFFCURVE",
"159 437 OFFCURVE",
"158 443 CURVE SMOOTH",
"157 451 OFFCURVE",
"155 458 OFFCURVE",
"152 464 CURVE",
"152 482 OFFCURVE",
"150 502 OFFCURVE",
"154 519 CURVE",
"157 523 OFFCURVE",
"181 529 OFFCURVE",
"192 547 CURVE SMOOTH",
"200 562 OFFCURVE",
"211 568 OFFCURVE",
"224 577 CURVE",
"256 577 LINE SMOOTH",
"261 577 OFFCURVE",
"264 578 OFFCURVE",
"267 580 CURVE",
"272 580 LINE SMOOTH",
"273 580 OFFCURVE",
"277 579 OFFCURVE",
"281 580 CURVE SMOOTH",
"285 581 LINE",
"284 572 OFFCURVE",
"289 565 OFFCURVE",
"312 565 CURVE SMOOTH",
"317 565 OFFCURVE",
"322 564 OFFCURVE",
"327 561 CURVE",
"329 557 OFFCURVE",
"332 555 OFFCURVE",
"335 553 CURVE",
"345 543 OFFCURVE",
"352 527 OFFCURVE",
"352 510 CURVE SMOOTH",
"352 464 OFFCURVE",
"341 442 OFFCURVE",
"297 442 CURVE SMOOTH",
"284 442 OFFCURVE",
"260 444 OFFCURVE",
"260 462 CURVE SMOOTH",
"260 477 OFFCURVE",
"267 484 OFFCURVE",
"273 485 CURVE SMOOTH",
"284 487 OFFCURVE",
"288 495 OFFCURVE",
"288 503 CURVE SMOOTH",
"288 513 OFFCURVE",
"280 523 OFFCURVE",
"267 521 CURVE SMOOTH",
"235 516 OFFCURVE",
"223 485 OFFCURVE",
"223 462 CURVE SMOOTH",
"223 420 OFFCURVE",
"262 405 OFFCURVE",
"297 405 CURVE SMOOTH",
"372 405 OFFCURVE",
"389 456 OFFCURVE",
"389 510 CURVE SMOOTH",
"389 535 OFFCURVE",
"376 570 OFFCURVE",
"352 589 CURVE",
"344 598 OFFCURVE",
"334 606 OFFCURVE",
"322 612 CURVE",
"319 618 OFFCURVE",
"311 620 OFFCURVE",
"304 620 CURVE",
"288 626 OFFCURVE",
"272 629 OFFCURVE",
"259 629 CURVE SMOOTH",
"191 629 OFFCURVE",
"83 617 OFFCURVE",
"83 507 CURVE SMOOTH",
"83 500 OFFCURVE",
"85 493 OFFCURVE",
"88 488 CURVE",
"88 486 LINE SMOOTH",
"88 454 OFFCURVE",
"105 413 OFFCURVE",
"129 379 CURVE",
"138 339 OFFCURVE",
"167 322 OFFCURVE",
"187 321 CURVE",
"193 318 LINE SMOOTH",
"230 301 OFFCURVE",
"266 283 OFFCURVE",
"296 258 CURVE",
"301 247 OFFCURVE",
"309 236 OFFCURVE",
"324 230 CURVE",
"336 215 OFFCURVE",
"340 173 OFFCURVE",
"340 154 CURVE SMOOTH",
"340 29 OFFCURVE",
"240 -76 OFFCURVE",
"116 -76 CURVE SMOOTH",
"93 -76 OFFCURVE",
"75 -72 OFFCURVE",
"61 -64 CURVE",
"50 -48 OFFCURVE",
"33 -18 OFFCURVE",
"22 3 CURVE",
"21 11 OFFCURVE",
"21 20 OFFCURVE",
"21 30 CURVE SMOOTH",
"21 39 OFFCURVE",
"21 48 OFFCURVE",
"22 56 CURVE",
"27 73 OFFCURVE",
"30 90 OFFCURVE",
"31 108 CURVE",
"49 168 OFFCURVE",
"87 216 OFFCURVE",
"145 216 CURVE SMOOTH",
"200 216 OFFCURVE",
"216 195 OFFCURVE",
"216 147 CURVE SMOOTH",
"216 94 OFFCURVE",
"193 76 OFFCURVE",
"149 76 CURVE",
"147 109 LINE SMOOTH",
"146 122 OFFCURVE",
"137 128 OFFCURVE",
"128 128 CURVE SMOOTH",
"119 128 OFFCURVE",
"110 122 OFFCURVE",
"110 109 CURVE SMOOTH",
"110 74 LINE",
"111 68 LINE",
"116 54 OFFCURVE",
"129 39 OFFCURVE",
"149 39 CURVE SMOOTH",
"213 39 OFFCURVE",
"253 74 OFFCURVE",
"253 147 CURVE SMOOTH",
"253 183 OFFCURVE",
"244 211 OFFCURVE",
"223 229 CURVE",
"222 231 OFFCURVE",
"220 232 OFFCURVE",
"218 234 CURVE",
"195 248 OFFCURVE",
"182 265 OFFCURVE",
"152 265 CURVE SMOOTH",
"128 265 OFFCURVE",
"115 246 OFFCURVE",
"91 247 CURVE SMOOTH",
"8 249 OFFCURVE",
"2 178 OFFCURVE",
"-5 114 CURVE",
"-10 96 OFFCURVE",
"-13 78 OFFCURVE",
"-15 61 CURVE",
"-19 50 OFFCURVE",
"-25 39 OFFCURVE",
"-25 25 CURVE SMOOTH",
"-25 14 OFFCURVE",
"-19 1 OFFCURVE",
"-12 -13 CURVE",
"-6 -47 OFFCURVE",
"9 -75 OFFCURVE",
"36 -93 CURVE",
"54 -116 OFFCURVE",
"81 -129 OFFCURVE",
"112 -129 CURVE SMOOTH"
);
}
);
width = 408;
}
);
note = S;
unicode = 0053;
},
{
color = 11;
glyphname = Schwa;
lastChange = "2021-06-24 05:27:24 +0000";
layers = (
{
layerId = "5C71BA0D-BC2C-47B0-9323-6F63B3241D58";
paths = (
{
closed = 1;
nodes = (
"257.257 -2.18 OFFCURVE",
"276.416 22.727 OFFCURVE",
"293.66 22.727 CURVE SMOOTH",
"324.315 22.727 OFFCURVE",
"337.726 39.97 OFFCURVE",
"335.81 68.709 CURVE",
"365 100 OFFCURVE",
"412 153 OFFCURVE",
"412 203 CURVE SMOOTH",
"412 216 OFFCURVE",
"409 228 OFFCURVE",
"402.867 239.227 CURVE",
"422 259 OFFCURVE",
"446 285 OFFCURVE",
"446 314 CURVE SMOOTH",
"446 320 OFFCURVE",
"445 325 OFFCURVE",
"443.102 331.191 CURVE",
"441.186 333.107 LINE",
"446.934 340.771 OFFCURVE",
"448.85 352.266 OFFCURVE",
"448.85 361.846 CURVE SMOOTH",
"448.85 379.089 OFFCURVE",
"439.27 388.669 OFFCURVE",
"431.606 394.416 CURVE",
"433.522 396.332 LINE SMOOTH",
"435 398 OFFCURVE",
"436 401 OFFCURVE",
"436 406 CURVE SMOOTH",
"436 412 OFFCURVE",
"435 419 OFFCURVE",
"431.606 425.071 CURVE",
"436 434 OFFCURVE",
"438 443 OFFCURVE",
"438 451 CURVE SMOOTH",
"438 489 OFFCURVE",
"403 525 OFFCURVE",
"368.381 549.606 CURVE",
"345.39 584.093 OFFCURVE",
"310.903 605.168 OFFCURVE",
"263.005 605.168 CURVE SMOOTH",
"201.695 605.168 LINE SMOOTH",
"155.713 605.168 OFFCURVE",
"88.656 538.111 OFFCURVE",
"61.833 505.54 CURVE",
"54.169 494.045 OFFCURVE",
"46.506 486.381 OFFCURVE",
"42.674 478.717 CURVE",
"36.926 472.969 OFFCURVE",
"35.01 465.306 OFFCURVE",
"31.178 449.978 CURVE SMOOTH",
"30 442 OFFCURVE",
"29 434 OFFCURVE",
"29 428 CURVE SMOOTH",
"29 387 OFFCURVE",
"51 368 OFFCURVE",
"65.665 371.425 CURVE SMOOTH",
"78 374 OFFCURVE",
"81 382 OFFCURVE",
"81 391 CURVE SMOOTH",
"81 401 OFFCURVE",
"76 412 OFFCURVE",
"77.16 415.492 CURVE SMOOTH",
"82.908 434.651 OFFCURVE",
"103.983 451.894 OFFCURVE",
"107.815 467.222 CURVE SMOOTH",
"111.647 482.549 OFFCURVE",
"134.638 492.129 OFFCURVE",
"140.386 505.54 CURVE",
"157.629 534.279 OFFCURVE",
"184 549 OFFCURVE",
"240.014 549.606 CURVE SMOOTH",
"344 550 OFFCURVE",
"378 442 OFFCURVE",
"378 398 CURVE SMOOTH",
"378 341 OFFCURVE",
"370 293 OFFCURVE",
"344 281 CURVE SMOOTH",
"309 266 OFFCURVE",
"169.125 262.218 OFFCURVE",
"130.806 262.218 CURVE SMOOTH",
"121.227 262.218 OFFCURVE",
"96.32 266.05 OFFCURVE",
"71.413 264.134 CURVE SMOOTH",
"52.253 262.218 OFFCURVE",
"33.094 260.302 OFFCURVE",
"31.178 244.974 CURVE",
"31.178 162.59 OFFCURVE",
"113.563 7.4 OFFCURVE",
"195.948 5.484 CURVE",
"203.611 1.652 OFFCURVE",
"211.275 -2.18 OFFCURVE",
"222.771 -2.18 CURVE SMOOTH"
);
},
{
closed = 1;
nodes = (
"163 67 OFFCURVE",
"158 67 OFFCURVE",
"156 67 CURVE",
"133 73 LINE",
"105 97 OFFCURVE",
"97 163 OFFCURVE",
"89 193 CURVE",
"104 213 OFFCURVE",
"102 225 OFFCURVE",
"133 225 CURVE SMOOTH",
"168 225 LINE SMOOTH",
"186 225 OFFCURVE",
"214 227 OFFCURVE",
"239 229 CURVE SMOOTH",
"258 230 OFFCURVE",
"290 233 OFFCURVE",
"319 233 CURVE SMOOTH",
"332 233 OFFCURVE",
"344 232 OFFCURVE",
"355 231 CURVE",
"342 205 OFFCURVE",
"328 169 OFFCURVE",
"319 152 CURVE SMOOTH",
"276 69 OFFCURVE",
"242 67 OFFCURVE",
"168 65 CURVE"
);
}
);
width = 469;
}
);
unicode = 018F;
},
